<?xml version="1.0" standalone="no"?>
<!DOCTYPE svg PUBLIC "-//W3C//DTD SVG 1.1//EN" "http://www.w3.org/Graphics/SVG/1.1/DTD/svg11.dtd" >
<svg>
<metadata>
Created by FontForge 20090914 at Sun Feb  9 11:49:02 2020
 By www-data
Copyright (c) 2010 by Pablo Impallari (www.impallari.com). Copyright (c) 2015 by black foundry (www.black-foundry.com)
</metadata>
<defs>
<font id="Galada-Regular" horiz-adv-x="0" >
  <font-face 
    font-family="Galada"
    font-weight="400"
    font-stretch="normal"
    units-per-em="1000"
    panose-1="2 0 5 6 0 0 0 2 0 3"
    ascent="800"
    descent="-200"
    x-height="499.999"
    cap-height="750.001"
    bbox="-685.002 -591.999 1473 1035"
    underline-thickness="50"
    underline-position="-50"
    unicode-range="U+000D-U+FB02"
  />
<missing-glyph horiz-adv-x="385" 
 />
    <glyph glyph-name=".notdef" horiz-adv-x="385" 
 />
    <glyph glyph-name=".null" horiz-adv-x="1" 
 />
    <glyph glyph-name=".null" horiz-adv-x="1" 
 />
    <glyph glyph-name="CR" unicode="&#xd;" horiz-adv-x="1" 
 />
    <glyph glyph-name="space" unicode=" " horiz-adv-x="217" 
 />
    <glyph glyph-name="exclam" unicode="!" horiz-adv-x="257" 
d="M169 700h144l-130 -469h-85zM34 80c0 22 7.83301 40.667 23.5 56s34.5 23 56.5 23s40.667 -7.66699 56 -23s23 -34 23 -56s-7.66699 -40.833 -23 -56.5s-34 -23.5 -56 -23.5s-40.833 7.83301 -56.5 23.5s-23.5 34.5 -23.5 56.5z" />
    <glyph glyph-name="quotedbl" unicode="&#x22;" horiz-adv-x="420" 
d="M385 750l-91 -189h-75l61 189h105zM228 750l-91 -189h-75l61 189h105z" />
    <glyph glyph-name="numbersign" unicode="#" horiz-adv-x="659" 
d="M350 213l21 113h-109l-25 -113h113zM394 111l-30 -138h-57l25 138h-118l-30 -138h-57l25 138h-107l21 102h104l21 113h-102l21 102h99l52 290h88l-65 -290h105l52 290h88l-65 -290h104l-20 -102h-106l-25 -113h107l-20 -102h-110z" />
    <glyph glyph-name="dollar" unicode="$" horiz-adv-x="403" 
d="M218 574c-16.667 -3.33301 -29.5 -11.668 -38.5 -25.001s-13.5 -29.666 -13.5 -48.999c0 -11.333 2.33301 -22 7 -32s11.667 -19.667 21 -29zM175 143.998c21.333 2.66699 37.667 11.833 49 27.5s17 36.5 17 62.5c0 13.333 -2.33301 26.333 -7 39s-12 25 -22 37z
M166.001 106.997l-29.002 -134.004h-27l24 135c-36 2.66699 -63.333 13.667 -82 33s-28 46.333 -28 81c0 24.667 6.83301 45.167 20.5 61.5s30.834 24.5 51.501 24.5c12.667 0 23 -2.33301 31 -7s12 -10.667 12 -18c-13.333 -2 -23.333 -9.33301 -30 -22s-10 -30 -10 -52
c0 -12.667 3.83301 -24.5 11.5 -35.5s17.834 -19.5 30.501 -25.5l36 196l-31 25c-16.667 13.333 -29.334 24.333 -38.001 33c-12.667 12.667 -22 25.334 -28 38.001s-9 26.334 -9 41.001c0 34.667 15.5 64.834 46.5 90.501s66.833 39.167 107.5 40.5l19 106h58l-25 -109
c28.667 -4.66699 50.334 -14 65.001 -28s22 -32.333 22 -55c0 -23.333 -4.33301 -41.833 -13 -55.5s-20.334 -20.5 -35.001 -20.5c-7.33301 0 -13.833 1.66699 -19.5 5s-12.167 9.33301 -19.5 18c8 4.66699 14 11.5 18 20.5s6 19.5 6 31.5
c0 8.66699 -2.83301 17.167 -8.5 25.5s-13.5 14.5 -23.5 18.5l-36 -161c46.667 -30 77.167 -56 91.5 -78s21.5 -47 21.5 -75c0 -44.667 -16.167 -80.167 -48.5 -106.5s-76.166 -40.166 -131.499 -41.499z" />
    <glyph glyph-name="percent" unicode="%" horiz-adv-x="644" 
d="M121 0l386 750h72l-386 -750h-72zM203 374c-34 0 -58.5 8.5 -73.5 25.5s-22.5 46.5 -22.5 88.5c0 62 15 113.167 45 153.5s69 60.5 117 60.5c28 0 48.667 -9.33301 62 -28s20 -47 20 -85c0 -53.333 -14.333 -102.5 -43 -147.5s-63.667 -67.5 -105 -67.5zM291 604
c0 22.667 -2.00098 38.833 -6.00098 48.5s-10.333 14.5 -19 14.5c-18 0 -35.833 -14.333 -53.5 -43s-28.167 -63.667 -31.5 -105c-0.666992 -8 -1.16699 -15.5 -1.5 -22.5s-0.5 -13.833 -0.5 -20.5c0 -21.333 2.33301 -37.5 7 -48.5s11.334 -16.5 20.001 -16.5
c24.667 0 45 18.5 61 55.5s24 82.833 24 137.5zM450.999 -0.000976562c-34 0 -58.5 8.5 -73.5 25.5s-22.5 46.5 -22.5 88.5c0 62 15 113.167 45 153.5s69 60.5 117 60.5c29.333 0 52 -9.83301 68 -29.5s24 -47.5 24 -83.5c0 -58.667 -14.333 -109.167 -43 -151.5
s-67 -63.5 -115 -63.5zM530.999 222.999c0 21.333 -2.33398 37.999 -7.00098 49.999s-11.667 18 -21 18c-17.333 0 -34 -13.833 -50 -41.5s-25.667 -62.5 -29 -104.5c-0.666992 -8 -1.16699 -15.5 -1.5 -22.5s-0.5 -13.833 -0.5 -20.5c0 -21.333 2.33301 -37.5 7 -48.5
s11.334 -16.5 20.001 -16.5c24.667 0 44.5 17.333 59.5 52s22.5 79.334 22.5 134.001z" />
    <glyph glyph-name="ampersand" unicode="&#x26;" horiz-adv-x="682" 
d="M545 372l22.501 -1.49902c5 -0.333008 9.5 -0.5 13.5 -0.5c21.333 0 40.666 3.83301 57.999 11.5s29.666 18.167 36.999 31.5h6c0 -29.333 -15.333 -58.166 -46 -86.499s-66 -45.833 -106 -52.5c-12.667 -45.333 -27.5 -85.166 -44.5 -119.499
s-36.167 -62.833 -57.5 -85.5c-24.667 -26 -52.5 -45 -83.5 -57s-73.167 -18 -126.5 -18c-62.667 0 -112.834 19 -150.501 57s-56.5 86.333 -56.5 145c0 54 16.5 101.5 49.5 142.5s76.833 67.167 131.5 78.5c-31.333 17.333 -55.666 39.333 -72.999 66
s-26 55.334 -26 86.001c0 50.667 20.833 93.5 62.5 128.5s94.834 52.5 159.501 52.5c56 0 100.667 -11.833 134 -35.5s50 -56.5 50 -98.5c0 -30 -6 -52.833 -18 -68.5s-29.333 -23.5 -52 -23.5c-11.333 0 -21.833 2.16699 -31.5 6.5s-18.167 10.833 -25.5 19.5
c11.333 3.33301 21.5 14 30.5 32s13.5 34.667 13.5 50c0 23.333 -5.66699 41.5 -17 54.5s-27.666 19.5 -48.999 19.5c-35.333 0 -64.5 -11.833 -87.5 -35.5s-34.5 -52.834 -34.5 -87.501c0 -33.333 11.5 -64.5 34.5 -93.5s55.5 -52.833 97.5 -71.5
c-56 -22.667 -99 -51.667 -129 -87s-45 -73.333 -45 -114c0 -36.667 11.5 -68 34.5 -94s50.5 -39 82.5 -39c44.667 0 82.834 16.167 114.501 48.5s53.834 78.833 66.501 139.5c-3.33301 0 -6.83301 0.166992 -10.5 0.5s-8.83398 1.16602 -15.501 2.49902
c-12.667 1.33301 -22 2.16602 -28 2.49902s-11.667 0.5 -17 0.5c-22 0 -40.833 -3.83301 -56.5 -11.5s-28.167 -18.834 -37.5 -33.501l-7 1c10.667 43.333 33.167 77.666 67.5 102.999s76.166 38 125.499 38c5.33301 0 10.666 -0.166992 15.999 -0.5
s13.333 -1.16602 24 -2.49902z" />
    <glyph glyph-name="quotesingle" unicode="'" horiz-adv-x="268" 
d="M268 750l-91 -189h-75l61 189h105z" />
    <glyph glyph-name="parenleft" unicode="(" horiz-adv-x="437" 
d="M251 -250c-36.667 40.667 -64.667 90.999 -84 150.999s-29 126.333 -29 199c0 138.667 30.833 270.334 92.5 395.001s139.5 209.667 233.5 255l13 -40c-72 -36 -134.333 -117.5 -187 -244.5s-79 -257.833 -79 -392.5c0 -61.333 6.16699 -116.833 18.5 -166.5
s30.5 -92.167 54.5 -127.5z" />
    <glyph glyph-name="parenright" unicode=")" horiz-adv-x="413" 
d="M197 750c36.667 -40.667 64.667 -90.999 84 -150.999s29 -126.333 29 -199c0 -138.667 -30.833 -270.334 -92.5 -395.001s-139.5 -209.667 -233.5 -255l-13 40c72.667 36 135.167 117.5 187.5 244.5s78.5 257.833 78.5 392.5c0 60.667 -6.16699 116 -18.5 166
s-30.5 92.667 -54.5 128z" />
    <glyph glyph-name="asterisk" unicode="*" horiz-adv-x="515" 
d="M116 679l107 -62v135h64v-135l107 62l30 -52l-109 -63l109 -63l-30 -52l-107 62v-135h-64v135l-107 -62l-30 52l109 63l-109 63z" />
    <glyph glyph-name="plus" unicode="+" horiz-adv-x="515" 
d="M205 317l27 122h113l-27 -122h127l-23 -112h-128l-27 -123h-113l27 123h-128l24 112h128z" />
    <glyph glyph-name="comma" unicode="," horiz-adv-x="216" 
d="M84 -18c0 4 -1.16797 7.6709 -3.50098 11.0039s-5.5 6.33301 -9.5 9c-16 10.667 -27.833 22 -35.5 34s-11.5 25 -11.5 39c0 22 7.66699 40.833 23 56.5s34 23.5 56 23.5c20.667 0 37.167 -6.83301 49.5 -20.5s18.5 -32.167 18.5 -55.5
c0 -32.667 -12.167 -68.334 -36.5 -107.001s-55.5 -71.334 -93.5 -98.001c-3.33301 2 -5.66602 4.5 -6.99902 7.5s-2 6.16699 -2 9.5c0 6 1.66699 12.167 5 18.5s10.333 15.166 21 26.499s17.667 20.166 21 26.499s5 12.833 5 19.5z" />
    <glyph glyph-name="hyphen" unicode="-" horiz-adv-x="290" 
d="M19 222l18 79h200l-17 -79h-201z" />
    <glyph glyph-name="period" unicode="." horiz-adv-x="263" 
d="M190 75c0 -22 -7.83301 -40.667 -23.5 -56s-34.5 -23 -56.5 -23s-40.667 7.66699 -56 23s-23 34 -23 56s7.66699 40.833 23 56.5s34 23.5 56 23.5s40.833 -7.83301 56.5 -23.5s23.5 -34.5 23.5 -56.5z" />
    <glyph glyph-name="slash" unicode="/" horiz-adv-x="311" 
d="M11 -250l212 1000h72l-212 -1000h-72z" />
    <glyph glyph-name="zero" unicode="0" horiz-adv-x="546" 
d="M237 -9c-74 0 -127 19.167 -159 57.5s-48 106.833 -48 205.5c0 144 32.167 262.667 96.5 356s147.833 140 250.5 140c60 0 104.667 -21.5 134 -64.5s44 -108.5 44 -196.5c0 -50 -6.66699 -102.667 -20 -158s-31.666 -106.333 -54.999 -153
c-30.667 -60 -66.834 -106.167 -108.501 -138.5s-86.5 -48.5 -134.5 -48.5zM370 698c-20.667 0 -43.499 -14.833 -68.499 -44.5s-47.167 -68.5 -66.5 -116.5c-12.667 -31.333 -23 -65 -31 -101s-13.333 -73 -16 -111c-2 -31.333 -3.33301 -53 -4 -65s-1 -23.333 -1 -34
c0 -50 5 -87.667 15 -113s24.667 -38 44 -38c52 0 95.333 47.167 130 141.5s52 206.5 52 336.5c0 54 -4.33301 91.667 -13 113s-22.334 32 -41.001 32z" />
    <glyph glyph-name="one" unicode="1" horiz-adv-x="317" 
d="M70 670c44.667 0 87 6.33203 127 18.999s82.333 32.334 127 59.001l-159 -748h-144l132 624h-95z" />
    <glyph glyph-name="two" unicode="2" horiz-adv-x="492" 
d="M246 269c-46 -36.667 -78.1611 -64.498 -96.4941 -83.498s-32.833 -36.833 -43.5 -53.5h5c10 0 20.667 -0.5 32 -1.5s28.666 -3.16699 51.999 -6.5c27.333 -4 48.5 -6.66699 63.5 -8s29.5 -2 43.5 -2c16 0 30 1.33301 42 4s23.333 7.33398 34 14.001l20 16.5
c10 8.33301 22.667 19.833 38 34.5c0.666992 -5.33301 1 -11.166 1 -17.499v-26.5c0 -57.333 -9 -96.666 -27 -117.999s-48.667 -32 -92 -32c-19.333 0 -38 1.16699 -56 3.5s-42 7.16602 -72 14.499c-28.667 7.33301 -51.334 12.166 -68.001 14.499s-34 3.5 -52 3.5
c-5.33301 0 -12 -1.16699 -20 -3.5s-20.333 -7.5 -37 -15.5c-6.66699 -2.66699 -11.5 -4.66699 -14.5 -6s-5.5 -2.33301 -7.5 -3c-0.666992 4 -1.16699 8.16699 -1.5 12.5s-0.5 11.166 -0.5 20.499c0 36.667 9.66699 73.167 29 109.5s60.666 87.166 123.999 152.499
c36 37.333 62.333 65.833 79 85.5s30.667 38.834 42 57.501c18.667 29.333 32.5 58.666 41.5 87.999s13.5 59.333 13.5 90c0 22.667 -6.16699 42 -18.5 58s-26.5 24 -42.5 24c-28.667 0 -49.334 -6 -62.001 -18s-19 -33 -19 -63c0 -16 3.5 -30.5 10.5 -43.5
s16.167 -21.167 27.5 -24.5c-12.667 -11.333 -25.334 -19.833 -38.001 -25.5s-25.334 -8.5 -38.001 -8.5c-22 0 -39.5 8.16699 -52.5 24.5s-19.5 38.166 -19.5 65.499c0 43.333 18.333 78.666 55 105.999s87 41 151 41c63.333 0 110.833 -13.5 142.5 -40.5
s47.5 -67.167 47.5 -120.5c0 -32 -5.83301 -63.167 -17.5 -93.5s-29.167 -60.166 -52.5 -89.499c-14.667 -18 -32 -36.5 -52 -55.5s-51.333 -45.833 -94 -80.5z" />
    <glyph glyph-name="three" unicode="3" horiz-adv-x="514" 
d="M6 165c0 44 10.666 78.8281 31.999 104.495s51 38.5 89 38.5c22 0 39.667 -4.33301 53 -13s21.666 -21.334 24.999 -38.001c-29.333 -2 -51.333 -12.167 -66 -30.5s-22 -44.166 -22 -77.499c0 -30 6.16699 -52.333 18.5 -67s31.5 -22 57.5 -22
c40 0 73.167 16.333 99.5 49s39.5 72.667 39.5 120c0 43.333 -11.667 82 -35 116s-56 58.333 -98 73c50 14 91 39.833 123 77.5s48 76.834 48 117.501c0 25.333 -6.83301 45.333 -20.5 60s-32.167 22 -55.5 22c-24 0 -43.167 -7.16699 -57.5 -21.5
s-21.5 -33.166 -21.5 -56.499c0 -17.333 3.33301 -32.666 10 -45.999s16 -21.666 28 -24.999c-12 -11.333 -24.5 -19.833 -37.5 -25.5s-25.833 -8.5 -38.5 -8.5c-21.333 0 -38.666 7.83301 -51.999 23.5s-20 36.167 -20 61.5c0 44 19.667 80.333 59 109
s88.666 43 147.999 43c56.667 0 101.834 -13.5 135.501 -40.5s50.5 -62.167 50.5 -105.5c0 -36 -12.167 -70.667 -36.5 -104s-57.833 -60.666 -100.5 -81.999c40.667 -13.333 71.834 -34.333 93.501 -63s32.5 -62.667 32.5 -102c0 -33.333 -7.83301 -66.333 -23.5 -99
s-37.5 -61.334 -65.5 -86.001c-26 -23.333 -55.5 -41.166 -88.5 -53.499s-67.833 -18.5 -104.5 -18.5c-62 0 -110.667 14.5 -146 43.5s-53 71.167 -53 126.5z" />
    <glyph glyph-name="four" unicode="4" horiz-adv-x="476" 
d="M337 0h-144l59 275h-244c4 12.667 9.5 27.167 16.5 43.5s19.167 42.5 36.5 78.5c37.333 78.667 62.166 138.667 74.499 180s18.5 79 18.5 113c0 10.667 -0.5 21 -1.5 31s-2.83301 19.667 -5.5 29c32.667 0 59.334 -8.66699 80.001 -26s31 -40.333 31 -69
c0 -26 -4.16699 -52 -12.5 -78s-21.5 -54 -39.5 -84c-8.66699 -14 -24 -37 -46 -69s-38 -57 -48 -75h156l81 381l148 20l-86 -401h64l-20 -74h-60z" />
    <glyph glyph-name="five" unicode="5" horiz-adv-x="517" 
d="M158 734l70 -8.5c46.667 -5.66699 83.334 -8.5 110.001 -8.5c28 0 55 2.5 81 7.5s53 13.167 81 24.5l1.5 -20.5c0.333008 -4.33301 0.5 -8.5 0.5 -12.5c0 -37.333 -9.83301 -66 -29.5 -86s-48.167 -30 -85.5 -30c-12 0 -26 1 -42 3s-40 6.33301 -72 13
c-16 2.66699 -27.5 4.66699 -34.5 6s-13.167 2.33301 -18.5 3l-40 -181c21.333 10 42.5 17.667 63.5 23s41.5 8 61.5 8c54.667 0 97.667 -18.833 129 -56.5s47 -87.834 47 -150.501c0 -81.333 -25.833 -147.166 -77.5 -197.499s-122.5 -75.5 -212.5 -75.5
c-59.333 0 -103.5 12 -132.5 36s-43.5 60 -43.5 108c0 44 12 78.667 36 104s55.333 38 94 38c20 0 36 -4.33301 48 -13s19.667 -21.334 23 -38.001c-28.667 -3.33301 -50.834 -13.333 -66.501 -30s-23.5 -38.667 -23.5 -66c0 -23.333 7.16699 -41.166 21.5 -53.499
s34.5 -18.5 60.5 -18.5c37.333 0 67.833 18 91.5 54s35.5 79.333 35.5 130c0 46 -9.66699 81.667 -29 107s-46.333 38 -81 38c-20 0 -42.167 -4.5 -66.5 -13.5s-51.833 -23.167 -82.5 -42.5z" />
    <glyph glyph-name="six" unicode="6" horiz-adv-x="497" 
d="M366 284c0 30 -4.5 53.6641 -13.5 70.9971s-22.167 26 -39.5 26s-33.166 -6.33301 -47.499 -19s-27.833 -31.667 -40.5 -57c-6.66699 9.33301 -11.667 19 -15 29s-5 19.667 -5 29c0 28 13.667 51.667 41 71s60.666 29 99.999 29c41.333 0 74.166 -15.667 98.499 -47
s36.5 -70.666 36.5 -117.999c0 -84.667 -26.5 -156.334 -79.5 -215.001s-116.5 -88 -190.5 -88c-66 0 -115 15.833 -147 47.5s-48 81.834 -48 150.501v22.5c0 5 0.333008 9.83301 1 14.5c10.667 164 47.167 291.667 109.5 383s144.833 137 247.5 137
c34 0 61.667 -8.16699 83 -24.5s32 -35.833 32 -58.5c0 -18.667 -8 -34.167 -24 -46.5s-37.667 -19.166 -65 -20.499c5.33301 4.66699 9.33301 10.167 12 16.5s4 12.833 4 19.5c0 14.667 -4.83301 27.334 -14.5 38.001s-21.5 16 -35.5 16c-29.333 0 -58.5 -15.667 -87.5 -47
s-53.5 -76 -73.5 -134c-12 -33.333 -22.167 -71 -30.5 -113s-15.166 -88 -20.499 -138c-2 -18 -3.33301 -32.833 -4 -44.5s-1 -22.167 -1 -31.5c0 -39.333 5.5 -67.333 16.5 -84s32.167 -25 63.5 -25c32.667 0 63.667 22.167 93 66.5s44 92.5 44 144.5z" />
    <glyph glyph-name="seven" unicode="7" horiz-adv-x="464" 
d="M48 650c0 34.667 11 60.002 33 76.002s56.333 24 103 24h328l-174.5 -270.5c-73 -116.333 -115.167 -187.833 -126.5 -214.5c-10.667 -24 -18.667 -46.833 -24 -68.5s-8 -41.834 -8 -60.501c0 -20.667 3.66699 -38.334 11 -53.001s20 -29.334 38 -44.001
c-4.66699 -13.333 -14.5 -23.166 -29.5 -29.499s-35.833 -9.5 -62.5 -9.5c-36.667 0 -63 10 -79 30s-24 51.667 -24 95c0 41.333 9.5 85.333 28.5 132s48.5 98.334 88.5 155.001c20.667 29.333 45.167 61.666 73.5 96.999l124.5 148c-14 2 -28.333 3.5 -43 4.5
s-28.667 1.5 -42 1.5c-46.667 0 -87.5 -6 -122.5 -18s-63.167 -29.667 -84.5 -53c-2.66699 11.333 -4.66699 21.833 -6 31.5s-2 18.5 -2 26.5z" />
    <glyph glyph-name="eight" unicode="8" horiz-adv-x="499" 
d="M480 261c0 -32 -7.66504 -64.6641 -22.998 -97.9971s-36.333 -63 -63 -89c-26.667 -25.333 -56.334 -44.833 -89.001 -58.5s-66.667 -20.5 -102 -20.5c-62.667 0 -113.5 19.167 -152.5 57.5s-58.5 86.166 -58.5 143.499c0 51.333 16.167 97.166 48.5 137.499
s76.166 68.166 131.499 83.499c-27.333 16 -48.333 35.667 -63 59s-22 49 -22 77c0 52 21.667 97.667 65 137s96 59 158 59c58 0 104 -13.333 138 -40s51 -61.667 51 -105c0 -36 -12.5 -71 -37.5 -105s-59.167 -61.333 -102.5 -82c38.667 -12 68.5 -31.5 89.5 -58.5
s31.5 -59.5 31.5 -97.5zM323.002 701.003c-30.667 0 -55.833 -12.668 -75.5 -38.001s-29.5 -56.333 -29.5 -93c0 -23.333 4.66699 -45.5 14 -66.5s22.333 -38.5 39 -52.5c30 20 54.333 46.833 73 80.5s28 66.834 28 99.501c0 21.333 -4.33301 38.333 -13 51
s-20.667 19 -36 19zM260.003 383.002c-37.333 -24.667 -67.167 -57.332 -89.5 -97.999s-33.5 -81.334 -33.5 -122.001c0 -29.333 6.33301 -52.666 19 -69.999s30 -26 52 -26c32 0 59.167 16.667 81.5 50s33.5 72.666 33.5 117.999c0 30 -5.5 57.833 -16.5 83.5
s-26.5 47.167 -46.5 64.5z" />
    <glyph glyph-name="nine" unicode="9" horiz-adv-x="489" 
d="M148 467c0 -32 4.83496 -57.166 14.502 -75.499s23.5 -27.5 41.5 -27.5c21.333 0 38.666 4.83301 51.999 14.5s24 24.834 32 45.501c6.66699 -8.66699 11.834 -17.167 15.501 -25.5s5.5 -16.5 5.5 -24.5c0 -25.333 -13.167 -47 -39.5 -65s-57.833 -27 -94.5 -27
c-42.667 0 -76.834 16.667 -102.501 50s-38.5 75 -38.5 125c0 82.667 25 152.167 75 208.5s111.333 84.5 184 84.5c64.667 0 113 -19.167 145 -57.5s48 -97.5 48 -177.5c0 -155.333 -31 -280.833 -93 -376.5s-144 -143.5 -246 -143.5c-34 0 -62.167 9.33301 -84.5 28
s-33.5 41 -33.5 67c0 25.333 7 44 21 56s35.667 18 65 18c-4.66699 -4.66699 -8.16699 -9.83398 -10.5 -15.501s-3.5 -11.834 -3.5 -18.501c0 -14.667 5.16699 -27.667 15.5 -39s22.833 -17 37.5 -17c55.333 0 101.166 35.5 137.499 106.5s59.5 173.167 69.5 306.5
c0.666992 18 1.16699 30 1.5 36s0.5 11.333 0.5 16c0 52 -6.33301 89.167 -19 111.5s-35.667 33.5 -69 33.5c-32 0 -61.167 -22.833 -87.5 -68.5s-39.5 -95.167 -39.5 -148.5z" />
    <glyph glyph-name="colon" unicode=":" horiz-adv-x="267" 
d="M250 375c0 -22 -7.83301 -40.667 -23.5 -56s-34.5 -23 -56.5 -23s-40.667 7.66699 -56 23s-23 34 -23 56s7.66699 40.833 23 56.5s34 23.5 56 23.5s40.833 -7.83301 56.5 -23.5s23.5 -34.5 23.5 -56.5zM200 135c0 -22 -7.83301 -40.667 -23.5 -56s-34.5 -23 -56.5 -23
s-40.667 7.66699 -56 23s-23 34 -23 56s7.66699 40.833 23 56.5s34 23.5 56 23.5s40.833 -7.83301 56.5 -23.5s23.5 -34.5 23.5 -56.5z" />
    <glyph glyph-name="semicolon" unicode=";" horiz-adv-x="276" 
d="M253 331c0 -22 -7.83301 -40.667 -23.5 -56s-34.5 -23 -56.5 -23s-40.667 7.66699 -56 23s-23 34 -23 56s7.66699 40.833 23 56.5s34 23.5 56 23.5s40.833 -7.83301 56.5 -23.5s23.5 -34.5 23.5 -56.5zM106 -2c0 4 -1.16797 7.6709 -3.50098 11.0039s-5.5 6.33301 -9.5 9
c-16 10.667 -27.833 22 -35.5 34s-11.5 25 -11.5 39c0 22 7.66699 40.833 23 56.5s34 23.5 56 23.5c20.667 0 37.167 -6.83301 49.5 -20.5s18.5 -32.167 18.5 -55.5c0 -32.667 -12.167 -68.334 -36.5 -107.001s-55.5 -71.334 -93.5 -98.001
c-3.33301 2 -5.66602 4.5 -6.99902 7.5s-2 6.16699 -2 9.5c0 6 1.66699 12.167 5 18.5s10.333 15.166 21 26.499s17.667 20.166 21 26.499s5 12.833 5 19.5z" />
    <glyph glyph-name="less" unicode="&#x3c;" horiz-adv-x="359" 
d="M20 238l9 41l307 150l-10 -55l-241 -120l194 -96l-12 -57z" />
    <glyph glyph-name="equal" unicode="=" horiz-adv-x="515" 
d="M76 316l24 112h368l-23 -112h-369zM32 101l24 112h368l-23 -112h-369z" />
    <glyph glyph-name="greater" unicode="&#x3e;" horiz-adv-x="344" 
d="M29 158l240 96l-194 120l9 55l246 -150l-11 -54l-304 -124z" />
    <glyph glyph-name="question" unicode="?" horiz-adv-x="441" 
d="M55 539c0 44.667 19.166 82.6729 57.499 114.006s89.166 47 152.499 47c55.333 0 95.833 -9.16699 121.5 -27.5s38.5 -49.5 38.5 -93.5c0 -38.667 -7.83301 -72.834 -23.5 -102.501s-49.167 -64.834 -100.5 -105.501c-39.333 -30.667 -66.666 -55.834 -81.999 -75.501
s-26.666 -40.834 -33.999 -63.501h-66c0 24.667 5.66699 48.5 17 71.5s35 54.5 71 94.5c38.667 41.333 64 74.666 76 99.999s18 51.666 18 78.999c0 22 -5 39 -15 51s-23.333 18 -40 18c-21.333 0 -40 -8 -56 -24s-24 -35.667 -24 -59c0 -15.333 3.5 -29.333 10.5 -42
s16.167 -20.667 27.5 -24c-8 -13.333 -18.5 -23.666 -31.5 -30.999s-26.833 -11 -41.5 -11c-22 0 -40.167 7.66699 -54.5 23s-21.5 35.666 -21.5 60.999zM47.999 80.0059c0 22 7.83301 40.667 23.5 56s34.5 23 56.5 23s40.667 -7.66699 56 -23s23 -34 23 -56
s-7.66699 -40.833 -23 -56.5s-34 -23.5 -56 -23.5s-40.833 7.83301 -56.5 23.5s-23.5 34.5 -23.5 56.5z" />
    <glyph glyph-name="at" unicode="@" horiz-adv-x="562" 
d="M374 118c7.33301 -3.33301 13.001 -9.00098 17.001 -17.001s6 -17.333 6 -28c0 -32.667 -18.667 -59.334 -56 -80.001s-86 -31 -146 -31c-70.667 0 -122.167 16.333 -154.5 49s-48.5 83.667 -48.5 153c0 50 8 98.167 24 144.5s38.667 87.5 68 123.5
c32.667 40 70.5 70.833 113.5 92.5s88.167 32.5 135.5 32.5c51.333 0 90.5 -13.333 117.5 -40s40.5 -65.667 40.5 -117c0 -65.333 -17.833 -125.666 -53.5 -180.999s-74.5 -83 -116.5 -83c-10.667 0 -19.5 1.83301 -26.5 5.5s-12.833 9.5 -17.5 17.5
c-9.33301 -12.667 -19 -22.334 -29 -29.001s-20 -10 -30 -10c-21.333 0 -37.333 5.83301 -48 17.5s-16 28.834 -16 51.501c0 18.667 3 41.334 9 68.001s14 51.667 24 75c13.333 32 28.5 56.667 45.5 74s34.833 26 53.5 26c8 0 15.167 -1.66699 21.5 -5
s11.833 -7.66602 16.5 -12.999l4 16l55 -6l-45 -192c-1.33301 -6.66699 -2.33301 -11.5 -3 -14.5s-1 -5.83301 -1 -8.5c0 -6 1.16699 -10.667 3.5 -14s5.5 -5 9.5 -5c17.333 0 34.5 27.833 51.5 83.5s25.5 102.5 25.5 140.5c0 26 -7.5 45.667 -22.5 59s-36.833 20 -65.5 20
c-66.667 0 -122.334 -32.167 -167.001 -96.5s-67 -139.833 -67 -226.5c0 -44.667 9.16699 -75.5 27.5 -92.5s49.833 -25.5 94.5 -25.5c35.333 0 64.833 5.16699 88.5 15.5s44.167 27.166 61.5 50.499zM237.001 180.999c4 0 8.83105 1.16699 14.498 3.5
s11.834 5.83301 18.501 10.5c0 3.33301 0.333008 6.83301 1 10.5l2 10.5l43 166c-2 2.66699 -4.66699 4.66699 -8 6s-6.66602 2 -9.99902 2c-22.667 0 -41.5 -19.833 -56.5 -59.5s-22.5 -79.167 -22.5 -118.5c0 -10 1.5 -17.667 4.5 -23s7.5 -8 13.5 -8z" />
    <glyph glyph-name="A" unicode="A" horiz-adv-x="668" 
d="M535 679c-27.333 -14.667 -56.333 -42.167 -87 -82.5s-61.667 -91.833 -93 -154.5c24 -4.66699 46.167 -10 66.5 -16s38.833 -12.333 55.5 -19zM613 750c14 0 27.998 -1.17285 41.998 -3.50586s26.333 -5.83301 37 -10.5l-157 -736h-144l77 363
c-23.333 10.667 -45.333 18.834 -66 24.501s-43.334 9.5 -68.001 11.5c-38 -82.667 -69.167 -166.667 -93.5 -252s-36.5 -153.666 -36.5 -204.999c0 -12 1.16699 -22.5 3.5 -31.5s5.83301 -17.167 10.5 -24.5c-50.667 0 -85.667 8.66699 -105 26s-29 44 -29 80
c0 44.667 13.5 104.334 40.5 179.001s62.5 150.667 106.5 228c-34 -2 -60.5 -7.33301 -79.5 -16s-31.5 -20.667 -37.5 -36c2.66699 0 5.5 -3.5 8.5 -10.5s4.5 -13.833 4.5 -20.5c0 -11.333 -5.33301 -20.666 -16 -27.999s-24 -11 -40 -11
c-18.667 0 -33.667 5.16699 -45 15.5s-17 24.5 -17 42.5c0 34.667 19.5 63.834 58.5 87.501s87.5 35.5 145.5 35.5c6.66699 0 14.334 -0.166992 23.001 -0.5s18.334 -1.16602 29.001 -2.49902c58.667 92.667 118.334 165 179.001 217s117 78 169 78z" />
    <glyph glyph-name="B" unicode="B" horiz-adv-x="635" 
d="M238 0l-143.995 0.000976562l136 636l148 20l-47 -222h6c37.333 0 70.666 17 99.999 51s44 71 44 111c0 33.333 -11.5 59.666 -34.5 78.999s-55.5 29 -97.5 29c-70 0 -129.167 -22.333 -177.5 -67s-72.5 -103.334 -72.5 -176.001c0 -12.667 0.833008 -23.667 2.5 -33
s4.5 -18.333 8.5 -27c1.33301 -2.66699 2.16602 -4.5 2.49902 -5.5s0.5 -1.83301 0.5 -2.5c-36 0 -62.833 7.66699 -80.5 23s-26.5 38.333 -26.5 69c0 36 11.5 71.333 34.5 106s54.833 65 95.5 91c33.333 22 70.166 38.833 110.499 50.5s81.166 17.5 122.499 17.5
c65.333 0 117.166 -14.667 155.499 -44s57.5 -67.666 57.5 -114.999c0 -31.333 -9 -61.333 -27 -90s-42.333 -51.667 -73 -69c38 -7.33301 67.167 -25.166 87.5 -53.499s30.5 -64.166 30.5 -107.499c0 -31.333 -4.66699 -64.333 -14 -99s-22.333 -65.334 -39 -92.001
c-20 -32 -44 -56.167 -72 -72.5s-59.333 -24.5 -94 -24.5c-31.333 0 -55.666 6.33301 -72.999 19s-26 31 -26 55c0 8 1 16.833 3 26.5s5.33301 20.167 10 31.5c12.667 -12.667 24.167 -21.834 34.5 -27.501s21.166 -8.5 32.499 -8.5c30 0 54 17.333 72 52
s27 77.334 27 128.001c0 42 -8 73.667 -24 95s-39.667 32 -71 32c-4.66699 0 -11.5 -0.333008 -20.5 -1s-17.5 -1.33398 -25.5 -2.00098z" />
    <glyph glyph-name="C" unicode="C" horiz-adv-x="497" 
d="M185 236c0 -55.333 9.66602 -95.166 28.999 -119.499s49.666 -36.5 90.999 -36.5c38 0 74.167 8.83301 108.5 26.5s63.166 42.167 86.499 73.5l23 -10c-22 -56.667 -60.167 -101.834 -114.5 -135.501s-111.166 -50.5 -170.499 -50.5
c-77.333 0 -133.166 19.5 -167.499 58.5s-51.5 101.5 -51.5 187.5c0 55.333 7 113 21 173s33.333 113.667 58 161c32 60.667 70.833 106.834 116.5 138.501s96.834 47.5 153.501 47.5c53.333 0 94.5 -11.5 123.5 -34.5s43.5 -56.167 43.5 -99.5c0 -30 -6 -52.833 -18 -68.5
s-29.333 -23.5 -52 -23.5c-11.333 0 -21.833 2.16699 -31.5 6.5s-18.167 10.833 -25.5 19.5c12 6 22.667 18.167 32 36.5s14 36.833 14 55.5c0 19.333 -5.33301 34.333 -16 45s-25.667 16 -45 16c-29.333 0 -58.333 -17.833 -87 -53.5s-53.667 -84.834 -75 -147.501
c-14.667 -42.667 -26 -87.167 -34 -133.5s-12 -90.5 -12 -132.5z" />
    <glyph glyph-name="D" unicode="D" horiz-adv-x="663" 
d="M238 0l-143.999 -0.000976562l136 636l148 20l-120 -561c9.33301 -6.66699 18.666 -11.667 27.999 -15s19 -5 29 -5c54 0 99.5 44.5 136.5 133.5s55.5 191.167 55.5 306.5c0 62.667 -12.333 109.834 -37 141.501s-61 47.5 -109 47.5c-78 0 -141.167 -22.167 -189.5 -66.5
s-72.5 -103.166 -72.5 -176.499c0 -12.667 0.833008 -23.667 2.5 -33s4.5 -18.333 8.5 -27c1.33301 -2.66699 2.16602 -4.5 2.49902 -5.5s0.5 -1.83301 0.5 -2.5c-36 0 -62.833 7.66699 -80.5 23s-26.5 38.666 -26.5 69.999c0 36.667 11.833 72.5 35.5 107.5
s56.167 65.5 97.5 91.5c34 20.667 71.5 36.667 112.5 48s83.167 17 126.5 17c85.333 0 151.166 -25.5 197.499 -76.5s69.5 -121.5 69.5 -211.5c0 -48.667 -5.66699 -98 -17 -148s-27.333 -96.667 -48 -140c-27.333 -58.667 -59.666 -104.5 -96.999 -137.5
s-75.666 -49.5 -114.999 -49.5c-20 0 -40.167 4.5 -60.5 13.5s-40.833 22.167 -61.5 39.5z" />
    <glyph glyph-name="E" unicode="E" horiz-adv-x="459" 
d="M181 179c0 -32 8.16797 -56.8369 24.501 -74.5039s39.833 -26.5 70.5 -26.5c35.333 0 71 9.66699 107 29s62 43.666 78 72.999l23 -10c-24.667 -56.667 -64.167 -102.167 -118.5 -136.5s-112.5 -51.5 -174.5 -51.5c-57.333 0 -102.333 16 -135 48s-49 74.667 -49 128
c0 58 17.667 112.5 53 163.5s79.333 82.833 132 95.5c-20 14 -35.167 31.333 -45.5 52s-15.5 43.334 -15.5 68.001c0 56 21.5 105.833 64.5 149.5s94.5 65.5 154.5 65.5c42.667 0 77.167 -11.333 103.5 -34s39.5 -53 39.5 -91c0 -29.333 -7.16699 -54 -21.5 -74
s-31.833 -30 -52.5 -30c-9.33301 0 -17.833 2.33301 -25.5 7s-14.834 11.334 -21.501 20.001c12 4 22.333 14.833 31 32.5s13 35.834 13 54.501c0 17.333 -5 31 -15 41s-23.333 15 -40 15c-28 0 -52 -14.167 -72 -42.5s-30 -61.166 -30 -98.499
c0 -33.333 8.83301 -61.833 26.5 -85.5s42.5 -39.834 74.5 -48.501c-49.333 -11.333 -91.5 -41.166 -126.5 -89.499s-52.5 -98.166 -52.5 -149.499z" />
    <glyph glyph-name="F" unicode="F" horiz-adv-x="459" 
d="M511 630c-18 0 -37.834 1.49707 -59.501 4.49707s-48.5 7.83301 -80.5 14.5l-42 -199h146l-16 -74h-146l-81 -376h-144l144 668c-46 -2 -79.167 -19.667 -99.5 -53s-30.5 -84.666 -30.5 -153.999c0 -12.667 0.833008 -23.667 2.5 -33s4.5 -18.333 8.5 -27
c1.33301 -2.66699 2.16602 -4.5 2.49902 -5.5s0.5 -1.83301 0.5 -2.5c-37.333 0 -64.5 7.83301 -81.5 23.5s-25.5 40.167 -25.5 73.5c0 79.333 29.833 142.5 89.5 189.5s143.5 70.5 251.5 70.5c6 0 13.333 -0.333008 22 -1s23 -2 43 -4
c26.667 -2.66699 47.167 -4.5 61.5 -5.5s27.5 -1.5 39.5 -1.5c18 0 34.333 1 49 3s28.334 5 41.001 9c-0.666992 -1.33301 -3.66699 -11.666 -9 -30.999s-11.666 -34.666 -18.999 -45.999s-16.5 -20.5 -27.5 -27.5s-24.167 -12.167 -39.5 -15.5z" />
    <glyph glyph-name="G" unicode="G" horiz-adv-x="578" 
d="M289 192c20 0 36.666 2.99902 49.999 8.99902s25 15.333 35 28l43 190l129 -1l-82 -376c-19.333 -90.667 -49 -154.834 -89 -192.501s-95.667 -56.5 -167 -56.5c-42 0 -75.667 13 -101 39s-38 59 -38 99c0 38.667 11.333 71.167 34 97.5s52 39.5 88 39.5
s61.333 -5.5 76 -16.5s22 -27.833 22 -50.5c0 -5.33301 -0.5 -11.5 -1.5 -18.5s-2.5 -14.167 -4.5 -21.5c-11.333 9.33301 -21.333 16 -30 20s-18.667 6 -30 6c-20.667 0 -37.5 -7.33301 -50.5 -22s-19.5 -32.667 -19.5 -54c0 -20 5.66699 -36.333 17 -49
s26.666 -19 45.999 -19c27.333 0 48.333 9.5 63 28.5s27 50.5 37 94.5l40 179c-20.667 -11.333 -42.667 -20.166 -66 -26.499s-42 -9.5 -56 -9.5c-70.667 0 -124.167 21.833 -160.5 65.5s-54.5 107.167 -54.5 190.5c0 49.333 8.5 97.5 25.5 144.5s40.833 88.167 71.5 123.5
c32.667 38 70.834 67 114.501 87s91.167 30 142.5 30c56 0 101 -11.833 135 -35.5s51 -56.5 51 -98.5c0 -30 -6 -52.833 -18 -68.5s-29.333 -23.5 -52 -23.5c-14 0 -27.167 2.33301 -39.5 7s-22.166 11 -29.499 19c11.333 3.33301 21.5 14 30.5 32s13.5 34.667 13.5 50
c0 21.333 -6 38.5 -18 51.5s-29 19.5 -51 19.5c-28.667 0 -57.5 -11.833 -86.5 -35.5s-54.833 -56.5 -77.5 -98.5c-18.667 -32.667 -33 -67.5 -43 -104.5s-15 -72.833 -15 -107.5c0 -51.333 10.167 -91.666 30.5 -120.999s48.833 -44 85.5 -44z" />
    <glyph glyph-name="H" unicode="H" horiz-adv-x="665" 
d="M139 680c34 22 70.5 39.1689 109.5 51.502s77.167 18.5 114.5 18.5c4.66699 0 9.83398 -0.166992 15.501 -0.5l24.5 -1.5l-64 -298h147l64 298h144l-159 -748h-144l80 376h-147l-80 -376h-144l145 680c-45.333 -18.667 -80 -46.834 -104 -84.501s-36 -82.5 -36 -134.5
c0 -12.667 0.833008 -23.667 2.5 -33s4.5 -18.333 8.5 -27c1.33301 -2.66699 2.16602 -4.5 2.49902 -5.5s0.5 -1.83301 0.5 -2.5c-37.333 0 -64.5 7.83301 -81.5 23.5s-25.5 40.167 -25.5 73.5s11.167 66.666 33.5 99.999s53.5 63.333 93.5 90z" />
    <glyph glyph-name="I" unicode="I" horiz-adv-x="375" 
d="M133 680c34 22 70.5 39.168 109.5 51.501s77.167 18.5 114.5 18.5c4.66699 0 9.83398 -0.166992 15.501 -0.5l24.5 -1.5l-159 -748h-144l145 679c-45.333 -18.667 -80 -46.667 -104 -84s-36 -82 -36 -134c0 -12.667 0.833008 -23.667 2.5 -33s4.5 -18.333 8.5 -27
c1.33301 -2.66699 2.16602 -4.5 2.49902 -5.5s0.5 -1.83301 0.5 -2.5c-37.333 0 -64.5 7.83301 -81.5 23.5s-25.5 40.167 -25.5 73.5s11.167 66.666 33.5 99.999s53.5 63.333 93.5 90z" />
    <glyph glyph-name="J" unicode="J" horiz-adv-x="536" 
d="M187 490c0 33.333 11.167 66.6699 33.5 100.003s53.5 63.333 93.5 90c34 22 70.5 39.167 109.5 51.5s77.167 18.5 114.5 18.5h40l-150 -710c-18 -87.333 -48 -150.333 -90 -189s-99.667 -58 -173 -58c-46 0 -82.167 12.667 -108.5 38s-39.5 59.666 -39.5 102.999
c0 38 11.333 69.833 34 95.5s52 38.5 88 38.5s61.333 -5.5 76 -16.5s22 -27.833 22 -50.5c0 -5.33301 -0.5 -11.5 -1.5 -18.5s-2.5 -14.167 -4.5 -21.5c-11.333 9.33301 -21.333 16 -30 20s-18.667 6 -30 6c-20.667 0 -37.5 -7 -50.5 -21s-19.5 -31.667 -19.5 -53
s6.5 -38.333 19.5 -51s29.167 -19 48.5 -19c26 0 45.833 9.16699 59.5 27.5s25.5 50.166 35.5 95.499l157 714c-45.333 -18.667 -80.166 -46.834 -104.499 -84.501s-36.5 -82.5 -36.5 -134.5c0 -12.667 0.833008 -23.667 2.5 -33s4.5 -18.333 8.5 -27
c1.33301 -2.66699 2.16602 -4.5 2.49902 -5.5s0.5 -1.83301 0.5 -2.5c-37.333 0 -64.5 7.83301 -81.5 23.5s-25.5 40.167 -25.5 73.5z" />
    <glyph glyph-name="K" unicode="K" horiz-adv-x="601" 
d="M133 680c34 22 70.499 39.1709 109.499 51.5039s77.167 18.5 114.5 18.5c4.66699 0 9.83398 -0.166992 15.501 -0.5l24.5 -1.5l-65 -306l134.5 181c61.667 82 92.5 122.667 92.5 122h105l-278 -320h7.5c2.33301 0 6.16602 0.333008 11.499 1h16
c42 0 73.167 -8.66699 93.5 -26s30.5 -44.333 30.5 -81c0 -15.333 -1.66699 -32.833 -5 -52.5s-10.666 -49.5 -21.999 -89.5c-9.33301 -34 -15.333 -58.333 -18 -73s-4 -27.334 -4 -38.001c0 -15.333 3.5 -29 10.5 -41s16.5 -20.333 28.5 -25
c-19.333 -5.33301 -37.5 -9.5 -54.5 -12.5s-31.833 -4.5 -44.5 -4.5c-26 0 -45.5 5.5 -58.5 16.5s-19.5 27.833 -19.5 50.5c0 11.333 1.66699 25.166 5 41.499s10 43.5 20 81.5c11.333 41.333 18.833 71.5 22.5 90.5s5.5 35.5 5.5 49.5c0 22.667 -5 39.667 -15 51
s-25 17 -45 17c-3.33301 0 -7.16602 -0.333008 -11.499 -1s-11.5 -1.66699 -21.5 -3l-80 -377h-144l145 680c-45.333 -18.667 -80 -46.834 -104 -84.501s-36 -82.5 -36 -134.5c0 -12.667 0.833008 -23.667 2.5 -33s4.5 -18.333 8.5 -27
c1.33301 -2.66699 2.16602 -4.5 2.49902 -5.5s0.5 -1.83301 0.5 -2.5c-37.333 0 -64.5 7.83301 -81.5 23.5s-25.5 40.167 -25.5 73.5s11.167 66.666 33.5 99.999s53.5 63.333 93.5 90z" />
    <glyph glyph-name="L" unicode="L" horiz-adv-x="379" 
d="M133 670c34 22 70.5029 39.166 109.503 51.499s77.167 18.5 114.5 18.5c4.66699 0 9.83398 -0.166992 15.501 -0.5l24.5 -1.5l-154 -718c15.333 -3.33301 31.833 -8.83301 49.5 -16.5s44.5 -21.167 80.5 -40.5c54 -29.333 95.333 -48.666 124 -57.999s56 -14 82 -14
c15.333 0 29.833 1.33301 43.5 4s27.167 6.66699 40.5 12c-5.33301 -48 -17.333 -86.167 -36 -114.5s-41.334 -42.5 -68.001 -42.5c-24 0 -49.5 6.5 -76.5 19.5s-67.833 41.167 -122.5 84.5c-62.667 50.667 -111.334 83.834 -146.001 99.501s-68.334 23.5 -101.001 23.5h-14
c-3.33301 0 -6.33301 -0.333008 -9 -1l149 693c-45.333 -18.667 -80 -46.667 -104 -84s-36 -82 -36 -134c0 -12.667 0.833008 -23.667 2.5 -33s4.5 -18.333 8.5 -27c1.33301 -2.66699 2.16602 -4.5 2.49902 -5.5s0.5 -1.83301 0.5 -2.5c-37.333 0 -64.5 7.83301 -81.5 23.5
s-25.5 40.167 -25.5 73.5s11.167 66.666 33.5 99.999s53.5 63.333 93.5 90z" />
    <glyph glyph-name="M" unicode="M" horiz-adv-x="787" 
d="M660 736l143.999 -0.000976562l-105 -736h-144l64 449l-188 -449h-137l20 451l-167 -451h-80l254 687c-51.333 -17.333 -90.666 -45.333 -117.999 -84s-41 -85.667 -41 -141c0 -13.333 0.833008 -24.833 2.5 -34.5s4.5 -18.5 8.5 -26.5
c1.33301 -2.66699 2.16602 -4.5 2.49902 -5.5s0.5 -1.83301 0.5 -2.5c-36 0 -62.833 7.5 -80.5 22.5s-26.5 37.833 -26.5 68.5c0 32 9.83301 64.5 29.5 97.5s46.834 63.167 81.501 90.5c31.333 24.667 65 43.834 101 57.501s71.333 20.5 106 20.5
c12.667 0 25.5 -1.16699 38.5 -3.5s25.5 -5.83301 37.5 -10.5l-23 -527z" />
    <glyph glyph-name="N" unicode="N" horiz-adv-x="668" 
d="M382 736l79.001 -530.001l109 542h144l-159 -748h-121l-85 523l-111 -523h-144l144 679c-44.667 -18.667 -79 -46.667 -103 -84s-36 -82 -36 -134c0 -12.667 0.833008 -23.667 2.5 -33s4.5 -18.333 8.5 -27c1.33301 -2.66699 2.16602 -4.5 2.49902 -5.5
s0.5 -1.83301 0.5 -2.5c-37.333 0 -64.5 7.83301 -81.5 23.5s-25.5 40.167 -25.5 73.5c0 32 8 64.5 24 97.5s38 62.167 66 87.5c26.667 24.667 56.5 43.334 89.5 56.001s67.5 19 103.5 19c26 0 45.5 -1.16699 58.5 -3.5s24.5 -5.83301 34.5 -10.5z" />
    <glyph glyph-name="O" unicode="O" horiz-adv-x="665" 
d="M171 479c26.667 60 57.666 105.835 92.999 137.502s73.666 47.5 114.999 47.5c9.33301 0 18.333 -0.666992 27 -2s17 -3.33301 25 -6c-42.667 -26 -82.5 -89.333 -119.5 -190s-55.5 -192.334 -55.5 -275.001c0 -37.333 5 -66 15 -86s24.333 -30 43 -30
c27.333 0 55.333 17.667 84 53s54 82.666 76 141.999c16 42 28.167 85.5 36.5 130.5s12.5 87.833 12.5 128.5c0 66.667 -9.66699 112.5 -29 137.5s-52.333 37.5 -99 37.5c-82 0 -150.5 -24.167 -205.5 -72.5s-82.5 -109.833 -82.5 -184.5c0 -9.33301 0.5 -17.5 1.5 -24.5
s3.16699 -14.167 6.5 -21.5c0.666992 -2.66699 1.16699 -4.5 1.5 -5.5s0.5 -1.83301 0.5 -2.5c-34 0 -59.333 6.83301 -76 20.5s-25 34.834 -25 63.501c0 37.333 13.167 74.166 39.5 110.499s62.833 68.166 109.5 95.499c37.333 21.333 77.833 37.833 121.5 49.5
s87.834 17.5 132.501 17.5c78.667 0 137.834 -21.5 177.501 -64.5s59.5 -106.833 59.5 -191.5c0 -55.333 -8 -112.333 -24 -171s-38 -111 -66 -157c-34 -56 -74.667 -98.667 -122 -128s-99.666 -44 -156.999 -44c-58.667 0 -103.167 17 -133.5 51s-45.5 84 -45.5 150
c0 42.667 5.66699 89.834 17 141.501s26.666 99.167 45.999 142.5z" />
    <glyph glyph-name="P" unicode="P" horiz-adv-x="573" 
d="M238 0l-143.999 0.000976562l136 636l148 20l-71 -334c46.667 4 87.5 31.333 122.5 82s52.5 105.334 52.5 164.001c0 42.667 -10.833 76 -32.5 100s-52.167 36 -91.5 36c-81.333 0 -144.833 -21.5 -190.5 -64.5s-68.5 -102.5 -68.5 -178.5
c0 -12.667 0.833008 -23.667 2.5 -33s4.5 -18.333 8.5 -27c1.33301 -2.66699 2.16602 -4.5 2.49902 -5.5s0.5 -1.83301 0.5 -2.5c-37.333 0 -64.5 7.83301 -81.5 23.5s-25.5 40.167 -25.5 73.5s11.167 66.666 33.5 99.999s53.5 63.333 93.5 90c34 22 70.5 39.167 109.5 51.5
s77.167 18.5 114.5 18.5c73.333 0 131 -18 173 -54s63 -83.667 63 -143c0 -35.333 -7.83301 -70 -23.5 -104s-37.5 -63.667 -65.5 -89c-26.667 -24.667 -57 -43.334 -91 -56.001s-70.333 -19 -109 -19h-5z" />
    <glyph glyph-name="Q" unicode="Q" horiz-adv-x="665" 
d="M171 479c26.667 60 57.666 105.835 92.999 137.502s73.666 47.5 114.999 47.5c9.33301 0 18.333 -0.666992 27 -2s17 -3.33301 25 -6c-42.667 -26 -82.5 -89.333 -119.5 -190s-55.5 -192.334 -55.5 -275.001c0 -12.667 0.166992 -21.834 0.5 -27.501
s0.833008 -10.834 1.5 -15.501c12 3.33301 23.167 5.66602 33.5 6.99902s19.833 2 28.5 2c15.333 0 29.5 -2.16699 42.5 -6.5s25.5 -11.166 37.5 -20.499c34.667 44 63.834 104 87.501 180s35.5 149 35.5 219c0 66.667 -9.66699 112.5 -29 137.5s-52.333 37.5 -99 37.5
c-82 0 -150.5 -24.167 -205.5 -72.5s-82.5 -109.833 -82.5 -184.5c0 -9.33301 0.5 -17.5 1.5 -24.5s3.16699 -14.167 6.5 -21.5c0.666992 -2.66699 1.16699 -4.5 1.5 -5.5s0.5 -1.83301 0.5 -2.5c-34 0 -59.333 6.83301 -76 20.5s-25 34.834 -25 63.501
c0 37.333 13.167 74.166 39.5 110.499s62.833 68.166 109.5 95.499c37.333 21.333 77.833 37.833 121.5 49.5s87.834 17.5 132.501 17.5c78.667 0 137.834 -21.5 177.501 -64.5s59.5 -106.833 59.5 -191.5c0 -85.333 -17.333 -169.5 -52 -252.5s-81 -146.167 -139 -189.5
c22.667 -31.333 43.334 -52.666 62.001 -63.999s39.667 -17 63 -17c2 0 4.16699 0.166992 6.5 0.5s7.5 0.833008 15.5 1.5c-11.333 -30 -25 -51.833 -41 -65.5s-36.667 -20.5 -62 -20.5c-32 0 -57.833 8.33301 -77.5 25s-36.834 48.667 -51.501 96
c-14.667 -4.66699 -29.667 -8.16699 -45 -10.5s-31.333 -3.5 -48 -3.5c-58.667 0 -103.167 17 -133.5 51s-45.5 84 -45.5 150c0 42.667 5.66699 89.834 17 141.501s26.666 99.167 45.999 142.5zM294.999 120.002c-4.66699 0 -9.33398 -0.333008 -14.001 -1
s-9.66699 -1.66699 -15 -3c4.66699 -14 11 -24.333 19 -31s17.667 -10 29 -10c6.66699 0 13.334 1 20.001 3s12.667 4.66699 18 8c-6.66699 11.333 -14.667 19.833 -24 25.5s-20.333 8.5 -33 8.5z" />
    <glyph glyph-name="R" unicode="R" horiz-adv-x="601" 
d="M238 0h-143.997l136 636l148 20l-49 -231h8c38 0 71.167 18.333 99.5 55s42.5 76.334 42.5 119.001c0 32.667 -9.66699 58.334 -29 77.001s-46.333 28 -81 28c-82.667 0 -148.334 -21.833 -197.001 -65.5s-73 -102.834 -73 -177.501c0 -12.667 0.833008 -23.667 2.5 -33
s4.5 -18.333 8.5 -27c1.33301 -2.66699 2.16602 -4.5 2.49902 -5.5s0.5 -1.83301 0.5 -2.5c-37.333 0 -64.5 7.83301 -81.5 23.5s-25.5 40.167 -25.5 73.5s11.167 66.666 33.5 99.999s53.5 63.333 93.5 90c34 22 70.5 39.167 109.5 51.5s77.167 18.5 114.5 18.5
c70 0 125.333 -14.667 166 -44s61 -68 61 -116c0 -32 -9.83301 -63.667 -29.5 -95s-45.834 -56.666 -78.501 -75.999c23.333 -6.66699 40.666 -18.167 51.999 -34.5s17 -38.166 17 -65.499c0 -15.333 -1.66699 -32.833 -5 -52.5s-10.666 -49.5 -21.999 -89.5
c-9.33301 -34 -15.333 -58.333 -18 -73s-4 -27.334 -4 -38.001c0 -15.333 3.5 -29 10.5 -41s16.5 -20.333 28.5 -25c-19.333 -5.33301 -37.5 -9.5 -54.5 -12.5s-31.833 -4.5 -44.5 -4.5c-26 0 -45.5 5.5 -58.5 16.5s-19.5 27.833 -19.5 50.5
c0 11.333 1.66699 25.166 5 41.499s10 43.5 20 81.5c11.333 41.333 18.833 71.5 22.5 90.5s5.5 35.5 5.5 49.5c0 22.667 -5 39.667 -15 51s-25 17 -45 17c-2.66699 0 -5.5 -0.166992 -8.5 -0.5s-11.167 -1.5 -24.5 -3.5z" />
    <glyph glyph-name="S" unicode="S" horiz-adv-x="570" 
d="M152 571c0 51.333 22.1689 94.0029 66.502 128.003s99.166 51 164.499 51c50.667 0 90.167 -10.333 118.5 -31s42.5 -50.334 42.5 -89.001c0 -30 -7.5 -54.333 -22.5 -73s-34.833 -28 -59.5 -28c-9.33301 0 -17.833 1.66699 -25.5 5s-14.5 8.66602 -20.5 15.999
c13.333 8 24.166 20 32.499 36s12.5 32.667 12.5 50c0 21.333 -6.33301 37.833 -19 49.5s-31 17.5 -55 17.5c-28.667 0 -51.167 -8 -67.5 -24s-24.5 -38.333 -24.5 -67c0 -23.333 6 -45.5 18 -66.5s38 -49.167 78 -84.5c52.667 -46 87.334 -85.833 104.001 -119.5
s25 -71.167 25 -112.5c0 -76 -26.333 -136.667 -79 -182s-120 -68 -202 -68c-65.333 0 -117 15 -155 45s-57 72.333 -57 127c0 48 14.333 87.333 43 118s63.334 46 104.001 46c25.333 0 46 -5.83301 62 -17.5s24.667 -27.834 26 -48.501
c-34.667 0 -62.834 -8.33301 -84.501 -25s-32.5 -39.667 -32.5 -69c0 -28 8.66699 -51 26 -69s40.666 -27 69.999 -27c34.667 0 62.667 12 84 36s32 56.333 32 97c0 31.333 -7 61.333 -21 90s-43 67 -87 115c-40 42.667 -66.167 76.167 -78.5 100.5s-18.5 48.833 -18.5 73.5
z" />
    <glyph glyph-name="T" unicode="T" horiz-adv-x="481" 
d="M603 726c20 0 40.334 1.83301 61.001 5.5s39 8.83398 55 15.501c-0.666992 -42.667 -11.5 -74.5 -32.5 -95.5s-51.833 -31.5 -92.5 -31.5c-19.333 0 -40.833 1.66699 -64.5 5s-53.834 9 -90.501 17l-138 -642h-144l142 662h-12c-64.667 0 -112.167 -16.5 -142.5 -49.5
s-45.5 -83.833 -45.5 -152.5c0 -12.667 0.833008 -23.667 2.5 -33s4.5 -18.333 8.5 -27c1.33301 -2.66699 2.16602 -4.5 2.49902 -5.5s0.5 -1.83301 0.5 -2.5c-37.333 0 -64.5 7.83301 -81.5 23.5s-25.5 40.167 -25.5 73.5c0 79.333 29.833 142.5 89.5 189.5
s143.5 70.5 251.5 70.5c22 0 43.167 -0.833008 63.5 -2.5s46.5 -4.83398 78.5 -9.50098c28 -4.66699 49.833 -7.66699 65.5 -9s31.834 -2 48.501 -2z" />
    <glyph glyph-name="U" unicode="U" horiz-adv-x="716" 
d="M499 229c8 24.667 16.5049 54.1719 25.5049 88.5049s18.5 74.833 28.5 121.5l67 309h141l-66 -312c-16 -76.667 -31 -138 -45 -184s-29.333 -84.333 -46 -115c-26.667 -50.667 -60.334 -87.334 -101.001 -110.001s-92.334 -34 -155.001 -34
c-66.667 0 -115.5 12.667 -146.5 38s-46.5 65.666 -46.5 120.999c0 24 2.5 52.333 7.5 85s13.167 72.667 24.5 120c6 26 15 62.667 27 110s19.667 78.333 23 93l33 132c-56 -14.667 -99.5 -42.167 -130.5 -82.5s-46.5 -89.5 -46.5 -147.5
c0 -13.333 0.833008 -24.833 2.5 -34.5s4.5 -18.5 8.5 -26.5c1.33301 -2.66699 2.16602 -4.5 2.49902 -5.5s0.5 -1.83301 0.5 -2.5c-36 0 -62.833 7.66699 -80.5 23s-26.5 38.333 -26.5 69c0 36.667 12 72.5 36 107.5s57.667 65.5 101 91.5
c35.333 21.333 73.833 37.666 115.5 48.999s83.5 17 125.5 17c8.66699 0 16.167 -0.333008 22.5 -1s14.833 -2 25.5 -4l-42.5 -155c-17 -62 -28.167 -103.667 -33.5 -125c-23.333 -86.667 -39 -149.5 -47 -188.5s-12 -70.833 -12 -95.5
c0 -30.667 5.66699 -53.334 17 -68.001s28.666 -22 51.999 -22c39.333 0 68.166 10.167 86.499 30.5s35.833 56.166 52.5 107.499z" />
    <glyph glyph-name="V" unicode="V" horiz-adv-x="615" 
d="M133 680c34 22 70.5 39.167 109.5 51.5s77.167 18.5 114.5 18.5c4.66699 0 9.83398 -0.166992 15.501 -0.5l24.5 -1.5l9 -615l210 612h70l-278 -745h-152v683c-52 -16 -91.167 -42.667 -117.5 -80s-39.5 -84.666 -39.5 -141.999c0 -12.667 0.833008 -23.667 2.5 -33
s4.5 -18.333 8.5 -27c1.33301 -2.66699 2.16602 -4.5 2.49902 -5.5s0.5 -1.83301 0.5 -2.5c-37.333 0 -64.5 7.83301 -81.5 23.5s-25.5 40.167 -25.5 73.5s11.167 66.666 33.5 99.999s53.5 63.333 93.5 90z" />
    <glyph glyph-name="W" unicode="W" horiz-adv-x="962" 
d="M133 680c34 22 70.499 39.168 109.499 51.501s77.167 18.5 114.5 18.5c4.66699 0 9.83398 -0.166992 15.501 -0.5l24.5 -1.5l9 -615l210 612h131v-612l215 612h70l-278 -745h-148v509l-198 -509h-147v683c-53.333 -16.667 -93.666 -43.667 -120.999 -81
s-41 -84.333 -41 -141c0 -12.667 0.833008 -23.667 2.5 -33s4.5 -18.333 8.5 -27c1.33301 -2.66699 2.16602 -4.5 2.49902 -5.5s0.5 -1.83301 0.5 -2.5c-37.333 0 -64.5 7.83301 -81.5 23.5s-25.5 40.167 -25.5 73.5s11.167 66.666 33.5 99.999s53.5 63.333 93.5 90z" />
    <glyph glyph-name="X" unicode="X" horiz-adv-x="620" 
d="M626 745l-168 -291l94 -454h-159l-53 250l-145 -250h-61l188 332l-74 351c-48 -17.333 -84.833 -45.166 -110.5 -83.499s-38.5 -84.5 -38.5 -138.5c0 -12.667 0.833008 -23.667 2.5 -33s4.5 -18.333 8.5 -27c1.33301 -2.66699 2.16602 -4.5 2.49902 -5.5
s0.5 -1.83301 0.5 -2.5c-37.333 0 -64.5 7.83301 -81.5 23.5s-25.5 40.167 -25.5 73.5s11.167 66.666 33.5 99.999s53.5 63.333 93.5 90c34 22 70.5 39.167 109.5 51.5s77.167 18.5 114.5 18.5c4.66699 0 9.83398 -0.166992 15.501 -0.5l24.5 -1.5l43 -208l116 205h70z" />
    <glyph glyph-name="Y" unicode="Y" horiz-adv-x="620" 
d="M698 745l-194 -437l-66 -308h-160l66 308l-96 375c-48 -17.333 -84.833 -45.166 -110.5 -83.499s-38.5 -84.5 -38.5 -138.5c0 -12.667 0.833008 -23.667 2.5 -33s4.5 -18.333 8.5 -27c1.33301 -2.66699 2.16602 -4.5 2.49902 -5.5s0.5 -1.83301 0.5 -2.5
c-37.333 0 -64.5 7.83301 -81.5 23.5s-25.5 40.167 -25.5 73.5s11.167 66.666 33.5 99.999s53.5 63.333 93.5 90c34 22 70.5 39.167 109.5 51.5s77.167 18.5 114.5 18.5c4.66699 0 9.83398 -0.166992 15.501 -0.5l24.5 -1.5l87 -358l148 355h66z" />
    <glyph glyph-name="Z" unicode="Z" horiz-adv-x="542" 
d="M249 64c15.333 -0.666992 26.668 -1 34.001 -1h20c30.667 0 54.334 1.83301 71.001 5.5s27.667 9.16699 33 16.5c-5.33301 0 -9.66602 2.83301 -12.999 8.5s-5 13.167 -5 22.5c0 18 5.66699 32.167 17 42.5s25.666 15.5 42.999 15.5c16 0 28.5 -5.33301 37.5 -16
s13.5 -24.667 13.5 -42c0 -30 -12.333 -56.833 -37 -80.5s-55 -35.5 -91 -35.5h-361l350 696h-12c-4.66699 0 -12.334 0.333008 -23.001 1c-14.667 0.666992 -25.834 1 -33.501 1h-21.5c-31.333 0 -54.5 -1.83301 -69.5 -5.5s-22.5 -9.16699 -22.5 -16.5
c4.66699 0 8.66699 -2.83301 12 -8.5s5 -13.5 5 -23.5c0 -18 -5.5 -32 -16.5 -42s-25.167 -15 -42.5 -15c-16 0 -28.5 5.33301 -37.5 16s-13.5 25 -13.5 43c0 28.667 11.5 53.167 34.5 73.5s52.5 30.5 88.5 30.5h343l-345 -685h15c6 0 15 -0.333008 27 -1z" />
    <glyph glyph-name="bracketleft" unicode="[" horiz-adv-x="400" 
d="M247 688l-186 -876h121l-13 -62h-193l212 1000h193l-13 -62h-121z" />
    <glyph glyph-name="backslash" unicode="\" horiz-adv-x="362" 
d="M114 750l212 -1000h-72l-212 1000h72z" />
    <glyph glyph-name="bracketright" unicode="]" horiz-adv-x="400" 
d="M110 -188l186 876h-121l13 62h193l-212 -1000h-193l13 62h121z" />
    <glyph glyph-name="asciicircum" unicode="^" horiz-adv-x="421" 
d="M262 750h21l60 -189h-32l-60 80l-157 -80h-44z" />
    <glyph glyph-name="underscore" unicode="_" horiz-adv-x="444" 
d="M36 0l18 79h350l-17 -79h-351z" />
    <glyph glyph-name="grave" unicode="`" horiz-adv-x="201" 
d="M129 750l29 -189h-75l-59 189h105z" />
    <glyph glyph-name="a" unicode="a" horiz-adv-x="526" 
d="M325 454l-0.00195312 -7l11 53h144l-72 -340c-1.33301 -6 -2.33301 -11.5 -3 -16.5s-1 -10.167 -1 -15.5c0 -14.667 3.33301 -25.5 10 -32.5s17 -10.5 31 -10.5c17.333 0 33 8.16699 47 24.5s25.333 39.5 34 69.5h42c-21.333 -61.333 -49 -107.5 -83 -138.5
s-73.333 -46.5 -118 -46.5c-28.667 0 -51.5 8 -68.5 24s-26.833 38.667 -29.5 68c-20.667 -30.667 -43.5 -53.667 -68.5 -69s-51.833 -23 -80.5 -23c-41.333 0 -73.833 14 -97.5 42s-35.5 67.667 -35.5 119c0 37.333 5.66699 76.333 17 117s27 77.667 47 111
c24.667 39.333 53.334 69.5 86.001 90.5s68.334 31.5 107.001 31.5c26 0 46 -4.5 60 -13.5s21 -21.5 21 -37.5zM315.998 405c0 10 -3.66504 18.833 -10.998 26.5s-17.333 11.5 -30 11.5c-36.667 0 -69.167 -30.667 -97.5 -92s-42.5 -122 -42.5 -182
c0 -26 3.66699 -45.5 11 -58.5s20.333 -19.5 39 -19.5c17.333 0 34.166 8.33301 50.499 25s27.166 37.667 32.499 63z" />
    <glyph glyph-name="b" unicode="b" horiz-adv-x="444" 
d="M133 -6c-44.667 0 -79.166 11.166 -103.499 33.499s-36.5 53.833 -36.5 94.5c0 9.33301 0.666992 18.666 2 27.999s3 19 5 29l107 501l148 20l-48 -225c16 10 30.167 17.167 42.5 21.5s25.5 6.5 39.5 6.5c39.333 0 68.833 -14.167 88.5 -42.5s29.5 -71.166 29.5 -128.499
c0 -39.333 -6 -79.666 -18 -120.999s-28.667 -77.333 -50 -108c-24.667 -36 -54.334 -63.167 -89.001 -81.5s-73.667 -27.5 -117 -27.5zM136.001 136.999c0 -15.333 4.5 -26.834 13.5 -34.501s22.167 -11.5 39.5 -11.5c30 0 57 26.333 81 79s36 108 36 166
c0 28 -4.83301 51 -14.5 69s-22.5 27 -38.5 27c-10.667 0 -22 -1.66699 -34 -5s-20.333 -7.66602 -25 -12.999l-55 -254l-2 -12c-0.666992 -4 -1 -7.66699 -1 -11z" />
    <glyph glyph-name="c" unicode="c" horiz-adv-x="384" 
d="M367 417c0 -22.667 -4.83398 -40.499 -14.501 -53.499s-22.5 -19.5 -38.5 -19.5c-5.33301 0 -11 1 -17 3s-12 5 -18 9c4 10.667 7 21 9 31s3 19.333 3 28c0 13.333 -2.33301 23.5 -7 30.5s-11.667 10.5 -21 10.5c-29.333 0 -58 -33.833 -86 -101.5
s-42 -131.834 -42 -192.501c0 -30.667 5.16699 -52.334 15.5 -65.001s29.166 -19 56.499 -19c31.333 0 60.166 7.16699 86.499 21.5s56.5 40.833 90.5 79.5h34c-38.667 -62.667 -80.667 -109.167 -126 -139.5s-95 -45.5 -149 -45.5c-51.333 0 -90.166 13.333 -116.499 40
s-39.5 66.334 -39.5 119.001c0 38 5.83301 78.333 17.5 121s27.834 80.667 48.501 114c24.667 40 54.167 70.167 88.5 90.5s72.5 30.5 114.5 30.5c36.667 0 64.334 -7.83301 83.001 -23.5s28 -38.5 28 -68.5z" />
    <glyph glyph-name="d" unicode="d" horiz-adv-x="525" 
d="M135 169c0 -26 3.66699 -45.5 11 -58.5s20.333 -19.5 39 -19.5c16.667 0 33 7.83301 49 23.5s27 35.5 33 59.5v5l49 229c-2 10.667 -6.5 19.167 -13.5 25.5s-16.167 9.5 -27.5 9.5c-36.667 0 -69.167 -30.667 -97.5 -92s-42.5 -122 -42.5 -182zM325 454l-0.00195312 -4
l49 230l148 20l-115 -540c-1.33301 -6 -2.33301 -11.5 -3 -16.5s-1 -10.167 -1 -15.5c0 -13.333 3.16699 -22.833 9.5 -28.5s16.833 -8.5 31.5 -8.5c17.333 0 33 7.66699 47 23s25.333 37 34 65h42c-20.667 -59.333 -47.5 -104 -80.5 -134s-73.167 -45 -120.5 -45
c-27.333 0 -49.5 7.5 -66.5 22.5s-27.5 36.167 -31.5 63.5c-20 -30.667 -42.333 -53.667 -67 -69s-51.667 -23 -81 -23c-41.333 0 -73.833 14 -97.5 42s-35.5 67.667 -35.5 119c0 37.333 5.66699 76.333 17 117s27 77.667 47 111c24.667 39.333 53.334 69.5 86.001 90.5
s68.334 31.5 107.001 31.5c26 0 46 -4.5 60 -13.5s21 -21.5 21 -37.5z" />
    <glyph glyph-name="e" unicode="e" horiz-adv-x="384" 
d="M367 413c0 -55.333 -22.666 -103.499 -67.999 -144.499s-99.333 -63.167 -162 -66.5l-1.5 -25.5c-0.333008 -5.66699 -0.5 -10.5 -0.5 -14.5c0 -30.667 5.16699 -52.334 15.5 -65.001s29.166 -19 56.499 -19c31.333 0 60.166 7.16699 86.499 21.5s56.5 40.833 90.5 79.5
h34c-38.667 -62.667 -80.667 -109.167 -126 -139.5s-95 -45.5 -149 -45.5c-51.333 0 -90.166 13.333 -116.499 40s-39.5 66.334 -39.5 119.001c0 38 6 78.333 18 121s28 80.667 48 114c24.667 40 54.167 70.167 88.5 90.5s72.833 30.5 115.5 30.5
c36.667 0 64.167 -7.83301 82.5 -23.5s27.5 -39.834 27.5 -72.501zM265.001 456.001c-22.667 0 -45.5 -20.167 -68.5 -60.5s-40.167 -88.833 -51.5 -145.5c38.667 2.66699 72.5 20.5 101.5 53.5s43.5 70.167 43.5 111.5c0 14 -2 24.333 -6 31s-10.333 10 -19 10z" />
    <glyph glyph-name="f" unicode="f" horiz-adv-x="267" 
d="M267 749c32.667 0 60.498 -10.333 83.498 -31s34.5 -46.334 34.5 -77.001c0 -8 -0.166992 -15.333 -0.5 -22s-1.16602 -13 -2.49902 -19h-47c1.33301 10.667 2 17.167 2 19.5v7.5c0 10.667 -3.5 19 -10.5 25s-16.167 9 -27.5 9c-16.667 0 -31.167 -7 -43.5 -21
s-21.166 -34.333 -26.499 -61l-17 -79h73l-7 -40h-74l-115 -540c-12 -56.667 -33 -99.167 -63 -127.5s-68.667 -42.5 -116 -42.5c-32.667 0 -60.5 10.333 -83.5 31s-34.5 46.334 -34.5 77.001c0 34.667 11.5 63 34.5 85s68.833 43.667 137.5 65l121 571
c12 56 33.333 98.333 64 127s70 43 118 43zM-43.002 -25c-38.667 -12.667 -66.667 -27.3311 -84 -43.998s-26 -36.334 -26 -59.001c0 -8 4.16699 -15.5 12.5 -22.5s17.5 -10.5 27.5 -10.5c12.667 0 24 6.66699 34 20s17.667 32.666 23 57.999z" />
    <glyph glyph-name="g" unicode="g" horiz-adv-x="507" 
d="M325 454l-0.00292969 -5.99805l11 52h144l-99 -464c33.333 12 59.5 28.833 78.5 50.5s34.833 52.5 47.5 92.5h42c-15.333 -50.667 -37.166 -91.334 -65.499 -122.001s-65.5 -52.334 -111.5 -65.001l-15 -72c-12 -56 -33 -98.333 -63 -127s-69 -43 -117 -43
c-34 0 -61.167 8.66699 -81.5 26s-30.5 41 -30.5 71c0 32.667 13.5 61.5 40.5 86.5s67.833 45.833 122.5 62.5l12 53c-17.333 -18 -36 -31.667 -56 -41s-41.333 -14 -64 -14c-41.333 0 -73.833 14 -97.5 42s-35.5 67.667 -35.5 119c0 37.333 5.66699 76.333 17 117
s27 77.667 47 111c24.667 39.333 53.334 69.5 86.001 90.5s68.334 31.5 107.001 31.5c26 0 46 -4.5 60 -13.5s21 -21.5 21 -37.5zM315.997 406.002c-0.666992 10.667 -4.66699 19.499 -12 26.499s-17 10.5 -29 10.5c-36.667 0 -69.167 -30.667 -97.5 -92
s-42.5 -122 -42.5 -182c0 -26 3.66699 -45.5 11 -58.5s20.333 -19.5 39 -19.5c16 0 31.833 7.33301 47.5 22s26.5 33.334 32.5 56.001zM217.997 -53.999c-33.333 -12.667 -58 -25.8311 -74 -39.498s-24 -28.834 -24 -45.501c0 -8.66699 3.33301 -16.334 10 -23.001
s14.667 -10 24 -10c11.333 0 22.333 8 33 24s19 37.667 25 65z" />
    <glyph glyph-name="h" unicode="h" horiz-adv-x="505" 
d="M243 107c0 12 1.50195 26.999 4.50195 44.999s9.16699 46.667 18.5 86c9.33301 38 15.333 65.333 18 82s4 30.667 4 42c0 16.667 -3.16699 29.334 -9.5 38.001s-15.5 13 -27.5 13c-16 0 -31.5 -9.5 -46.5 -28.5s-24.833 -38.833 -29.5 -59.5l-69 -325h-144l145 680
l148 20l-54 -252c16.667 18.667 34.667 32.667 54 42s40.333 14 63 14c35.333 0 62.666 -9.66699 81.999 -29s29 -47.333 29 -84c0 -15.333 -1.83301 -33.5 -5.5 -54.5s-10.834 -53.167 -21.501 -96.5c-8.66699 -34 -14.334 -58 -17.001 -72s-4 -25.667 -4 -35
c0 -14 3.33301 -24.5 10 -31.5s16.667 -10.5 30 -10.5c16.667 0 31 5.66699 43 17s25.667 35 41 71h42c-21.333 -62 -47.166 -108.333 -77.499 -139s-66.5 -46 -108.5 -46c-37.333 0 -66.333 10.167 -87 30.5s-31 47.833 -31 82.5z" />
    <glyph glyph-name="i" unicode="i" horiz-adv-x="267" 
d="M247 633c0 -22 -7.83301 -40.667 -23.5 -56s-34.5 -23 -56.5 -23s-40.667 7.66699 -56 23s-23 34 -23 56s7.66699 40.833 23 56.5s34 23.5 56 23.5s40.833 -7.83301 56.5 -23.5s23.5 -34.5 23.5 -56.5zM-8 114c0 8.66699 0.666016 18.5 1.99902 29.5
s3.33301 22.833 6 35.5l68 321h144l-72 -340c-1.33301 -6 -2.33301 -11.5 -3 -16.5s-1 -10.167 -1 -15.5c0 -13.333 3.16699 -22.833 9.5 -28.5s16.833 -8.5 31.5 -8.5c18.667 0 36.334 8.16699 53.001 24.5s29 37.5 37 63.5h42c-21.333 -60.667 -50 -106.667 -86 -138
s-77.333 -47 -124 -47c-33.333 0 -59.5 10.5 -78.5 31.5s-28.5 50.5 -28.5 88.5z" />
    <glyph glyph-name="j" unicode="j" horiz-adv-x="240" 
d="M239 634c0 -22 -7.83301 -40.667 -23.5 -56s-34.5 -23 -56.5 -23s-40.667 7.66699 -56 23s-23 34 -23 56s7.66699 40.833 23 56.5s34 23.5 56 23.5s40.833 -7.83301 56.5 -23.5s23.5 -34.5 23.5 -56.5zM-202 -153c0 33.333 13.666 62.334 40.999 87.001
s68.333 45.334 123 62.001l107 504h144l-99 -464c33.333 12 59.5 28.833 78.5 50.5s34.833 52.5 47.5 92.5h42c-15.333 -50.667 -37.166 -91.334 -65.499 -122.001s-65.5 -52.334 -111.5 -65.001l-15 -72c-12 -56 -33 -98.333 -63 -127s-69 -43 -117 -43
c-34 0 -61.167 8.66699 -81.5 26s-30.5 41 -30.5 71zM-49.001 -53.999c-33.333 -12.667 -58 -25.8311 -74 -39.498s-24 -28.834 -24 -45.501c0 -8.66699 3.33301 -16.334 10 -23.001s14.667 -10 24 -10c11.333 0 22.333 8 33 24s19 37.667 25 65z" />
    <glyph glyph-name="k" unicode="k" horiz-adv-x="518" 
d="M255 700l-74.9951 -352.002l193 152h99l-200 -139c9.33301 1.33301 16.166 2.33301 20.499 3s8.5 1 12.5 1c34 0 60.833 -10.667 80.5 -32s29.5 -49.666 29.5 -84.999c0 -6.66699 -0.333008 -13.167 -1 -19.5s-1.66699 -12.5 -3 -18.5l-11 -50
c-1.33301 -8 -2.5 -14.667 -3.5 -20s-1.5 -9.33301 -1.5 -12c0 -12.667 3.16699 -22 9.5 -28s16.166 -9 29.499 -9c16.667 0 31 5.66699 43 17s25.667 35 41 71h42c-20.667 -61.333 -46.334 -107.5 -77.001 -138.5s-66.334 -46.5 -107.001 -46.5
s-71.834 9.83301 -93.501 29.5s-32.5 47.834 -32.5 84.501c0 8 0.5 16.333 1.5 25s2.5 17.667 4.5 27l8 39c1.33301 6 2.33301 12 3 18s1 12.333 1 19c0 16 -3 28 -9 36s-15 12 -27 12c-10 0 -20.833 -2.83301 -32.5 -8.5s-25.5 -15.167 -41.5 -28.5l-52 -247h-144l145 680z
" />
    <glyph glyph-name="l" unicode="l" horiz-adv-x="267" 
d="M-8 114c0 8.66699 0.666016 18.5 1.99902 29.5s3.33301 22.833 6 35.5l107 501l148 20l-115 -540c-1.33301 -6 -2.33301 -11.5 -3 -16.5s-1 -10.167 -1 -15.5c0 -13.333 3.16699 -22.833 9.5 -28.5s16.833 -8.5 31.5 -8.5c18.667 0 36.334 8.16699 53.001 24.5
s29 37.5 37 63.5h42c-21.333 -60.667 -50 -106.667 -86 -138s-77.333 -47 -124 -47c-33.333 0 -59.5 10.5 -78.5 31.5s-28.5 50.5 -28.5 88.5z" />
    <glyph glyph-name="m" unicode="m" horiz-adv-x="752" 
d="M490 107c0 12 1.50098 26.999 4.50098 44.999s9.16699 46.667 18.5 86c9.33301 38 15.333 65.333 18 82s4 30.667 4 42c0 16.667 -3 29.334 -9 38.001s-15 13 -27 13c-16 0 -30.833 -8.16699 -44.5 -24.5s-24.834 -38.833 -33.501 -67.5l-68 -321h-144l73 345
c1.33301 4 2.16602 8 2.49902 12s0.5 8.33301 0.5 13c0 13.333 -2.66699 24 -8 32s-12.666 12 -21.999 12c-17.333 0 -33 -8.16699 -47 -24.5s-25.333 -39.166 -34 -68.499l-68 -321h-144l106 500h144l-11 -52c16.667 19.333 35 33.666 55 42.999s42.333 14 67 14
c29.333 0 52.5 -7.16699 69.5 -21.5s28.167 -35.833 33.5 -64.5c18.667 28.667 39.334 50 62.001 64s48.334 21 77.001 21c35.333 0 62.666 -9.66699 81.999 -29s29 -47.333 29 -84c0 -15.333 -1.83301 -33.5 -5.5 -54.5s-10.834 -53.167 -21.501 -96.5
c-8.66699 -34 -14.334 -58 -17.001 -72s-4 -25.667 -4 -35c0 -14 3.33301 -24.5 10 -31.5s16.667 -10.5 30 -10.5c16.667 0 31 5.66699 43 17s25.667 35 41 71h42c-21.333 -62 -47.166 -108.333 -77.499 -139s-66.5 -46 -108.5 -46c-37.333 0 -66.333 10.167 -87 30.5
s-31 47.833 -31 82.5z" />
    <glyph glyph-name="n" unicode="n" horiz-adv-x="505" 
d="M243 107c0 12 1.50293 26.999 4.50293 44.999s9.16699 46.667 18.5 86c9.33301 38 15.333 65.333 18 82s4 30.667 4 42c0 16.667 -3 29.334 -9 38.001s-15 13 -27 13c-16 0 -30.833 -8.16699 -44.5 -24.5s-24.834 -38.833 -33.501 -67.5l-68 -321h-144l106 500h144
l-11 -52c16.667 18.667 34.667 32.667 54 42s40.333 14 63 14c35.333 0 62.666 -9.66699 81.999 -29s29 -47.333 29 -84c0 -15.333 -1.83301 -33.5 -5.5 -54.5s-10.834 -53.167 -21.501 -96.5c-8.66699 -34 -14.334 -58 -17.001 -72s-4 -25.667 -4 -35
c0 -14 3.33301 -24.5 10 -31.5s16.667 -10.5 30 -10.5c16.667 0 31 5.66699 43 17s25.667 35 41 71h42c-21.333 -62 -47.166 -108.333 -77.499 -139s-66.5 -46 -108.5 -46c-37.333 0 -66.333 10.167 -87 30.5s-31 47.833 -31 82.5z" />
    <glyph glyph-name="o" unicode="o" horiz-adv-x="439" 
d="M-14 154c0 38 6.16309 78.335 18.4961 121.002s29.166 80.667 50.499 114c24.667 39.333 54.334 69.166 89.001 89.499s73.334 30.5 116.001 30.5s74.667 -13.333 96 -40s32 -66.667 32 -120c1.33301 -0.666992 2.83301 -1.16699 4.5 -1.5s3.83398 -0.5 6.50098 -0.5
c20.667 0 45.334 5.66699 74.001 17s55.334 25.666 80.001 42.999l9 -27c-18.667 -20 -43.5 -37.333 -74.5 -52s-65.167 -25 -102.5 -31c-8 -90 -34 -162.667 -78 -218s-97.667 -83 -161 -83c-52 0 -91.667 13.333 -119 40s-41 66 -41 118zM267.996 448.002
c-32 0 -62.167 -32.334 -90.5 -97.001s-42.5 -126 -42.5 -184c0 -31.333 3.5 -52.666 10.5 -63.999s20.5 -17 40.5 -17c24.667 0 48.167 20 70.5 60s37.5 89.333 45.5 148c-9.33301 2 -16.166 6.5 -20.499 13.5s-6.5 16.5 -6.5 28.5c0 12.667 2.66699 23.667 8 33
s13 16.333 23 21c-1.33301 21.333 -4.83301 36.333 -10.5 45s-14.834 13 -27.501 13z" />
    <glyph glyph-name="p" unicode="p" horiz-adv-x="468" 
d="M128 104c2.66699 -7.33301 7.33398 -13 14.001 -17s14.667 -6 24 -6c42 0 75.833 27 101.5 81s38.5 116.667 38.5 188c0 27.333 -4 48 -12 62s-20.667 21 -38 21c-12 0 -24.333 -4.5 -37 -13.5s-23.334 -20.833 -32.001 -35.5zM60 -214l-151 -36l167 787h144l-16 -75
c16.667 14 34.667 24.667 54 32s40.333 11 63 11c40 0 70.333 -13.333 91 -40s31 -66 31 -118c0 -102 -21.833 -186.333 -65.5 -253s-103.834 -100 -180.501 -100c-21.333 0 -39.166 3 -53.499 9s-24.833 15 -31.5 27z" />
    <glyph glyph-name="q" unicode="q" horiz-adv-x="486" 
d="M244 505c26 0 45.999 -4.5 59.999 -13.5s21 -22.167 21 -39.5l10 48h144l-152 -714l-151 -36l63 299c-17.333 -18 -35.833 -31.667 -55.5 -41s-40.834 -14 -63.501 -14c-41.333 0 -73.833 14 -97.5 42s-35.5 67.667 -35.5 119c0 37.333 5.66699 76.333 17 117
s27 77.667 47 111c24.667 39.333 53.334 69.5 86.001 90.5s68.334 31.5 107.001 31.5zM315.999 409c-1.33301 10 -5.66797 18.167 -13.001 24.5s-16.666 9.5 -27.999 9.5c-36.667 0 -69.167 -30.667 -97.5 -92s-42.5 -122 -42.5 -182c0 -26 3.66699 -45.5 11 -58.5
s20.333 -19.5 39 -19.5c15.333 0 30.333 6.66699 45 20s25.667 30.333 33 51z" />
    <glyph glyph-name="r" unicode="r" horiz-adv-x="376" 
d="M106 0l-144.002 -0.000976562l106 500h144l-13 -62c29.333 24.667 52.5 41.167 69.5 49.5s34.167 12.5 51.5 12.5c20.667 0 37.334 -7.16699 50.001 -21.5s19 -32.166 19 -53.499c0 -20.667 -6.66699 -38 -20 -52s-30.666 -21 -51.999 -21
c-11.333 0 -20.166 2.66699 -26.499 8s-10.833 16.333 -13.5 33c-2 10.667 -4.33301 17.5 -7 20.5s-6.33398 4.5 -11.001 4.5c-11.333 0 -22 -2.33301 -32 -7s-23.667 -15 -41 -31z" />
    <glyph glyph-name="s" unicode="s" horiz-adv-x="382" 
d="M314 167c0 -8 -0.333984 -15.001 -1.00098 -21.001s-1.66699 -11.667 -3 -17c13.333 8 26.333 16.333 39 25s23.667 17 33 25h42c-20.667 -24 -43.5 -46.167 -68.5 -66.5s-53.167 -39.833 -84.5 -58.5c-18 -19.333 -41 -34.166 -69 -44.499s-57.333 -15.5 -88 -15.5
c-44.667 0 -80.167 12.167 -106.5 36.5s-39.5 54.833 -39.5 91.5c0 20.667 5 39.5 15 56.5s22.667 29.167 38 36.5c22.667 40.667 43.834 84.167 63.501 130.5s39.5 101.5 59.5 165.5l148 20c2 -50 4.33301 -95.667 7 -137s6 -86.333 10 -135c2 -28 3.33301 -47.667 4 -59
s1 -22.333 1 -33zM149.999 402.999c-8.66699 -27.333 -19.165 -55.834 -31.498 -85.501s-28.833 -64.167 -49.5 -103.5c7.33301 -3.33301 13 -8 17 -14s6 -13 6 -21c0 -12.667 -4.33301 -24 -13 -34s-19 -15 -31 -15c-6.66699 0 -12.334 1.16699 -17.001 3.5s-8 5.5 -10 9.5
c0 -24.667 4.83301 -42.5 14.5 -53.5s25.167 -16.5 46.5 -16.5c27.333 0 48.666 8 63.999 24s23 39 23 69c0 9.33301 -0.333008 18.833 -1 28.5s-2 25.834 -4 48.501c-3.33301 31.333 -6 59 -8 83s-4 49.667 -6 77z" />
    <glyph glyph-name="t" unicode="t" horiz-adv-x="267" 
d="M35 500h32.999l30 138l148 20l-34 -158h60l-8 -40h-60l-64 -300c-1.33301 -6 -2.33301 -11.5 -3 -16.5s-1 -10.167 -1 -15.5c0 -13.333 3.16699 -22.833 9.5 -28.5s16.833 -8.5 31.5 -8.5c18.667 0 36.334 8.16699 53.001 24.5s29 37.5 37 63.5h42
c-21.333 -60.667 -50 -106.667 -86 -138s-77.333 -47 -124 -47c-33.333 0 -59.5 10.5 -78.5 31.5s-28.5 50.5 -28.5 88.5c0 8.66699 0.666992 18.5 2 29.5s3.33301 22.833 6 35.5l60 281h-33z" />
    <glyph glyph-name="u" unicode="u" horiz-adv-x="505" 
d="M167 91c17.333 0 32.8301 7.49902 46.4971 22.499s24.834 36.833 33.501 65.5l68 321h144l-72 -340c-1.33301 -6 -2.33301 -11.5 -3 -16.5s-1 -10.167 -1 -15.5c0 -13.333 3.16699 -22.833 9.5 -28.5s16.833 -8.5 31.5 -8.5c17.333 0 33 7.66699 47 23s25.333 37 34 65
h42c-21.333 -61.333 -49 -107.5 -83 -138.5s-73.333 -46.5 -118 -46.5c-28.667 0 -51.667 8.16699 -69 24.5s-27.333 39.833 -30 70.5c-19.333 -32 -41.166 -55.833 -65.499 -71.5s-51.833 -23.5 -82.5 -23.5c-33.333 0 -59.5 10.5 -78.5 31.5s-28.5 50.5 -28.5 88.5
c0 8.66699 0.666992 18.5 2 29.5s3.33301 22.833 6 35.5l68 321h144l-72 -340c-1.33301 -5.33301 -2.16602 -10.166 -2.49902 -14.499s-0.5 -8.83301 -0.5 -13.5c0 -13.333 2.5 -23.5 7.5 -30.5s12.5 -10.5 22.5 -10.5z" />
    <glyph glyph-name="v" unicode="v" horiz-adv-x="414" 
d="M310 415c-10.667 0 -19.335 5.16797 -26.002 15.501s-10 22.166 -10 35.499c0 16.667 5.5 29.834 16.5 39.501s26.167 14.5 45.5 14.5c20.667 0 36.334 -7.66699 47.001 -23s16 -36.666 16 -63.999c0 -45.333 -5.83301 -92.833 -17.5 -142.5
s-27.5 -94.834 -47.5 -135.501c-26.667 -52.667 -58.667 -92.667 -96 -120s-78.666 -41 -123.999 -41c-39.333 0 -69.666 10.167 -90.999 30.5s-32 49.5 -32 87.5c0 7.33301 0.5 15.166 1.5 23.499s2.16699 16.5 3.5 24.5l72 340h144l-72 -340
c-1.33301 -7.33301 -2.5 -14.166 -3.5 -20.499s-1.5 -11.5 -1.5 -15.5c0 -10.667 2.83301 -18.834 8.5 -24.501s14.167 -8.5 25.5 -8.5c23.333 0 46.166 12.167 68.499 36.5s42.5 58.833 60.5 103.5c13.333 32 24 65.667 32 101s12 66.333 12 93
c-1.33301 -2.66699 -5.5 -5 -12.5 -7s-13.5 -3 -19.5 -3z" />
    <glyph glyph-name="w" unicode="w" horiz-adv-x="661" 
d="M-8 114c0 8.66699 0.665039 18.501 1.99805 29.501s3.33301 22.833 6 35.5l68 321h144l-72 -340l-2 -12.5c-0.666992 -4.33301 -1 -8.5 -1 -12.5c0 -14 2.5 -24.833 7.5 -32.5s12.5 -11.5 22.5 -11.5c17.333 0 32.833 7.5 46.5 22.5s24.834 36.833 33.501 65.5l68 321
h144l-72 -340c-1.33301 -7.33301 -2.5 -14.166 -3.5 -20.499s-1.5 -11.5 -1.5 -15.5c0 -10.667 2.83301 -18.834 8.5 -24.501s14.167 -8.5 25.5 -8.5c23.333 0 46.166 12.167 68.499 36.5s42.5 58.833 60.5 103.5c13.333 32 24 65.667 32 101s12 66.333 12 93
c-1.33301 -2.66699 -5.5 -5 -12.5 -7s-13.5 -3 -19.5 -3c-10.667 0 -19.334 5.16699 -26.001 15.5s-10 22.166 -10 35.499c0 16.667 5.5 29.834 16.5 39.501s26.167 14.5 45.5 14.5c20.667 0 36.334 -7.66699 47.001 -23s16 -36.666 16 -63.999
c0 -45.333 -5.83301 -92.833 -17.5 -142.5s-27.5 -94.834 -47.5 -135.501c-26.667 -52.667 -58.667 -92.667 -96 -120s-78.666 -41 -123.999 -41c-33.333 0 -60.166 7.16699 -80.499 21.5s-33.5 35.166 -39.5 62.499c-19.333 -28 -40.5 -49 -63.5 -63s-49.167 -21 -78.5 -21
c-33.333 0 -59.5 10.5 -78.5 31.5s-28.5 50.5 -28.5 88.5z" />
    <glyph glyph-name="x" unicode="x" horiz-adv-x="522" 
d="M444 557c16.667 0 30.1611 -8.83105 40.4941 -26.498s15.5 -39.167 15.5 -64.5c0 -24.667 -8 -50.5 -24 -77.5s-54.333 -73.833 -115 -140.5l9 -70c4 -30.667 10.667 -52.834 20 -66.501s23.333 -20.5 42 -20.5s36.334 8.16699 53.001 24.5s29 37.5 37 63.5h42
c-20.667 -60 -48.667 -105.833 -84 -137.5s-75.333 -47.5 -120 -47.5c-31.333 0 -57.166 14.5 -77.499 43.5s-35.166 72.5 -44.499 130.5l-138 -168h-72l202 228l-16 112c-4.66699 30.667 -9.66699 52.167 -15 64.5s-13 18.5 -23 18.5
c-23.333 0 -47.666 -22.5 -72.999 -67.5s-45.666 -103.833 -60.999 -176.5h-42c21.333 102.667 52.5 182.667 93.5 240s88.5 86 142.5 86c30.667 0 55.167 -10.167 73.5 -30.5s29.833 -49.833 34.5 -88.5l9 -76c30 34 51.833 62.167 65.5 84.5s20.834 42.166 21.501 59.499
l-10.5 -1.5c-2.33301 -0.333008 -4.5 -0.5 -6.5 -0.5c-15.333 0 -27 4.83301 -35 14.5s-12 23.5 -12 41.5c0 15.333 6.16699 27.333 18.5 36s28.833 13 49.5 13z" />
    <glyph glyph-name="y" unicode="y" horiz-adv-x="486" 
d="M167 91c16.667 0 31.667 7.00195 45 21.002s24.333 34.333 33 61l70 327h144l-99 -464c33.333 12 59.5 28.833 78.5 50.5s34.833 52.5 47.5 92.5h42c-15.333 -50.667 -37.166 -91.334 -65.499 -122.001s-65.5 -52.334 -111.5 -65.001l-15 -72
c-12 -56 -33 -98.333 -63 -127s-69 -43 -117 -43c-34 0 -61.167 8.66699 -81.5 26s-30.5 41 -30.5 71c0 32.667 13.5 61.5 40.5 86.5s67.833 45.833 122.5 62.5l12 54c-16.667 -18.667 -34.834 -32.667 -54.501 -42s-41.5 -14 -65.5 -14c-33.333 0 -59.5 10.5 -78.5 31.5
s-28.5 50.5 -28.5 88.5c0 8.66699 0.666992 18.5 2 29.5s3.33301 22.833 6 35.5l68 321h144l-72 -340l-2 -12.5c-0.666992 -4.33301 -1 -8.5 -1 -12.5c0 -14 2.5 -24.833 7.5 -32.5s12.5 -11.5 22.5 -11.5zM197 -53.998c-33.333 -12.667 -58 -25.8311 -74 -39.498
s-24 -28.834 -24 -45.501c0 -8.66699 3.33301 -16.334 10 -23.001s14.667 -10 24 -10c11.333 0 22.333 8 33 24s19 37.667 25 65z" />
    <glyph glyph-name="z" unicode="z" horiz-adv-x="428" 
d="M205 75l33.498 -3c7.66699 -0.666992 14.5 -1 20.5 -1c14.667 0 25.834 1.66699 33.501 5s12.167 8.33301 13.5 15c-6 0.666992 -10.667 2.83398 -14 6.50098s-5 8.5 -5 14.5c0 11.333 5.33301 21.333 16 30s24 13 40 13c14 0 24.833 -4.33301 32.5 -13
s11.5 -20.334 11.5 -35.001c0 -27.333 -11.833 -52 -35.5 -74s-52.5 -33 -86.5 -33h-265l255 446h-56c-20.667 0 -35 -1.33301 -43 -4s-12 -6.66699 -12 -12l5.5 -4c3.66699 -2.66699 5.5 -8.66699 5.5 -18c0 -16 -5.16699 -28.833 -15.5 -38.5s-23.166 -14.5 -38.499 -14.5
c-13.333 0 -24.333 4 -33 12s-13 18.667 -13 32c0 24.667 11.5 47.667 34.5 69s50.167 32 81.5 32h257l-245 -423c2 0 4.5 -0.166992 7.5 -0.5s7.83301 -0.833008 14.5 -1.5z" />
    <glyph glyph-name="braceleft" unicode="{" horiz-adv-x="352" 
d="M180 549c0 54.667 14.4971 101.831 43.4971 141.498s67.833 59.5 116.5 59.5h43l-9 -50c-27.333 0 -47.166 -2 -59.499 -6s-22.833 -10.667 -31.5 -20c-15.333 -17.333 -26.666 -36.666 -33.999 -57.999s-11.333 -48 -12 -80l6 -171
c-0.666992 -27.333 -4.33398 -50 -11.001 -68s-16.334 -32.333 -29.001 -43c4 -4.66699 7 -10 9 -16s3 -12.667 3 -20c0 -15.333 -3.66699 -33.833 -11 -55.5s-22.666 -56.834 -45.999 -105.501c-25.333 -53.333 -42 -92.333 -50 -117s-12 -46 -12 -64
c0 -26.667 7.16699 -46.667 21.5 -60s35.5 -20 63.5 -20l-9 -45h-9c-39.333 0 -65.666 3 -78.999 9s-25 17 -35 33c-6.66699 9.33301 -11.5 19.666 -14.5 30.999s-4.5 23.333 -4.5 36c0 18.667 3.5 39.167 10.5 61.5s22.5 57.5 46.5 105.5c20 39.333 34 69.333 42 90
s14 40 18 58l2 11.5c0.666992 3.66699 1 7.16699 1 10.5c0 10.667 -3.33301 18.5 -10 23.5s-17 7.5 -31 7.5c-4 0 -8.66699 -0.166992 -14 -0.5s-11.333 -1.16602 -18 -2.49902l12 57c6 -1.33301 11.5 -2.16602 16.5 -2.49902s9.83301 -0.5 14.5 -0.5
c22.667 0 39.5 8.16699 50.5 24.5s16.5 45.166 16.5 86.499c0 10 -0.166992 20.667 -0.5 32s-1.5 28.333 -3.5 51c-1.33301 20.667 -2.16602 36.334 -2.49902 47.001s-0.5 20.334 -0.5 29.001z" />
    <glyph glyph-name="bar" unicode="|" horiz-adv-x="532" 
d="M219 -250v1001h93v-1001h-93z" />
    <glyph glyph-name="braceright" unicode="}" horiz-adv-x="352" 
d="M233 -48c0 -54.667 -14.4971 -101.832 -43.4971 -141.499s-67.833 -59.5 -116.5 -59.5h-43l9 50c27.333 0 47.166 2 59.499 6s22.833 10.667 31.5 20c15.333 17.333 26.666 36.666 33.999 57.999s11.333 48 12 80l-6 171c0.666992 27.333 4.33398 50 11.001 68
s16.334 32.333 29.001 43c-4 4.66699 -7 10 -9 16s-3 12.667 -3 20c0 15.333 3.66699 33.833 11 55.5s22.666 56.834 45.999 105.501c25.333 53.333 42 92.333 50 117s12 46 12 64c0 26.667 -7.16699 46.667 -21.5 60s-35.5 20 -63.5 20l9 45h9
c39.333 0 65.666 -3 78.999 -9s25 -17 35 -33c6.66699 -9.33301 11.5 -19.666 14.5 -30.999s4.5 -23.333 4.5 -36c0 -18.667 -3.5 -39.167 -10.5 -61.5s-22.5 -57.5 -46.5 -105.5c-20 -39.333 -34 -69.333 -42 -90s-14 -40 -18 -58l-2 -11.5
c-0.666992 -3.66699 -1 -7.16699 -1 -10.5c0 -10.667 3.33301 -18.5 10 -23.5s17 -7.5 31 -7.5c4 0 8.66699 0.166992 14 0.5s11.333 1.16602 18 2.49902l-12 -57c-6 1.33301 -11.5 2.16602 -16.5 2.49902s-9.83301 0.5 -14.5 0.5c-22.667 0 -39.5 -8.16699 -50.5 -24.5
s-16.5 -45.166 -16.5 -86.499c0 -10 0.166992 -20.667 0.5 -32s1.5 -28 3.5 -50c1.33301 -21.333 2.16602 -37.333 2.49902 -48s0.5 -20.334 0.5 -29.001z" />
    <glyph glyph-name="asciitilde" unicode="~" horiz-adv-x="431" 
d="M308 662c19.333 -6 33.832 -10.001 43.499 -12.001s19.5 -3 29.5 -3c12.667 0 24.667 2 36 6s20.333 9.66699 27 17l6 -1c-6 -25.333 -25.333 -48.333 -58 -69s-67 -31 -103 -31c-12 0 -24.5 1.33301 -37.5 4s-31.167 8 -54.5 16
c-20.667 6.66699 -36.167 11.167 -46.5 13.5s-20.166 3.5 -29.499 3.5c-12.667 0 -24.5 -2.16699 -35.5 -6.5s-21.167 -10.833 -30.5 -19.5l-6 2c16 32 38.333 56.333 67 73s62 25 100 25c13.333 0 26.5 -1.16699 39.5 -3.5s30.5 -7.16602 52.5 -14.499z" />
    <glyph glyph-name="exclamdown" unicode="&#xa1;" horiz-adv-x="219" 
d="M218 372c0 -22 -7.83301 -40.667 -23.5 -56s-34.5 -23 -56.5 -23s-40.667 7.66699 -56 23s-23 34 -23 56s7.66699 40.833 23 56.5s34 23.5 56 23.5s40.833 -7.83301 56.5 -23.5s23.5 -34.5 23.5 -56.5zM83 -248h-144l130 469h85z" />
    <glyph glyph-name="cent" unicode="&#xa2;" horiz-adv-x="403" 
d="M192 145l-38 -172.001h-27l31 173c-38 5.33301 -68.667 23.333 -92 54s-35 69.334 -35 116.001c0 74 19 136.833 57 188.5s88.333 81.834 151 90.501l22 123h58l-27 -122c29.333 -2 51.666 -8.66699 66.999 -20s23 -27.333 23 -48c0 -6 -0.333008 -11.5 -1 -16.5
s-2 -10.5 -4 -16.5h-57c2 6.66699 3.33301 12.167 4 16.5s1 8.16602 1 11.499c0 11.333 -3.16699 19.833 -9.5 25.5s-15.5 8.5 -27.5 8.5h-5l-76 -343c2 -0.666992 3.83301 -1 5.5 -1h9.5c18.667 0 37.334 4.33301 56.001 13s44 27 76 55
c-7.33301 -44 -24.333 -77.167 -51 -99.5s-63.667 -34.5 -111 -36.5zM228 533.999c-26.667 -20.667 -48.667 -51.5 -66 -92.5s-26 -81.833 -26 -122.5c0 -18.667 3.33301 -36.167 10 -52.5s15.667 -28.833 27 -37.5z" />
    <glyph glyph-name="sterling" unicode="&#xa3;" horiz-adv-x="465" 
d="M272 419c29.333 -9.33301 48.6699 -14.834 58.0029 -16.501s18.333 -2.5 27 -2.5c12.667 0 24.667 2 36 6s20.333 9.66699 27 17l6 -1c-6 -25.333 -25.333 -48.333 -58 -69s-67 -31 -103 -31h-16l-56 -231c10 1.33301 28.667 2.33301 56 3s49.666 3.33398 66.999 8.00098
c18 4.66699 36.167 11.5 54.5 20.5s37.166 20.833 56.499 35.5c-5.33301 -48 -17.333 -86.333 -36 -115s-41.334 -43 -68.001 -43h-295l86 358c-1.33301 0 -4 0.166992 -8 0.5s-7 0.5 -9 0.5c-12.667 0 -24.5 -2.16699 -35.5 -6.5s-21.167 -10.833 -30.5 -19.5l-6 2
c10.667 22 25 40.5 43 55.5s38.667 26.167 62 33.5l72 295l150 31z" />
    <glyph glyph-name="currency" unicode="&#xa4;" horiz-adv-x="500" 
d="M96 345c0 16 2.50098 31.668 7.50098 47.001s12.167 29.666 21.5 42.999l-57 57l38 36l56 -56c13.333 10 27.666 17.5 42.999 22.5s31.333 7.5 48 7.5c16 0 31.5 -2.5 46.5 -7.5s29.167 -12.167 42.5 -21.5l56 56l36 -36l-55 -55c10 -13.333 17.5 -27.833 22.5 -43.5
s7.5 -31.834 7.5 -48.501s-2.5 -32.667 -7.5 -48s-12.5 -29.666 -22.5 -42.999l55 -55l-36 -36l-55 55c-13.333 -9.33301 -27.666 -16.5 -42.999 -21.5s-31 -7.5 -47 -7.5c-16.667 0 -32.834 2.5 -48.501 7.5s-30.167 12.5 -43.5 22.5l-56 -56l-36 36l56 56
c-9.33301 13.333 -16.5 27.5 -21.5 42.5s-7.5 30.5 -7.5 46.5zM253.001 246.001c27.333 0 50.833 9.83301 70.5 29.5s29.5 43.167 29.5 70.5s-9.83301 50.833 -29.5 70.5s-43.167 29.5 -70.5 29.5s-50.833 -9.83301 -70.5 -29.5s-29.5 -43.167 -29.5 -70.5
s9.83301 -50.833 29.5 -70.5s43.167 -29.5 70.5 -29.5z" />
    <glyph glyph-name="yen" unicode="&#xa5;" horiz-adv-x="474" 
d="M444 750h66l-196 -443h131l-14 -50h-128l-14 -65h131l-14 -50h-128l-30 -142h-160l30 142h-99l14 50h96l14 65h-99l14 50h96l-112 443h164l88 -361z" />
    <glyph glyph-name="brokenbar" unicode="&#xa6;" horiz-adv-x="532" 
d="M219 751h93v-450h-93v450zM219 -250v472h93v-472h-93z" />
    <glyph glyph-name="section" unicode="&#xa7;" horiz-adv-x="542" 
d="M265 346c41.333 -35.333 70 -64.833 86 -88.5s27 -48.5 33 -74.5c6 7.33301 10.667 16.5 14 27.5s5 22.833 5 35.5c0 25.333 -6.66699 48.833 -20 70.5s-41.666 49.5 -84.999 83.5c-27.333 21.333 -47 38 -59 50s-22 24 -30 36c-6.66699 -3.33301 -11.5 -8 -14.5 -14
s-4.5 -13 -4.5 -21c0 -14 4.66699 -28 14 -42s29.666 -35 60.999 -63zM183 577c0 52 20.1641 93.832 60.4971 125.499s90.833 47.5 151.5 47.5c41.333 0 73.333 -8.16699 96 -24.5s34 -39.833 34 -70.5c0 -24 -6 -43.5 -18 -58.5s-28 -22.5 -48 -22.5
c-7.33301 0 -14.166 1.33301 -20.499 4s-11.833 6.66699 -16.5 12c10.667 6 19.334 15.5 26.001 28.5s10 26.5 10 40.5c0 16 -5 29 -15 39s-23.667 15 -41 15c-26 0 -48.167 -10.5 -66.5 -31.5s-27.5 -46.167 -27.5 -75.5c0 -20.667 5.5 -39.834 16.5 -57.501
s34.833 -41.167 71.5 -70.5c44.667 -35.333 74.167 -65.666 88.5 -90.999s21.5 -53.333 21.5 -84c0 -41.333 -10.667 -77.833 -32 -109.5s-49.333 -50.834 -84 -57.501c0 -59.333 -19.167 -105.833 -57.5 -139.5s-91.5 -50.5 -159.5 -50.5
c-53.333 0 -94.166 11.167 -122.499 33.5s-42.5 54.833 -42.5 97.5c0 36 9.16699 65.5 27.5 88.5s41.166 34.5 68.499 34.5c14 0 26.833 -3.5 38.5 -10.5s25.167 -20.167 40.5 -39.5c-29.333 -2.66699 -50.166 -9.66699 -62.499 -21s-18.5 -29.666 -18.5 -54.999
c0 -27.333 6.5 -47.166 19.5 -59.499s33.833 -18.5 62.5 -18.5c26 0 45.833 8.16699 59.5 24.5s20.5 40.5 20.5 72.5c0 30 -6.33301 57.5 -19 82.5s-39 54.833 -79 89.5c-34 30 -56.167 54.333 -66.5 73s-15.5 38.667 -15.5 60c0 30 9.33301 57.333 28 82s44 43 76 55
c-2 7.33301 -3.33301 14.5 -4 21.5s-1 13.833 -1 20.5z" />
    <glyph glyph-name="dieresis" unicode="&#xa8;" horiz-adv-x="392" 
d="M358 634c0 -16.667 -6 -31 -18 -43s-26.333 -18 -43 -18s-31 6 -43 18s-18 26.333 -18 43s6 31 18 43s26.333 18 43 18s31 -6 43 -18s18 -26.333 18 -43zM178 634c0 -16.667 -6 -31 -18 -43s-26.333 -18 -43 -18s-31 6 -43 18s-18 26.333 -18 43s6 31 18 43
s26.333 18 43 18s31 -6 43 -18s18 -26.333 18 -43z" />
    <glyph glyph-name="copyright" unicode="&#xa9;" horiz-adv-x="587" 
d="M293 587c66.667 0 123.667 -24.833 171 -74.5s71 -109.834 71 -180.501s-23.667 -131 -71 -181s-104.333 -75 -171 -75s-123.667 24.833 -171 74.5s-71 109.834 -71 180.501s23.667 131 71 181s104.333 75 171 75zM492 331c0 59.333 -19.333 109.666 -58 150.999
s-85 62 -139 62c-54.667 0 -101.334 -20.667 -140.001 -62s-58 -91.666 -58 -150.999s19.333 -109.666 58 -150.999s85.334 -62 140.001 -62c54 0 100.333 20.667 139 62s58 91.666 58 150.999zM298 182c-40 0 -74.335 15.168 -103.002 45.501s-43 66.5 -43 108.5
s14.333 77.167 43 105.5s63.667 42.5 105 42.5c30.667 -1.33301 57.334 -10.833 80.001 -28.5s37.334 -39.834 44.001 -66.501l-47 -18c-6.66699 23.333 -16 39.333 -28 48s-27.667 13 -47 13c-28.667 0 -51.667 -8.16699 -69 -24.5s-26 -38.5 -26 -66.5
c0 -30 9.16699 -55.333 27.5 -76s40.833 -31 67.5 -31c15.333 0 29.833 4 43.5 12s24.167 19 31.5 33l44 -29c-14 -21.333 -32 -38 -54 -50s-45 -18 -69 -18z" />
    <glyph glyph-name="ordfeminine" unicode="&#xaa;" horiz-adv-x="345" 
d="M121 550c0 -12.667 2.83203 -22.168 8.49902 -28.501s14.167 -9.5 25.5 -9.5c6 0 11.833 2.16699 17.5 6.5s11.834 10.833 18.501 19.5l37 161c-4 3.33301 -8.33301 5.83301 -13 7.5s-10 2.5 -16 2.5c-20 0 -38 -16.667 -54 -50s-24 -69.666 -24 -108.999z
M233.999 724.999l2.99805 15h83l-42 -184c0 -0.666992 -0.5 -3.16699 -1.5 -7.5s-1.5 -7.83301 -1.5 -10.5c0 -6.66699 1.83301 -11.667 5.5 -15s8.83398 -5 15.501 -5c4 0 7 0.166992 9 0.5s4 0.833008 6 1.5c-6 -17.333 -13.5 -30 -22.5 -38s-21.5 -12 -37.5 -12
s-28.833 3.33301 -38.5 10s-16.167 16.667 -19.5 30c-11.333 -14 -23.666 -24.667 -36.999 -32s-27.333 -11 -42 -11c-22.667 0 -40.167 6 -52.5 18s-18.5 28.667 -18.5 50c0 62 13.333 111.5 40 148.5s64 55.5 112 55.5c6 0 12.5 -1.33301 19.5 -4s13.5 -6 19.5 -10z" />
    <glyph glyph-name="guillemotleft" unicode="&#xab;" horiz-adv-x="589" 
d="M230 238l9 41l307 150l-10 -55l-241 -120l194 -96l-12 -57zM20 238l9 41l307 150l-10 -55l-241 -120l194 -96l-12 -57z" />
    <glyph glyph-name="logicalnot" unicode="&#xac;" horiz-adv-x="444" 
d="M19 222l18 79h362l-51 -250h-113l35 171h-251z" />
    <glyph glyph-name="uni00AD" unicode="&#xad;" horiz-adv-x="290" 
d="M19 222l18 79h200l-17 -79h-201z" />
    <glyph glyph-name="registered" unicode="&#xae;" horiz-adv-x="553" 
d="M276 590c66.667 0 123.667 -24.833 171 -74.5s71 -109.834 71 -180.501s-23.667 -131 -71 -181s-104.333 -75 -171 -75s-123.667 24.833 -171 74.5s-71 109.834 -71 180.501s23.667 131 71 181s104.333 75 171 75zM475 334c0 59.333 -19.333 109.666 -58 150.999
s-85 62 -139 62c-54.667 0 -101.334 -20.667 -140.001 -62s-58 -91.666 -58 -150.999s19.333 -109.666 58 -150.999s85.334 -62 140.001 -62c54 0 100.333 20.667 139 62s58 91.666 58 150.999zM222 315l-0.000976562 -123h-46l1 291h94c36.667 0 65.834 -7.5 87.501 -22.5
s32.5 -35.5 32.5 -61.5c0 -18 -5.33301 -34 -16 -48s-25 -23.667 -43 -29l65 -125l-47 -7l-62 125h-66zM344.999 397c0 14.667 -6.5 25.833 -19.5 33.5s-30.833 11.5 -53.5 11.5h-50v-89h52c22.667 0 40.167 3.83301 52.5 11.5s18.5 18.5 18.5 32.5z" />
    <glyph glyph-name="degree" unicode="&#xb0;" horiz-adv-x="314" 
d="M133 374c-34 0 -58.5 8.5 -73.5 25.5s-22.5 46.5 -22.5 88.5c0 62 15 113.167 45 153.5s69 60.5 117 60.5c28 0 48.667 -9.33301 62 -28s20 -47 20 -85c0 -53.333 -14.333 -102.5 -43 -147.5s-63.667 -67.5 -105 -67.5zM221 604c0 22.667 -2.00098 38.833 -6.00098 48.5
s-10.333 14.5 -19 14.5c-18 0 -35.833 -14.333 -53.5 -43s-28.167 -63.667 -31.5 -105c-0.666992 -8 -1.16699 -15.5 -1.5 -22.5s-0.5 -13.833 -0.5 -20.5c0 -21.333 2.33301 -37.5 7 -48.5s11.334 -16.5 20.001 -16.5c24.667 0 45 18.5 61 55.5s24 82.833 24 137.5z" />
    <glyph glyph-name="plusminus" unicode="&#xb1;" horiz-adv-x="533" 
d="M235 421l27 122h113l-27 -122h127l-23 -112h-128l-27 -123h-113l27 123h-128l24 112h128zM31 68l18 79h367l-17 -79h-368z" />
    <glyph glyph-name="twosuperior" unicode="&#xb2;" horiz-adv-x="300" 
d="M152 490c-26.667 -20 -45.332 -35 -55.999 -45s-19 -19.667 -25 -29h4c6.66699 0 13.667 -0.333008 21 -1s18.666 -2 33.999 -4c16 -2 28 -3.33301 36 -4s15.333 -1 22 -1c12 0 22 1.5 30 4.5s23 14.167 45 33.5c0 -23.333 -0.5 -39.833 -1.5 -49.5
s-2.83301 -17.834 -5.5 -24.501c-4.66699 -10.667 -11.834 -18.5 -21.501 -23.5s-23.167 -7.5 -40.5 -7.5c-11.333 0 -22.166 0.666992 -32.499 2s-24.166 4 -41.499 8c-16.667 4 -29.834 6.66699 -39.501 8s-19.5 2 -29.5 2c-6 0 -15.167 -2.66699 -27.5 -8l-18.5 -8
c-0.666992 4.66699 -1.16699 8.33398 -1.5 11.001s-0.5 5 -0.5 7c0 20 5.5 39.667 16.5 59s34.833 46.666 71.5 81.999c42 40 69.667 72.333 83 97s20 50.334 20 77.001c0 12 -3.5 22.333 -10.5 31s-15.167 13 -24.5 13c-16.667 0 -28.667 -3.16699 -36 -9.5
s-11 -17.5 -11 -33.5c0 -8.66699 2 -16.667 6 -24s9.33301 -11.666 16 -12.999c-7.33301 -6 -14.833 -10.667 -22.5 -14s-15.167 -5 -22.5 -5c-12.667 0 -22.667 4.33301 -30 13s-11 20.667 -11 36c0 23.333 10.667 42.333 32 57s50.666 22 87.999 22
c36.667 0 64.167 -7.16699 82.5 -21.5s27.5 -35.833 27.5 -64.5c0 -27.333 -8.16699 -53.333 -24.5 -78s-50.166 -56.334 -101.499 -95.001z" />
    <glyph glyph-name="threesuperior" unicode="&#xb3;" horiz-adv-x="316" 
d="M13 429c0 26 5.99707 46.1641 17.9971 60.4971s29 21.5 51 21.5c13.333 0 23.833 -2.16699 31.5 -6.5s12.834 -11.166 15.501 -20.499c-17.333 -1.33301 -30.166 -6.83301 -38.499 -16.5s-12.5 -25.5 -12.5 -47.5c0 -15.333 3.83301 -26.5 11.5 -33.5
s20.834 -10.5 39.501 -10.5c20 0 36.833 9.33301 50.5 28s20.5 40.667 20.5 66c0 23.333 -6.66699 44.166 -20 62.499s-31.666 31.166 -54.999 38.499c29.333 6.66699 53.166 20.5 71.499 41.5s27.5 42.833 27.5 65.5c0 12.667 -3.33301 22.834 -10 30.501
s-15.667 11.5 -27 11.5c-17.333 0 -30.333 -3.5 -39 -10.5s-13 -17.833 -13 -32.5c0 -8.66699 2 -16.667 6 -24s9.33301 -11.666 16 -12.999c-7.33301 -6 -14.833 -10.667 -22.5 -14s-15.167 -5 -22.5 -5c-12.667 0 -22.667 4.33301 -30 13s-11 20.667 -11 36
c0 22.667 11.333 41.5 34 56.5s53 22.5 91 22.5c30.667 0 55.334 -7.33301 74.001 -22s28 -33.667 28 -57c0 -20 -7 -38.833 -21 -56.5s-33.333 -32.167 -58 -43.5c23.333 -6.66699 41.166 -17.667 53.499 -33s18.5 -33.666 18.5 -54.999
c0 -35.333 -14.833 -67.5 -44.5 -96.5s-64.5 -43.5 -104.5 -43.5c-42 0 -74 7.33301 -96 22s-33 36.334 -33 65.001z" />
    <glyph glyph-name="acute" unicode="&#xb4;" horiz-adv-x="316" 
d="M316 750l-121 -189h-75l91 189h105z" />
    <glyph glyph-name="paragraph" unicode="&#xb6;" horiz-adv-x="542" 
d="M422 619c0 14 -1.83301 26.1689 -5.5 36.502s-9.5 19.166 -17.5 26.499l-72 -343h6c6.66699 0 13 0.333008 19 1s11.333 1.66699 16 3l48 227c2 9.33301 3.5 18.166 4.5 26.499s1.5 15.833 1.5 22.5zM359 299.002c-5.33301 -2 -11 -3.66797 -17 -5.00098l-26 -6l-77 -369
h-94l77 369c-46 9.33301 -82.5 32.5 -109.5 69.5s-40.5 81.5 -40.5 133.5c0 72 23.333 133 70 183s106.667 75 180 75c58.667 0 104.167 -14.167 136.5 -42.5s48.5 -69.166 48.5 -122.499c0 -10 -0.666992 -21 -2 -33s-3.33301 -25 -6 -39l-127 -593h-94z" />
    <glyph glyph-name="periodcentered" unicode="&#xb7;" horiz-adv-x="434" 
d="M313 267c0 -26.667 -9.5 -49.334 -28.5 -68.001s-41.833 -28 -68.5 -28s-49.334 9.33301 -68.001 28s-28 41.334 -28 68.001s9.33301 49.5 28 68.5s41.334 28.5 68.001 28.5s49.5 -9.5 68.5 -28.5s28.5 -41.833 28.5 -68.5z" />
    <glyph glyph-name="cedilla" unicode="&#xb8;" horiz-adv-x="227" 
d="M112 -66c10.667 2.66699 20.3359 4.66699 29.0029 6s16.667 2 24 2c20 0 35.333 -4.33301 46 -13s16 -21 16 -37c0 -32 -11.667 -58.333 -35 -79s-51.666 -31 -84.999 -31c-18.667 0 -35.667 1.83301 -51 5.5s-34 11.167 -56 22.5c6.66699 11.333 13.167 19.5 19.5 24.5
s13.166 7.5 20.499 7.5c8 0 15.167 -1 21.5 -3s14.166 -6 23.499 -12c6.66699 -5.33301 12 -8.66602 16 -9.99902s8.33301 -2 13 -2c8 0 15 4.16699 21 12.5s9 18.166 9 29.499c0 10.667 -3.5 19.334 -10.5 26.001s-16.5 10 -28.5 10
c-8.66699 0 -16.834 -0.833008 -24.501 -2.5s-16.834 -4.83398 -27.501 -9.50098l53 148l35 -23z" />
    <glyph glyph-name="onesuperior" unicode="&#xb9;" horiz-adv-x="217" 
d="M51 707c26 0 50.5 3.5 73.5 10.5s47.5 17.5 73.5 31.5l-92 -404h-84l77 337h-55z" />
    <glyph glyph-name="ordmasculine" unicode="&#xba;" horiz-adv-x="329" 
d="M204 649c0 9.33301 4.16797 18.502 12.501 27.502s17.166 13.5 26.499 13.5c7.33301 0 12.333 -1.33301 15 -4s4 -7.66699 4 -15c7.33301 4 14.333 10 21 18s10.667 12.667 12 14l6 -11c-4.66699 -15.333 -10.167 -27.5 -16.5 -36.5s-13.833 -15.833 -22.5 -20.5
c-2.66699 -49.333 -16.667 -89.833 -42 -121.5s-54.333 -47.5 -87 -47.5c-32 0 -55.167 7 -69.5 21s-21.5 36.667 -21.5 68c0 58.667 14 105 42 139s64.667 51 110 51c14.667 0 27.5 -2.33301 38.5 -7s16.5 -10.334 16.5 -17.001c0 -6 -2 -11 -6 -15
s-10.667 -7.66699 -20 -11c-2.66699 6.66699 -6.16699 11.5 -10.5 14.5s-9.5 4.5 -15.5 4.5c-22.667 0 -41.334 -16.667 -56.001 -50s-22 -68 -22 -104c0 -14 3.33301 -24.333 10 -31s17 -10 31 -10c14.667 0 27.167 9.66699 37.5 29s17.5 45.666 21.5 78.999
c-5.33301 1.33301 -9.16602 3.83301 -11.499 7.5s-3.5 8.5 -3.5 14.5z" />
    <glyph glyph-name="guillemotright" unicode="&#xbb;" horiz-adv-x="586" 
d="M251 158l240 96l-194 120l9 55l246 -150l-11 -54l-304 -124zM29 158l240 96l-194 120l9 55l246 -150l-11 -54l-304 -124z" />
    <glyph glyph-name="onequarter" unicode="&#xbc;" horiz-adv-x="689" 
d="M139 -165l264 915h72l-264 -915h-72zM99 587c26 0 50.5 3.5 73.5 10.5s47.5 17.5 73.5 31.5l-92 -404h-84l77 337h-55zM564 1h-83l34 149h-141c2.66699 6.66699 6 14.5 10 23.5s11 23.5 21 43.5c21.333 42 35.5 74 42.5 96s10.5 42 10.5 60c0 6 -0.333008 11.833 -1 17.5
s-1.66699 10.834 -3 15.501c19.333 0 35 -4.66699 47 -14s18 -21.666 18 -36.999c0 -30.667 -13.5 -64.834 -40.5 -102.501s-41.833 -58.834 -44.5 -63.501h90l47 206l86 11l-50 -217h38l-12 -39h-35z" />
    <glyph glyph-name="onehalf" unicode="&#xbd;" horiz-adv-x="675" 
d="M134 -165l264 915h72l-264 -915h-72zM99 587c26 0 50.5 3.5 73.5 10.5s47.5 17.5 73.5 31.5l-92 -404h-84l77 337h-55zM515 150c-26.667 -20 -45.332 -35 -55.999 -45s-19 -19.667 -25 -29h4c6.66699 0 13.667 -0.333008 21 -1s18.666 -2 33.999 -4
c16 -2 28 -3.33301 36 -4s15.333 -1 22 -1c12 0 22 1.5 30 4.5s23 14.167 45 33.5c0 -23.333 -0.5 -39.833 -1.5 -49.5s-2.83301 -17.834 -5.5 -24.501c-4.66699 -10.667 -11.834 -18.5 -21.501 -23.5s-23.167 -7.5 -40.5 -7.5c-11.333 0 -22.166 0.666992 -32.499 2
s-24.166 4 -41.499 8c-16.667 4 -29.834 6.66699 -39.501 8s-19.5 2 -29.5 2c-6 0 -15.167 -2.66699 -27.5 -8l-18.5 -8c-0.666992 4.66699 -1.16699 8.33398 -1.5 11.001s-0.5 5 -0.5 7c0 20 5.5 39.667 16.5 59s34.833 46.666 71.5 81.999c42 40 69.667 72.333 83 97
s20 50.334 20 77.001c0 12 -3.5 22.333 -10.5 31s-15.167 13 -24.5 13c-16.667 0 -28.667 -3.16699 -36 -9.5s-11 -17.5 -11 -33.5c0 -8.66699 2 -16.667 6 -24s9.33301 -11.666 16 -12.999c-7.33301 -6 -14.833 -10.667 -22.5 -14s-15.167 -5 -22.5 -5
c-12.667 0 -22.667 4.33301 -30 13s-11 20.667 -11 36c0 23.333 10.667 42.333 32 57s50.666 22 87.999 22c36.667 0 64.167 -7.16699 82.5 -21.5s27.5 -35.833 27.5 -64.5c0 -27.333 -8.16699 -53.333 -24.5 -78s-50.166 -56.334 -101.499 -95.001z" />
    <glyph glyph-name="threequarters" unicode="&#xbe;" horiz-adv-x="819" 
d="M255 -165l264 915h72l-264 -915h-72zM683 1h-83l34 149h-141c2.66699 6.66699 6 14.5 10 23.5s11 23.5 21 43.5c21.333 42 35.5 74 42.5 96s10.5 42 10.5 60c0 6 -0.333008 11.833 -1 17.5s-1.66699 10.834 -3 15.501c19.333 0 35 -4.66699 47 -14s18 -21.666 18 -36.999
c0 -30.667 -13.5 -64.834 -40.5 -102.501s-41.833 -58.834 -44.5 -63.501h90l47 206l86 11l-50 -217h38l-12 -39h-35zM61 309c0 26 5.99707 46.1641 17.9971 60.4971s29 21.5 51 21.5c13.333 0 23.833 -2.16699 31.5 -6.5s12.834 -11.166 15.501 -20.499
c-17.333 -1.33301 -30.166 -6.83301 -38.499 -16.5s-12.5 -25.5 -12.5 -47.5c0 -15.333 3.83301 -26.5 11.5 -33.5s20.834 -10.5 39.501 -10.5c20 0 36.833 9.33301 50.5 28s20.5 40.667 20.5 66c0 23.333 -6.66699 44.166 -20 62.499s-31.666 31.166 -54.999 38.499
c29.333 6.66699 53.166 20.5 71.499 41.5s27.5 42.833 27.5 65.5c0 12.667 -3.33301 22.834 -10 30.501s-15.667 11.5 -27 11.5c-17.333 0 -30.333 -3.5 -39 -10.5s-13 -17.833 -13 -32.5c0 -8.66699 2 -16.667 6 -24s9.33301 -11.666 16 -12.999
c-7.33301 -6 -14.833 -10.667 -22.5 -14s-15.167 -5 -22.5 -5c-12.667 0 -22.667 4.33301 -30 13s-11 20.667 -11 36c0 22.667 11.333 41.5 34 56.5s53 22.5 91 22.5c30.667 0 55.334 -7.33301 74.001 -22s28 -33.667 28 -57c0 -20 -7 -38.833 -21 -56.5
s-33.333 -32.167 -58 -43.5c23.333 -6.66699 41.166 -17.667 53.499 -33s18.5 -33.666 18.5 -54.999c0 -35.333 -14.833 -67.5 -44.5 -96.5s-64.5 -43.5 -104.5 -43.5c-42 0 -74 7.33301 -96 22s-33 36.334 -33 65.001z" />
    <glyph glyph-name="questiondown" unicode="&#xbf;" horiz-adv-x="439" 
d="M390 372c0 -22 -7.83301 -40.667 -23.5 -56s-34.5 -23 -56.5 -23s-40.667 7.66699 -56 23s-23 34 -23 56c0 22.667 7.66699 41.834 23 57.501s34 23.5 56 23.5s40.833 -7.83301 56.5 -23.5s23.5 -34.834 23.5 -57.501zM383 -86
c0 -44.667 -19.167 -82.6689 -57.5 -114.002s-89.166 -47 -152.499 -47c-53.333 0 -93.5 10 -120.5 30s-40.5 49.667 -40.5 89c0 38 7.66699 71.667 23 101s48 65 98 107c38 31.333 65.167 57 81.5 77s29.166 41.333 38.499 64h66c0 -24.667 -5.66699 -48.5 -17 -71.5
s-35 -54.5 -71 -94.5c-38.667 -41.333 -64 -74.666 -76 -99.999s-18 -51.666 -18 -78.999c0 -22 5 -39 15 -51s23.333 -18 40 -18c21.333 0 40 8 56 24s24 35.667 24 59c0 15.333 -3.5 29.333 -10.5 42s-16.167 20.667 -27.5 24c8 13.333 18.5 23.666 31.5 30.999
s26.833 11 41.5 11c22 0 40.167 -7.66699 54.5 -23s21.5 -35.666 21.5 -60.999z" />
    <glyph glyph-name="Agrave" unicode="&#xc0;" horiz-adv-x="668" 
d="M542 1000l29 -189h-75l-59 189h105zM535 679c-27.333 -14.667 -56.333 -42.167 -87 -82.5s-61.667 -91.833 -93 -154.5c24 -4.66699 46.167 -10 66.5 -16s38.833 -12.333 55.5 -19zM613 750c14 0 27.998 -1.17285 41.998 -3.50586s26.333 -5.83301 37 -10.5l-157 -736
h-144l77 363c-23.333 10.667 -45.333 18.834 -66 24.501s-43.334 9.5 -68.001 11.5c-38 -82.667 -69.167 -166.667 -93.5 -252s-36.5 -153.666 -36.5 -204.999c0 -12 1.16699 -22.5 3.5 -31.5s5.83301 -17.167 10.5 -24.5c-50.667 0 -85.667 8.66699 -105 26s-29 44 -29 80
c0 44.667 13.5 104.334 40.5 179.001s62.5 150.667 106.5 228c-34 -2 -60.5 -7.33301 -79.5 -16s-31.5 -20.667 -37.5 -36c2.66699 0 5.5 -3.5 8.5 -10.5s4.5 -13.833 4.5 -20.5c0 -11.333 -5.33301 -20.666 -16 -27.999s-24 -11 -40 -11
c-18.667 0 -33.667 5.16699 -45 15.5s-17 24.5 -17 42.5c0 34.667 19.5 63.834 58.5 87.501s87.5 35.5 145.5 35.5c6.66699 0 14.334 -0.166992 23.001 -0.5s18.334 -1.16602 29.001 -2.49902c58.667 92.667 118.334 165 179.001 217s117 78 169 78z" />
    <glyph glyph-name="Aacute" unicode="&#xc1;" horiz-adv-x="668" 
d="M682 1000l-121 -189h-75l91 189h105zM535 679c-27.333 -14.667 -56.333 -42.167 -87 -82.5s-61.667 -91.833 -93 -154.5c24 -4.66699 46.167 -10 66.5 -16s38.833 -12.333 55.5 -19zM613 750c14 0 27.998 -1.17285 41.998 -3.50586s26.333 -5.83301 37 -10.5l-157 -736
h-144l77 363c-23.333 10.667 -45.333 18.834 -66 24.501s-43.334 9.5 -68.001 11.5c-38 -82.667 -69.167 -166.667 -93.5 -252s-36.5 -153.666 -36.5 -204.999c0 -12 1.16699 -22.5 3.5 -31.5s5.83301 -17.167 10.5 -24.5c-50.667 0 -85.667 8.66699 -105 26s-29 44 -29 80
c0 44.667 13.5 104.334 40.5 179.001s62.5 150.667 106.5 228c-34 -2 -60.5 -7.33301 -79.5 -16s-31.5 -20.667 -37.5 -36c2.66699 0 5.5 -3.5 8.5 -10.5s4.5 -13.833 4.5 -20.5c0 -11.333 -5.33301 -20.666 -16 -27.999s-24 -11 -40 -11
c-18.667 0 -33.667 5.16699 -45 15.5s-17 24.5 -17 42.5c0 34.667 19.5 63.834 58.5 87.501s87.5 35.5 145.5 35.5c6.66699 0 14.334 -0.166992 23.001 -0.5s18.334 -1.16602 29.001 -2.49902c58.667 92.667 118.334 165 179.001 217s117 78 169 78z" />
    <glyph glyph-name="Acircumflex" unicode="&#xc2;" horiz-adv-x="668" 
d="M619 1000h21l60 -189h-32l-60 80l-157 -80h-44zM535 679c-27.333 -14.667 -56.333 -42.167 -87 -82.5s-61.667 -91.833 -93 -154.5c24 -4.66699 46.167 -10 66.5 -16s38.833 -12.333 55.5 -19zM613 750c14 0 27.998 -1.17285 41.998 -3.50586s26.333 -5.83301 37 -10.5
l-157 -736h-144l77 363c-23.333 10.667 -45.333 18.834 -66 24.501s-43.334 9.5 -68.001 11.5c-38 -82.667 -69.167 -166.667 -93.5 -252s-36.5 -153.666 -36.5 -204.999c0 -12 1.16699 -22.5 3.5 -31.5s5.83301 -17.167 10.5 -24.5c-50.667 0 -85.667 8.66699 -105 26
s-29 44 -29 80c0 44.667 13.5 104.334 40.5 179.001s62.5 150.667 106.5 228c-34 -2 -60.5 -7.33301 -79.5 -16s-31.5 -20.667 -37.5 -36c2.66699 0 5.5 -3.5 8.5 -10.5s4.5 -13.833 4.5 -20.5c0 -11.333 -5.33301 -20.666 -16 -27.999s-24 -11 -40 -11
c-18.667 0 -33.667 5.16699 -45 15.5s-17 24.5 -17 42.5c0 34.667 19.5 63.834 58.5 87.501s87.5 35.5 145.5 35.5c6.66699 0 14.334 -0.166992 23.001 -0.5s18.334 -1.16602 29.001 -2.49902c58.667 92.667 118.334 165 179.001 217s117 78 169 78z" />
    <glyph glyph-name="Atilde" unicode="&#xc3;" horiz-adv-x="668" 
d="M668 912c19.333 -6 33.832 -10.001 43.499 -12.001s19.5 -3 29.5 -3c12.667 0 24.667 2 36 6s20.333 9.66699 27 17l6 -1c-6 -25.333 -25.333 -48.333 -58 -69s-67 -31 -103 -31c-12 0 -24.5 1.33301 -37.5 4s-31.167 8 -54.5 16
c-20.667 6.66699 -36.167 11.167 -46.5 13.5s-20.166 3.5 -29.499 3.5c-12.667 0 -24.5 -2.16699 -35.5 -6.5s-21.167 -10.833 -30.5 -19.5l-6 2c16 32 38.333 56.333 67 73s62 25 100 25c13.333 0 26.5 -1.16699 39.5 -3.5s30.5 -7.16602 52.5 -14.499zM534.999 678.999
c-27.333 -14.667 -56.333 -42.167 -87 -82.5s-61.667 -91.833 -93 -154.5c24 -4.66699 46.167 -10 66.5 -16s38.833 -12.333 55.5 -19zM612.999 749.999c14 0 27.998 -1.17285 41.998 -3.50586s26.333 -5.83301 37 -10.5l-157 -736h-144l77 363
c-23.333 10.667 -45.333 18.834 -66 24.501s-43.334 9.5 -68.001 11.5c-38 -82.667 -69.167 -166.667 -93.5 -252s-36.5 -153.666 -36.5 -204.999c0 -12 1.16699 -22.5 3.5 -31.5s5.83301 -17.167 10.5 -24.5c-50.667 0 -85.667 8.66699 -105 26s-29 44 -29 80
c0 44.667 13.5 104.334 40.5 179.001s62.5 150.667 106.5 228c-34 -2 -60.5 -7.33301 -79.5 -16s-31.5 -20.667 -37.5 -36c2.66699 0 5.5 -3.5 8.5 -10.5s4.5 -13.833 4.5 -20.5c0 -11.333 -5.33301 -20.666 -16 -27.999s-24 -11 -40 -11
c-18.667 0 -33.667 5.16699 -45 15.5s-17 24.5 -17 42.5c0 34.667 19.5 63.834 58.5 87.501s87.5 35.5 145.5 35.5c6.66699 0 14.334 -0.166992 23.001 -0.5s18.334 -1.16602 29.001 -2.49902c58.667 92.667 118.334 165 179.001 217s117 78 169 78z" />
    <glyph glyph-name="Adieresis" unicode="&#xc4;" horiz-adv-x="668" 
d="M732 884c0 -16.667 -6 -31 -18 -43s-26.333 -18 -43 -18s-31 6 -43 18s-18 26.333 -18 43s6 31 18 43s26.333 18 43 18s31 -6 43 -18s18 -26.333 18 -43zM552 884c0 -16.667 -6 -31 -18 -43s-26.333 -18 -43 -18s-31 6 -43 18s-18 26.333 -18 43s6 31 18 43
s26.333 18 43 18s31 -6 43 -18s18 -26.333 18 -43zM535 679c-27.333 -14.667 -56.333 -42.167 -87 -82.5s-61.667 -91.833 -93 -154.5c24 -4.66699 46.167 -10 66.5 -16s38.833 -12.333 55.5 -19zM613 750c14 0 27.998 -1.17285 41.998 -3.50586s26.333 -5.83301 37 -10.5
l-157 -736h-144l77 363c-23.333 10.667 -45.333 18.834 -66 24.501s-43.334 9.5 -68.001 11.5c-38 -82.667 -69.167 -166.667 -93.5 -252s-36.5 -153.666 -36.5 -204.999c0 -12 1.16699 -22.5 3.5 -31.5s5.83301 -17.167 10.5 -24.5c-50.667 0 -85.667 8.66699 -105 26
s-29 44 -29 80c0 44.667 13.5 104.334 40.5 179.001s62.5 150.667 106.5 228c-34 -2 -60.5 -7.33301 -79.5 -16s-31.5 -20.667 -37.5 -36c2.66699 0 5.5 -3.5 8.5 -10.5s4.5 -13.833 4.5 -20.5c0 -11.333 -5.33301 -20.666 -16 -27.999s-24 -11 -40 -11
c-18.667 0 -33.667 5.16699 -45 15.5s-17 24.5 -17 42.5c0 34.667 19.5 63.834 58.5 87.501s87.5 35.5 145.5 35.5c6.66699 0 14.334 -0.166992 23.001 -0.5s18.334 -1.16602 29.001 -2.49902c58.667 92.667 118.334 165 179.001 217s117 78 169 78z" />
    <glyph glyph-name="Aring" unicode="&#xc5;" horiz-adv-x="668" 
d="M555 802c-20.667 0 -37.502 6.66699 -50.502 20s-19.5 30 -19.5 50c0 24 7.83301 45.167 23.5 63.5s36.167 27.5 61.5 27.5c22.667 0 40.334 -6.83301 53.001 -20.5s19 -32.5 19 -56.5c0 -26 -7.66699 -46.5 -23 -61.5s-36.666 -22.5 -63.999 -22.5zM524.998 874
c0 -12 2.83203 -21.167 8.49902 -27.5s14.167 -9.5 25.5 -9.5c14.667 0 26 4 34 12s12 19.333 12 34c0 17.333 -2.66699 29.5 -8 36.5s-13.666 10.5 -24.999 10.5c-14.667 0 -26.167 -5.16699 -34.5 -15.5s-12.5 -23.833 -12.5 -40.5zM534.997 679
c-27.333 -14.667 -56.333 -42.167 -87 -82.5s-61.667 -91.833 -93 -154.5c24 -4.66699 46.167 -10 66.5 -16s38.833 -12.333 55.5 -19zM612.997 750c14 0 27.998 -1.17285 41.998 -3.50586s26.333 -5.83301 37 -10.5l-157 -736h-144l77 363
c-23.333 10.667 -45.333 18.834 -66 24.501s-43.334 9.5 -68.001 11.5c-38 -82.667 -69.167 -166.667 -93.5 -252s-36.5 -153.666 -36.5 -204.999c0 -12 1.16699 -22.5 3.5 -31.5s5.83301 -17.167 10.5 -24.5c-50.667 0 -85.667 8.66699 -105 26s-29 44 -29 80
c0 44.667 13.5 104.334 40.5 179.001s62.5 150.667 106.5 228c-34 -2 -60.5 -7.33301 -79.5 -16s-31.5 -20.667 -37.5 -36c2.66699 0 5.5 -3.5 8.5 -10.5s4.5 -13.833 4.5 -20.5c0 -11.333 -5.33301 -20.666 -16 -27.999s-24 -11 -40 -11
c-18.667 0 -33.667 5.16699 -45 15.5s-17 24.5 -17 42.5c0 34.667 19.5 63.834 58.5 87.501s87.5 35.5 145.5 35.5c6.66699 0 14.334 -0.166992 23.001 -0.5s18.334 -1.16602 29.001 -2.49902c58.667 92.667 118.334 165 179.001 217s117 78 169 78z" />
    <glyph glyph-name="AE" unicode="&#xc6;" horiz-adv-x="764" 
d="M535 679c-28 -15.333 -57.667 -43.3311 -89 -83.998s-62.333 -92 -93 -154c23.333 -4.66699 45.333 -9.83398 66 -15.501s40 -11.834 58 -18.501zM557 106.002h224.005l-21 -106h-369l77 363c-25.333 11.333 -48.833 19.833 -70.5 25.5s-43.167 9.16699 -64.5 10.5
c-37.333 -81.333 -68.166 -164.666 -92.499 -249.999s-36.5 -154 -36.5 -206c0 -12.667 0.833008 -22.834 2.5 -30.501s4.5 -14.167 8.5 -19.5c1.33301 -1.33301 2.16602 -2.5 2.49902 -3.5s0.5 -1.83301 0.5 -2.5c-31.333 2 -53.333 4.5 -66 7.5s-23.334 7.5 -32.001 13.5
c-12 8 -21 19.5 -27 34.5s-9 33.833 -9 56.5c0 43.333 13.667 102 41 176s62.666 148.667 105.999 224c-35.333 -2.66699 -62.166 -8 -80.499 -16s-30.5 -20 -36.5 -36c2.66699 0 5.5 -3.5 8.5 -10.5s4.5 -13.833 4.5 -20.5c0 -12 -5.33301 -21.5 -16 -28.5
s-25.667 -10.5 -45 -10.5c-17.333 0 -31.166 5.5 -41.499 16.5s-15.5 26.5 -15.5 46.5c0 30.667 19.667 57.5 59 80.5s84.666 34.5 135.999 34.5c8.66699 0 18 -0.333008 28 -1l31 -2c58.667 94.667 118.5 168.167 179.5 220.5s117.5 78.5 169.5 78.5
c9.33301 0 19.333 -0.5 30 -1.5s27 -3.5 49 -7.5c26 -4.66699 46.167 -7.66699 60.5 -9s27.833 -2 40.5 -2c19.333 0 38.666 1.5 57.999 4.5s39 7.83301 59 14.5c-0.666992 -1.33301 -2.83398 -8.5 -6.50098 -21.5s-7.5 -23.167 -11.5 -30.5c-4 -10.667 -9 -19.5 -15 -26.5
s-12.667 -12.833 -20 -17.5s-15.5 -8.16699 -24.5 -10.5s-18.833 -3.5 -29.5 -3.5c-14.667 0 -29.334 1.5 -44.001 4.5s-41.334 12.167 -80.001 27.5l-54 -253h155l-20 -74h-151z" />
    <glyph glyph-name="Ccedilla" unicode="&#xc7;" horiz-adv-x="497" 
d="M247 -66c10.667 2.66699 20.3369 4.66797 29.0039 6.00098s16.667 2 24 2c20 0 35.333 -4.33301 46 -13s16 -21 16 -37c0 -32 -11.667 -58.333 -35 -79s-51.666 -31 -84.999 -31c-18.667 0 -35.667 1.83301 -51 5.5s-34 11.167 -56 22.5
c6.66699 11.333 13.167 19.5 19.5 24.5s13.166 7.5 20.499 7.5c8 0 15.167 -1 21.5 -3s14.166 -6 23.499 -12c6.66699 -5.33301 12 -8.66602 16 -9.99902s8.33301 -2 13 -2c8 0 15 4.16699 21 12.5s9 18.166 9 29.499c0 10.667 -3.5 19.334 -10.5 26.001s-16.5 10 -28.5 10
c-8.66699 0 -16.834 -0.833008 -24.501 -2.5s-16.834 -4.83398 -27.501 -9.50098l37 103c-72.667 2 -125.167 22.5 -157.5 61.5s-48.5 100.5 -48.5 184.5c0 55.333 7 113 21 173s33.333 113.667 58 161c32 60.667 70.833 106.834 116.5 138.501s96.834 47.5 153.501 47.5
c53.333 0 94.5 -11.5 123.5 -34.5s43.5 -56.167 43.5 -99.5c0 -30 -6 -52.833 -18 -68.5s-29.333 -23.5 -52 -23.5c-11.333 0 -21.833 2.16699 -31.5 6.5s-18.167 10.833 -25.5 19.5c12 6 22.667 18.167 32 36.5s14 36.833 14 55.5c0 19.333 -5.33301 34.333 -16 45
s-25.667 16 -45 16c-29.333 0 -58.333 -17.833 -87 -53.5s-53.667 -84.834 -75 -147.501c-14.667 -42.667 -26 -87.167 -34 -133.5s-12 -90.5 -12 -132.5c0 -55.333 9.66699 -95.166 29 -119.499s49.666 -36.5 90.999 -36.5c38 0 74.167 8.83301 108.5 26.5
s63.166 42.167 86.499 73.5l23 -10c-20.667 -50.667 -54.167 -92.334 -100.5 -125.001s-97.833 -52.334 -154.5 -59.001z" />
    <glyph glyph-name="Egrave" unicode="&#xc8;" horiz-adv-x="459" 
d="M357 1000l29 -189h-75l-59 189h105zM181 179c0 -32 8.16797 -56.8369 24.501 -74.5039s39.833 -26.5 70.5 -26.5c35.333 0 71 9.66699 107 29s62 43.666 78 72.999l23 -10c-24.667 -56.667 -64.167 -102.167 -118.5 -136.5s-112.5 -51.5 -174.5 -51.5
c-57.333 0 -102.333 16 -135 48s-49 74.667 -49 128c0 58 17.667 112.5 53 163.5s79.333 82.833 132 95.5c-20 14 -35.167 31.333 -45.5 52s-15.5 43.334 -15.5 68.001c0 56 21.5 105.833 64.5 149.5s94.5 65.5 154.5 65.5c42.667 0 77.167 -11.333 103.5 -34
s39.5 -53 39.5 -91c0 -29.333 -7.16699 -54 -21.5 -74s-31.833 -30 -52.5 -30c-9.33301 0 -17.833 2.33301 -25.5 7s-14.834 11.334 -21.501 20.001c12 4 22.333 14.833 31 32.5s13 35.834 13 54.501c0 17.333 -5 31 -15 41s-23.333 15 -40 15c-28 0 -52 -14.167 -72 -42.5
s-30 -61.166 -30 -98.499c0 -33.333 8.83301 -61.833 26.5 -85.5s42.5 -39.834 74.5 -48.501c-49.333 -11.333 -91.5 -41.166 -126.5 -89.499s-52.5 -98.166 -52.5 -149.499z" />
    <glyph glyph-name="Eacute" unicode="&#xc9;" horiz-adv-x="459" 
d="M526 1000l-121 -189h-75l91 189h105zM181 179c0 -32 8.16797 -56.8369 24.501 -74.5039s39.833 -26.5 70.5 -26.5c35.333 0 71 9.66699 107 29s62 43.666 78 72.999l23 -10c-24.667 -56.667 -64.167 -102.167 -118.5 -136.5s-112.5 -51.5 -174.5 -51.5
c-57.333 0 -102.333 16 -135 48s-49 74.667 -49 128c0 58 17.667 112.5 53 163.5s79.333 82.833 132 95.5c-20 14 -35.167 31.333 -45.5 52s-15.5 43.334 -15.5 68.001c0 56 21.5 105.833 64.5 149.5s94.5 65.5 154.5 65.5c42.667 0 77.167 -11.333 103.5 -34
s39.5 -53 39.5 -91c0 -29.333 -7.16699 -54 -21.5 -74s-31.833 -30 -52.5 -30c-9.33301 0 -17.833 2.33301 -25.5 7s-14.834 11.334 -21.501 20.001c12 4 22.333 14.833 31 32.5s13 35.834 13 54.501c0 17.333 -5 31 -15 41s-23.333 15 -40 15c-28 0 -52 -14.167 -72 -42.5
s-30 -61.166 -30 -98.499c0 -33.333 8.83301 -61.833 26.5 -85.5s42.5 -39.834 74.5 -48.501c-49.333 -11.333 -91.5 -41.166 -126.5 -89.499s-52.5 -98.166 -52.5 -149.499z" />
    <glyph glyph-name="Ecircumflex" unicode="&#xca;" horiz-adv-x="459" 
d="M414 1000h21l60 -189h-32l-60 80l-157 -80h-44zM181 179c0 -32 8.16797 -56.8369 24.501 -74.5039s39.833 -26.5 70.5 -26.5c35.333 0 71 9.66699 107 29s62 43.666 78 72.999l23 -10c-24.667 -56.667 -64.167 -102.167 -118.5 -136.5s-112.5 -51.5 -174.5 -51.5
c-57.333 0 -102.333 16 -135 48s-49 74.667 -49 128c0 58 17.667 112.5 53 163.5s79.333 82.833 132 95.5c-20 14 -35.167 31.333 -45.5 52s-15.5 43.334 -15.5 68.001c0 56 21.5 105.833 64.5 149.5s94.5 65.5 154.5 65.5c42.667 0 77.167 -11.333 103.5 -34
s39.5 -53 39.5 -91c0 -29.333 -7.16699 -54 -21.5 -74s-31.833 -30 -52.5 -30c-9.33301 0 -17.833 2.33301 -25.5 7s-14.834 11.334 -21.501 20.001c12 4 22.333 14.833 31 32.5s13 35.834 13 54.501c0 17.333 -5 31 -15 41s-23.333 15 -40 15c-28 0 -52 -14.167 -72 -42.5
s-30 -61.166 -30 -98.499c0 -33.333 8.83301 -61.833 26.5 -85.5s42.5 -39.834 74.5 -48.501c-49.333 -11.333 -91.5 -41.166 -126.5 -89.499s-52.5 -98.166 -52.5 -149.499z" />
    <glyph glyph-name="Edieresis" unicode="&#xcb;" horiz-adv-x="459" 
d="M540 884c0 -16.667 -6 -31 -18 -43s-26.333 -18 -43 -18s-31 6 -43 18s-18 26.333 -18 43s6 31 18 43s26.333 18 43 18s31 -6 43 -18s18 -26.333 18 -43zM360 884c0 -16.667 -6 -31 -18 -43s-26.333 -18 -43 -18s-31 6 -43 18s-18 26.333 -18 43s6 31 18 43
s26.333 18 43 18s31 -6 43 -18s18 -26.333 18 -43zM181 179c0 -32 8.16797 -56.8369 24.501 -74.5039s39.833 -26.5 70.5 -26.5c35.333 0 71 9.66699 107 29s62 43.666 78 72.999l23 -10c-24.667 -56.667 -64.167 -102.167 -118.5 -136.5s-112.5 -51.5 -174.5 -51.5
c-57.333 0 -102.333 16 -135 48s-49 74.667 -49 128c0 58 17.667 112.5 53 163.5s79.333 82.833 132 95.5c-20 14 -35.167 31.333 -45.5 52s-15.5 43.334 -15.5 68.001c0 56 21.5 105.833 64.5 149.5s94.5 65.5 154.5 65.5c42.667 0 77.167 -11.333 103.5 -34
s39.5 -53 39.5 -91c0 -29.333 -7.16699 -54 -21.5 -74s-31.833 -30 -52.5 -30c-9.33301 0 -17.833 2.33301 -25.5 7s-14.834 11.334 -21.501 20.001c12 4 22.333 14.833 31 32.5s13 35.834 13 54.501c0 17.333 -5 31 -15 41s-23.333 15 -40 15c-28 0 -52 -14.167 -72 -42.5
s-30 -61.166 -30 -98.499c0 -33.333 8.83301 -61.833 26.5 -85.5s42.5 -39.834 74.5 -48.501c-49.333 -11.333 -91.5 -41.166 -126.5 -89.499s-52.5 -98.166 -52.5 -149.499z" />
    <glyph glyph-name="Igrave" unicode="&#xcc;" horiz-adv-x="375" 
d="M276 1000l29 -189h-75l-59 189h105zM133 680c34 22 70.5 39.168 109.5 51.501s77.167 18.5 114.5 18.5c4.66699 0 9.83398 -0.166992 15.501 -0.5l24.5 -1.5l-159 -748h-144l145 679c-45.333 -18.667 -80 -46.667 -104 -84s-36 -82 -36 -134
c0 -12.667 0.833008 -23.667 2.5 -33s4.5 -18.333 8.5 -27c1.33301 -2.66699 2.16602 -4.5 2.49902 -5.5s0.5 -1.83301 0.5 -2.5c-37.333 0 -64.5 7.83301 -81.5 23.5s-25.5 40.167 -25.5 73.5s11.167 66.666 33.5 99.999s53.5 63.333 93.5 90z" />
    <glyph glyph-name="Iacute" unicode="&#xcd;" horiz-adv-x="375" 
d="M465 1000l-121 -189h-75l91 189h105zM133 680c34 22 70.5 39.168 109.5 51.501s77.167 18.5 114.5 18.5c4.66699 0 9.83398 -0.166992 15.501 -0.5l24.5 -1.5l-159 -748h-144l145 679c-45.333 -18.667 -80 -46.667 -104 -84s-36 -82 -36 -134
c0 -12.667 0.833008 -23.667 2.5 -33s4.5 -18.333 8.5 -27c1.33301 -2.66699 2.16602 -4.5 2.49902 -5.5s0.5 -1.83301 0.5 -2.5c-37.333 0 -64.5 7.83301 -81.5 23.5s-25.5 40.167 -25.5 73.5s11.167 66.666 33.5 99.999s53.5 63.333 93.5 90z" />
    <glyph glyph-name="Icircumflex" unicode="&#xce;" horiz-adv-x="375" 
d="M363 1000h21l60 -189h-32l-60 80l-157 -80h-44zM133 680c34 22 70.5 39.168 109.5 51.501s77.167 18.5 114.5 18.5c4.66699 0 9.83398 -0.166992 15.501 -0.5l24.5 -1.5l-159 -748h-144l145 679c-45.333 -18.667 -80 -46.667 -104 -84s-36 -82 -36 -134
c0 -12.667 0.833008 -23.667 2.5 -33s4.5 -18.333 8.5 -27c1.33301 -2.66699 2.16602 -4.5 2.49902 -5.5s0.5 -1.83301 0.5 -2.5c-37.333 0 -64.5 7.83301 -81.5 23.5s-25.5 40.167 -25.5 73.5s11.167 66.666 33.5 99.999s53.5 63.333 93.5 90z" />
    <glyph glyph-name="Idieresis" unicode="&#xcf;" horiz-adv-x="375" 
d="M469 884c0 -16.667 -6 -31 -18 -43s-26.333 -18 -43 -18s-31 6 -43 18s-18 26.333 -18 43s6 31 18 43s26.333 18 43 18s31 -6 43 -18s18 -26.333 18 -43zM289 884c0 -16.667 -6 -31 -18 -43s-26.333 -18 -43 -18s-31 6 -43 18s-18 26.333 -18 43s6 31 18 43
s26.333 18 43 18s31 -6 43 -18s18 -26.333 18 -43zM133 680c34 22 70.5 39.168 109.5 51.501s77.167 18.5 114.5 18.5c4.66699 0 9.83398 -0.166992 15.501 -0.5l24.5 -1.5l-159 -748h-144l145 679c-45.333 -18.667 -80 -46.667 -104 -84s-36 -82 -36 -134
c0 -12.667 0.833008 -23.667 2.5 -33s4.5 -18.333 8.5 -27c1.33301 -2.66699 2.16602 -4.5 2.49902 -5.5s0.5 -1.83301 0.5 -2.5c-37.333 0 -64.5 7.83301 -81.5 23.5s-25.5 40.167 -25.5 73.5s11.167 66.666 33.5 99.999s53.5 63.333 93.5 90z" />
    <glyph glyph-name="Eth" unicode="&#xd0;" horiz-adv-x="663" 
d="M149 419l35.0039 0.00292969l46 217l148 20l-51 -237h79l-20 -74h-75l-53 -250c9.33301 -6.66699 18.666 -11.667 27.999 -15s19 -5 29 -5c53.333 0 98.666 44.333 135.999 133s56 188.667 56 300c0 74 -10.5 125.167 -31.5 153.5s-56.5 42.5 -106.5 42.5
c-82.667 0 -148.334 -21.833 -197.001 -65.5s-73 -102.834 -73 -177.501c0 -12.667 0.833008 -23.667 2.5 -33s4.5 -18.333 8.5 -27c1.33301 -2.66699 2.16602 -4.5 2.49902 -5.5s0.5 -1.83301 0.5 -2.5c-37.333 0 -64.5 7.83301 -81.5 23.5s-25.5 40.167 -25.5 73.5
s11.167 66.666 33.5 99.999s53.5 63.333 93.5 90c34 22 70.5 39.167 109.5 51.5s77.167 18.5 114.5 18.5c96 0 168 -22.333 216 -67s72 -112.334 72 -203.001c0 -52.667 -5.16699 -104.667 -15.5 -156s-25.5 -99 -45.5 -143c-26.667 -60.667 -59.167 -108.167 -97.5 -142.5
s-77.833 -51.5 -118.5 -51.5c-20 0 -40.167 4.5 -60.5 13.5s-40.833 22.167 -61.5 39.5l-8 -40h-144l74 345h-39z" />
    <glyph glyph-name="Ntilde" unicode="&#xd1;" horiz-adv-x="686" 
d="M567 912c19.333 -6 33.832 -10.001 43.499 -12.001s19.5 -3 29.5 -3c12.667 0 24.667 2 36 6s20.333 9.66699 27 17l6 -1c-6 -25.333 -25.333 -48.333 -58 -69s-67 -31 -103 -31c-12 0 -24.5 1.33301 -37.5 4s-31.167 8 -54.5 16
c-20.667 6.66699 -36.167 11.167 -46.5 13.5s-20.166 3.5 -29.499 3.5c-12.667 0 -24.5 -2.16699 -35.5 -6.5s-21.167 -10.833 -30.5 -19.5l-6 2c16 32 38.333 56.333 67 73s62 25 100 25c13.333 0 26.5 -1.16699 39.5 -3.5s30.5 -7.16602 52.5 -14.499zM381.999 735.999
l79.001 -530.001l109 542h144l-159 -748h-121l-85 523l-111 -523h-144l144 679c-44.667 -18.667 -79 -46.667 -103 -84s-36 -82 -36 -134c0 -12.667 0.833008 -23.667 2.5 -33s4.5 -18.333 8.5 -27c1.33301 -2.66699 2.16602 -4.5 2.49902 -5.5s0.5 -1.83301 0.5 -2.5
c-37.333 0 -64.5 7.83301 -81.5 23.5s-25.5 40.167 -25.5 73.5c0 32 8 64.5 24 97.5s38 62.167 66 87.5c26.667 24.667 56.5 43.334 89.5 56.001s67.5 19 103.5 19c26 0 45.5 -1.16699 58.5 -3.5s24.5 -5.83301 34.5 -10.5z" />
    <glyph glyph-name="Ograve" unicode="&#xd2;" horiz-adv-x="658" 
d="M397 1000l29 -189h-75l-59 189h105zM171 479c26.667 60 57.666 105.835 92.999 137.502s73.666 47.5 114.999 47.5c9.33301 0 18.333 -0.666992 27 -2s17 -3.33301 25 -6c-42.667 -26 -82.5 -89.333 -119.5 -190s-55.5 -192.334 -55.5 -275.001c0 -37.333 5 -66 15 -86
s24.333 -30 43 -30c27.333 0 55.333 17.667 84 53s54 82.666 76 141.999c16 42 28.167 85.5 36.5 130.5s12.5 87.833 12.5 128.5c0 66.667 -9.66699 112.5 -29 137.5s-52.333 37.5 -99 37.5c-82 0 -150.5 -24.167 -205.5 -72.5s-82.5 -109.833 -82.5 -184.5
c0 -9.33301 0.5 -17.5 1.5 -24.5s3.16699 -14.167 6.5 -21.5c0.666992 -2.66699 1.16699 -4.5 1.5 -5.5s0.5 -1.83301 0.5 -2.5c-34 0 -59.333 6.83301 -76 20.5s-25 34.834 -25 63.501c0 37.333 13.167 74.166 39.5 110.499s62.833 68.166 109.5 95.499
c37.333 21.333 77.833 37.833 121.5 49.5s87.834 17.5 132.501 17.5c78.667 0 137.834 -21.5 177.501 -64.5s59.5 -106.833 59.5 -191.5c0 -55.333 -8 -112.333 -24 -171s-38 -111 -66 -157c-34 -56 -74.667 -98.667 -122 -128s-99.666 -44 -156.999 -44
c-58.667 0 -103.167 17 -133.5 51s-45.5 84 -45.5 150c0 42.667 5.66699 89.834 17 141.501s26.666 99.167 45.999 142.5z" />
    <glyph glyph-name="Oacute" unicode="&#xd3;" horiz-adv-x="658" 
d="M593 1000l-121 -189h-75l91 189h105zM171 479c26.667 60 57.666 105.835 92.999 137.502s73.666 47.5 114.999 47.5c9.33301 0 18.333 -0.666992 27 -2s17 -3.33301 25 -6c-42.667 -26 -82.5 -89.333 -119.5 -190s-55.5 -192.334 -55.5 -275.001c0 -37.333 5 -66 15 -86
s24.333 -30 43 -30c27.333 0 55.333 17.667 84 53s54 82.666 76 141.999c16 42 28.167 85.5 36.5 130.5s12.5 87.833 12.5 128.5c0 66.667 -9.66699 112.5 -29 137.5s-52.333 37.5 -99 37.5c-82 0 -150.5 -24.167 -205.5 -72.5s-82.5 -109.833 -82.5 -184.5
c0 -9.33301 0.5 -17.5 1.5 -24.5s3.16699 -14.167 6.5 -21.5c0.666992 -2.66699 1.16699 -4.5 1.5 -5.5s0.5 -1.83301 0.5 -2.5c-34 0 -59.333 6.83301 -76 20.5s-25 34.834 -25 63.501c0 37.333 13.167 74.166 39.5 110.499s62.833 68.166 109.5 95.499
c37.333 21.333 77.833 37.833 121.5 49.5s87.834 17.5 132.501 17.5c78.667 0 137.834 -21.5 177.501 -64.5s59.5 -106.833 59.5 -191.5c0 -55.333 -8 -112.333 -24 -171s-38 -111 -66 -157c-34 -56 -74.667 -98.667 -122 -128s-99.666 -44 -156.999 -44
c-58.667 0 -103.167 17 -133.5 51s-45.5 84 -45.5 150c0 42.667 5.66699 89.834 17 141.501s26.666 99.167 45.999 142.5z" />
    <glyph glyph-name="Ocircumflex" unicode="&#xd4;" horiz-adv-x="658" 
d="M484 1000h21l60 -189h-32l-60 80l-157 -80h-44zM171 479c26.667 60 57.666 105.835 92.999 137.502s73.666 47.5 114.999 47.5c9.33301 0 18.333 -0.666992 27 -2s17 -3.33301 25 -6c-42.667 -26 -82.5 -89.333 -119.5 -190s-55.5 -192.334 -55.5 -275.001
c0 -37.333 5 -66 15 -86s24.333 -30 43 -30c27.333 0 55.333 17.667 84 53s54 82.666 76 141.999c16 42 28.167 85.5 36.5 130.5s12.5 87.833 12.5 128.5c0 66.667 -9.66699 112.5 -29 137.5s-52.333 37.5 -99 37.5c-82 0 -150.5 -24.167 -205.5 -72.5
s-82.5 -109.833 -82.5 -184.5c0 -9.33301 0.5 -17.5 1.5 -24.5s3.16699 -14.167 6.5 -21.5c0.666992 -2.66699 1.16699 -4.5 1.5 -5.5s0.5 -1.83301 0.5 -2.5c-34 0 -59.333 6.83301 -76 20.5s-25 34.834 -25 63.501c0 37.333 13.167 74.166 39.5 110.499
s62.833 68.166 109.5 95.499c37.333 21.333 77.833 37.833 121.5 49.5s87.834 17.5 132.501 17.5c78.667 0 137.834 -21.5 177.501 -64.5s59.5 -106.833 59.5 -191.5c0 -55.333 -8 -112.333 -24 -171s-38 -111 -66 -157c-34 -56 -74.667 -98.667 -122 -128
s-99.666 -44 -156.999 -44c-58.667 0 -103.167 17 -133.5 51s-45.5 84 -45.5 150c0 42.667 5.66699 89.834 17 141.501s26.666 99.167 45.999 142.5z" />
    <glyph glyph-name="Otilde" unicode="&#xd5;" horiz-adv-x="658" 
d="M533 912c19.333 -6 33.832 -10.001 43.499 -12.001s19.5 -3 29.5 -3c12.667 0 24.667 2 36 6s20.333 9.66699 27 17l6 -1c-6 -25.333 -25.333 -48.333 -58 -69s-67 -31 -103 -31c-12 0 -24.5 1.33301 -37.5 4s-31.167 8 -54.5 16
c-20.667 6.66699 -36.167 11.167 -46.5 13.5s-20.166 3.5 -29.499 3.5c-12.667 0 -24.5 -2.16699 -35.5 -6.5s-21.167 -10.833 -30.5 -19.5l-6 2c16 32 38.333 56.333 67 73s62 25 100 25c13.333 0 26.5 -1.16699 39.5 -3.5s30.5 -7.16602 52.5 -14.499zM170.999 478.999
c26.667 60 57.666 105.835 92.999 137.502s73.666 47.5 114.999 47.5c9.33301 0 18.333 -0.666992 27 -2s17 -3.33301 25 -6c-42.667 -26 -82.5 -89.333 -119.5 -190s-55.5 -192.334 -55.5 -275.001c0 -37.333 5 -66 15 -86s24.333 -30 43 -30c27.333 0 55.333 17.667 84 53
s54 82.666 76 141.999c16 42 28.167 85.5 36.5 130.5s12.5 87.833 12.5 128.5c0 66.667 -9.66699 112.5 -29 137.5s-52.333 37.5 -99 37.5c-82 0 -150.5 -24.167 -205.5 -72.5s-82.5 -109.833 -82.5 -184.5c0 -9.33301 0.5 -17.5 1.5 -24.5s3.16699 -14.167 6.5 -21.5
c0.666992 -2.66699 1.16699 -4.5 1.5 -5.5s0.5 -1.83301 0.5 -2.5c-34 0 -59.333 6.83301 -76 20.5s-25 34.834 -25 63.501c0 37.333 13.167 74.166 39.5 110.499s62.833 68.166 109.5 95.499c37.333 21.333 77.833 37.833 121.5 49.5s87.834 17.5 132.501 17.5
c78.667 0 137.834 -21.5 177.501 -64.5s59.5 -106.833 59.5 -191.5c0 -55.333 -8 -112.333 -24 -171s-38 -111 -66 -157c-34 -56 -74.667 -98.667 -122 -128s-99.666 -44 -156.999 -44c-58.667 0 -103.167 17 -133.5 51s-45.5 84 -45.5 150
c0 42.667 5.66699 89.834 17 141.501s26.666 99.167 45.999 142.5z" />
    <glyph glyph-name="Odieresis" unicode="&#xd6;" horiz-adv-x="658" 
d="M590 884c0 -16.667 -6 -31 -18 -43s-26.333 -18 -43 -18s-31 6 -43 18s-18 26.333 -18 43s6 31 18 43s26.333 18 43 18s31 -6 43 -18s18 -26.333 18 -43zM410 884c0 -16.667 -6 -31 -18 -43s-26.333 -18 -43 -18s-31 6 -43 18s-18 26.333 -18 43s6 31 18 43
s26.333 18 43 18s31 -6 43 -18s18 -26.333 18 -43zM171 479c26.667 60 57.666 105.835 92.999 137.502s73.666 47.5 114.999 47.5c9.33301 0 18.333 -0.666992 27 -2s17 -3.33301 25 -6c-42.667 -26 -82.5 -89.333 -119.5 -190s-55.5 -192.334 -55.5 -275.001
c0 -37.333 5 -66 15 -86s24.333 -30 43 -30c27.333 0 55.333 17.667 84 53s54 82.666 76 141.999c16 42 28.167 85.5 36.5 130.5s12.5 87.833 12.5 128.5c0 66.667 -9.66699 112.5 -29 137.5s-52.333 37.5 -99 37.5c-82 0 -150.5 -24.167 -205.5 -72.5
s-82.5 -109.833 -82.5 -184.5c0 -9.33301 0.5 -17.5 1.5 -24.5s3.16699 -14.167 6.5 -21.5c0.666992 -2.66699 1.16699 -4.5 1.5 -5.5s0.5 -1.83301 0.5 -2.5c-34 0 -59.333 6.83301 -76 20.5s-25 34.834 -25 63.501c0 37.333 13.167 74.166 39.5 110.499
s62.833 68.166 109.5 95.499c37.333 21.333 77.833 37.833 121.5 49.5s87.834 17.5 132.501 17.5c78.667 0 137.834 -21.5 177.501 -64.5s59.5 -106.833 59.5 -191.5c0 -55.333 -8 -112.333 -24 -171s-38 -111 -66 -157c-34 -56 -74.667 -98.667 -122 -128
s-99.666 -44 -156.999 -44c-58.667 0 -103.167 17 -133.5 51s-45.5 84 -45.5 150c0 42.667 5.66699 89.834 17 141.501s26.666 99.167 45.999 142.5z" />
    <glyph glyph-name="multiply" unicode="&#xd7;" horiz-adv-x="515" 
d="M98 165l95 95l-95 95l65 64l94 -95l96 96l64 -65l-95 -95l95 -95l-64 -65l-96 95l-94 -94z" />
    <glyph glyph-name="Oslash" unicode="&#xd8;" horiz-adv-x="658" 
d="M558 177c-27.333 -50 -60.1689 -89.998 -98.502 -119.998s-80.833 -49.333 -127.5 -58l-15 -70h-52l14 65c-58 0 -101.667 15.833 -131 47.5s-44 78.834 -44 141.501c0 40 5.5 84.333 16.5 133s26.167 93.667 45.5 135c25.333 55.333 55 97.666 89 126.999
s70.667 44 110 44c8 0 15.667 -0.5 23 -1.5s14.666 -2.83301 21.999 -5.5l9 41c-5.33301 0.666992 -11.166 1.33398 -17.499 2.00098s-13.166 1 -20.499 1c-78.667 0 -144.667 -22.5 -198 -67.5s-80 -102.833 -80 -173.5c0 -8.66699 0.5 -16.334 1.5 -23.001
s3.16699 -13.334 6.5 -20.001l1.5 -4.5c0.333008 -1 0.5 -1.83301 0.5 -2.5c-33.333 0 -58 6.33301 -74 19s-24 32.334 -24 59.001c0 35.333 12.833 70.166 38.5 104.499s61.167 64.166 106.5 89.499c36 20 75 35.333 117 46s84.333 16 127 16h15
c3.33301 0 6.33301 -0.333008 9 -1l11 49h52l-12 -56c50.667 -12 88.834 -37.333 114.501 -76s38.5 -90.667 38.5 -156c0 -47.333 -6.5 -96.333 -19.5 -147s-31.167 -96.667 -54.5 -138zM350.997 88.002c40 29.333 75.5 84.832 106.5 166.499s46.5 161.834 46.5 240.501
c0 38 -3 67.833 -9 89.5s-15.667 38.167 -29 49.5zM408.997 610.001c-40 -26.667 -77 -86.3311 -111 -178.998s-51 -176.667 -51 -252c0 -32.667 4 -58.334 12 -77.001s20 -29.334 36 -32.001z" />
    <glyph glyph-name="Ugrave" unicode="&#xd9;" horiz-adv-x="719" 
d="M515 1000l29 -189h-75l-59 189h105zM499 229c8 24.667 16.5049 54.1719 25.5049 88.5049s18.5 74.833 28.5 121.5l67 309h141l-66 -312c-16 -76.667 -31 -138 -45 -184s-29.333 -84.333 -46 -115c-26.667 -50.667 -60.334 -87.334 -101.001 -110.001
s-92.334 -34 -155.001 -34c-66.667 0 -115.5 12.667 -146.5 38s-46.5 65.666 -46.5 120.999c0 24 2.5 52.333 7.5 85s13.167 72.667 24.5 120c6 26 15 62.667 27 110s19.667 78.333 23 93l33 132c-56 -14.667 -99.5 -42.167 -130.5 -82.5s-46.5 -89.5 -46.5 -147.5
c0 -13.333 0.833008 -24.833 2.5 -34.5s4.5 -18.5 8.5 -26.5c1.33301 -2.66699 2.16602 -4.5 2.49902 -5.5s0.5 -1.83301 0.5 -2.5c-36 0 -62.833 7.66699 -80.5 23s-26.5 38.333 -26.5 69c0 36.667 12 72.5 36 107.5s57.667 65.5 101 91.5
c35.333 21.333 73.833 37.666 115.5 48.999s83.5 17 125.5 17c8.66699 0 16.167 -0.333008 22.5 -1s14.833 -2 25.5 -4l-42.5 -155c-17 -62 -28.167 -103.667 -33.5 -125c-23.333 -86.667 -39 -149.5 -47 -188.5s-12 -70.833 -12 -95.5
c0 -30.667 5.66699 -53.334 17 -68.001s28.666 -22 51.999 -22c39.333 0 68.166 10.167 86.499 30.5s35.833 56.166 52.5 107.499z" />
    <glyph glyph-name="Uacute" unicode="&#xda;" horiz-adv-x="719" 
d="M647 1000l-121 -189h-75l91 189h105zM499 229c8 24.667 16.5049 54.1719 25.5049 88.5049s18.5 74.833 28.5 121.5l67 309h141l-66 -312c-16 -76.667 -31 -138 -45 -184s-29.333 -84.333 -46 -115c-26.667 -50.667 -60.334 -87.334 -101.001 -110.001
s-92.334 -34 -155.001 -34c-66.667 0 -115.5 12.667 -146.5 38s-46.5 65.666 -46.5 120.999c0 24 2.5 52.333 7.5 85s13.167 72.667 24.5 120c6 26 15 62.667 27 110s19.667 78.333 23 93l33 132c-56 -14.667 -99.5 -42.167 -130.5 -82.5s-46.5 -89.5 -46.5 -147.5
c0 -13.333 0.833008 -24.833 2.5 -34.5s4.5 -18.5 8.5 -26.5c1.33301 -2.66699 2.16602 -4.5 2.49902 -5.5s0.5 -1.83301 0.5 -2.5c-36 0 -62.833 7.66699 -80.5 23s-26.5 38.333 -26.5 69c0 36.667 12 72.5 36 107.5s57.667 65.5 101 91.5
c35.333 21.333 73.833 37.666 115.5 48.999s83.5 17 125.5 17c8.66699 0 16.167 -0.333008 22.5 -1s14.833 -2 25.5 -4l-42.5 -155c-17 -62 -28.167 -103.667 -33.5 -125c-23.333 -86.667 -39 -149.5 -47 -188.5s-12 -70.833 -12 -95.5
c0 -30.667 5.66699 -53.334 17 -68.001s28.666 -22 51.999 -22c39.333 0 68.166 10.167 86.499 30.5s35.833 56.166 52.5 107.499z" />
    <glyph glyph-name="Ucircumflex" unicode="&#xdb;" horiz-adv-x="719" 
d="M575 1000h21l60 -189h-32l-60 80l-157 -80h-44zM499 229c8 24.667 16.5049 54.1719 25.5049 88.5049s18.5 74.833 28.5 121.5l67 309h141l-66 -312c-16 -76.667 -31 -138 -45 -184s-29.333 -84.333 -46 -115c-26.667 -50.667 -60.334 -87.334 -101.001 -110.001
s-92.334 -34 -155.001 -34c-66.667 0 -115.5 12.667 -146.5 38s-46.5 65.666 -46.5 120.999c0 24 2.5 52.333 7.5 85s13.167 72.667 24.5 120c6 26 15 62.667 27 110s19.667 78.333 23 93l33 132c-56 -14.667 -99.5 -42.167 -130.5 -82.5s-46.5 -89.5 -46.5 -147.5
c0 -13.333 0.833008 -24.833 2.5 -34.5s4.5 -18.5 8.5 -26.5c1.33301 -2.66699 2.16602 -4.5 2.49902 -5.5s0.5 -1.83301 0.5 -2.5c-36 0 -62.833 7.66699 -80.5 23s-26.5 38.333 -26.5 69c0 36.667 12 72.5 36 107.5s57.667 65.5 101 91.5
c35.333 21.333 73.833 37.666 115.5 48.999s83.5 17 125.5 17c8.66699 0 16.167 -0.333008 22.5 -1s14.833 -2 25.5 -4l-42.5 -155c-17 -62 -28.167 -103.667 -33.5 -125c-23.333 -86.667 -39 -149.5 -47 -188.5s-12 -70.833 -12 -95.5
c0 -30.667 5.66699 -53.334 17 -68.001s28.666 -22 51.999 -22c39.333 0 68.166 10.167 86.499 30.5s35.833 56.166 52.5 107.499z" />
    <glyph glyph-name="Udieresis" unicode="&#xdc;" horiz-adv-x="719" 
d="M675 884c0 -16.667 -6 -31 -18 -43s-26.333 -18 -43 -18s-31 6 -43 18s-18 26.333 -18 43s6 31 18 43s26.333 18 43 18s31 -6 43 -18s18 -26.333 18 -43zM495 884c0 -16.667 -6 -31 -18 -43s-26.333 -18 -43 -18s-31 6 -43 18s-18 26.333 -18 43s6 31 18 43
s26.333 18 43 18s31 -6 43 -18s18 -26.333 18 -43zM499 229c8 24.667 16.5049 54.1719 25.5049 88.5049s18.5 74.833 28.5 121.5l67 309h141l-66 -312c-16 -76.667 -31 -138 -45 -184s-29.333 -84.333 -46 -115c-26.667 -50.667 -60.334 -87.334 -101.001 -110.001
s-92.334 -34 -155.001 -34c-66.667 0 -115.5 12.667 -146.5 38s-46.5 65.666 -46.5 120.999c0 24 2.5 52.333 7.5 85s13.167 72.667 24.5 120c6 26 15 62.667 27 110s19.667 78.333 23 93l33 132c-56 -14.667 -99.5 -42.167 -130.5 -82.5s-46.5 -89.5 -46.5 -147.5
c0 -13.333 0.833008 -24.833 2.5 -34.5s4.5 -18.5 8.5 -26.5c1.33301 -2.66699 2.16602 -4.5 2.49902 -5.5s0.5 -1.83301 0.5 -2.5c-36 0 -62.833 7.66699 -80.5 23s-26.5 38.333 -26.5 69c0 36.667 12 72.5 36 107.5s57.667 65.5 101 91.5
c35.333 21.333 73.833 37.666 115.5 48.999s83.5 17 125.5 17c8.66699 0 16.167 -0.333008 22.5 -1s14.833 -2 25.5 -4l-42.5 -155c-17 -62 -28.167 -103.667 -33.5 -125c-23.333 -86.667 -39 -149.5 -47 -188.5s-12 -70.833 -12 -95.5
c0 -30.667 5.66699 -53.334 17 -68.001s28.666 -22 51.999 -22c39.333 0 68.166 10.167 86.499 30.5s35.833 56.166 52.5 107.499z" />
    <glyph glyph-name="Yacute" unicode="&#xdd;" horiz-adv-x="620" 
d="M649 1000l-121 -189h-75l91 189h105zM698 745l-194 -437l-66 -308h-160l66 308l-96 375c-48 -17.333 -84.833 -45.166 -110.5 -83.499s-38.5 -84.5 -38.5 -138.5c0 -12.667 0.833008 -23.667 2.5 -33s4.5 -18.333 8.5 -27c1.33301 -2.66699 2.16602 -4.5 2.49902 -5.5
s0.5 -1.83301 0.5 -2.5c-37.333 0 -64.5 7.83301 -81.5 23.5s-25.5 40.167 -25.5 73.5s11.167 66.666 33.5 99.999s53.5 63.333 93.5 90c34 22 70.5 39.167 109.5 51.5s77.167 18.5 114.5 18.5c4.66699 0 9.83398 -0.166992 15.501 -0.5l24.5 -1.5l87 -358l148 355h66z" />
    <glyph glyph-name="Thorn" unicode="&#xde;" horiz-adv-x="583" 
d="M6 380c0 46.667 20.6689 92.002 62.002 136.002s93.666 77.333 156.999 100l25 114l148 20l-24 -110c68 -3.33301 121.5 -22.833 160.5 -58.5s58.5 -81.834 58.5 -138.501c0 -35.333 -7.83301 -70 -23.5 -104s-37.5 -63.667 -65.5 -89
c-26.667 -24.667 -57 -43.334 -91 -56.001s-70.333 -19 -109 -19h-29l-37 -175h-144l120 562c-37.333 -20 -65.833 -48 -85.5 -84s-29.5 -78.333 -29.5 -127c0 -12.667 0.833008 -23.667 2.5 -33s4.5 -18.333 8.5 -27c1.33301 -2.66699 2.16602 -4.5 2.49902 -5.5
s0.5 -1.83301 0.5 -2.5c-37.333 0 -64.5 7.83301 -81.5 23.5s-25.5 40.167 -25.5 73.5zM482.002 458.002c0 41.333 -10.168 73.999 -30.501 97.999s-49.166 36.667 -86.499 38l-82 -382h14c48.667 0 91.667 25.833 129 77.5s56 107.834 56 168.501z" />
    <glyph glyph-name="germandbls" unicode="&#xdf;" horiz-adv-x="450" 
d="M333 562c0 18 -2.83398 30.8359 -8.50098 38.5029s-15.5 11.5 -29.5 11.5c-16.667 0 -31.167 -7 -43.5 -21s-21.166 -34.333 -26.499 -61l-159 -744l-151 -36l166 780c12 56 33.333 98.333 64 127s70 43 118 43c42 0 75.333 -11.833 100 -35.5s37 -54.167 37 -91.5
c0 -30.667 -8.33301 -59.334 -25 -86.001s-39 -46.667 -67 -60c31.333 -10.667 55.333 -28.334 72 -53.001s25 -54.334 25 -89.001c0 -35.333 -3.5 -68.333 -10.5 -99s-17.5 -58.334 -31.5 -83.001c-18 -32 -40.667 -57.167 -68 -75.5s-54 -27.5 -80 -27.5
c-4 0 -8.16699 0.166992 -12.5 0.5s-11.166 0.833008 -20.499 1.5l13 59c33.333 0 59.833 24 79.5 72s29.5 105.667 29.5 173c0 24 -5.83301 42.833 -17.5 56.5s-29.834 23.834 -54.501 30.501l18 58c26 10.667 46.333 25.667 61 45s22 41.333 22 66z" />
    <glyph glyph-name="agrave" unicode="&#xe0;" horiz-adv-x="526" 
d="M321 750l29 -189h-75l-59 189h105zM325 454l-0.00195312 -7l11 53h144l-72 -340c-1.33301 -6 -2.33301 -11.5 -3 -16.5s-1 -10.167 -1 -15.5c0 -14.667 3.33301 -25.5 10 -32.5s17 -10.5 31 -10.5c17.333 0 33 8.16699 47 24.5s25.333 39.5 34 69.5h42
c-21.333 -61.333 -49 -107.5 -83 -138.5s-73.333 -46.5 -118 -46.5c-28.667 0 -51.5 8 -68.5 24s-26.833 38.667 -29.5 68c-20.667 -30.667 -43.5 -53.667 -68.5 -69s-51.833 -23 -80.5 -23c-41.333 0 -73.833 14 -97.5 42s-35.5 67.667 -35.5 119
c0 37.333 5.66699 76.333 17 117s27 77.667 47 111c24.667 39.333 53.334 69.5 86.001 90.5s68.334 31.5 107.001 31.5c26 0 46 -4.5 60 -13.5s21 -21.5 21 -37.5zM315.998 405c0 10 -3.66504 18.833 -10.998 26.5s-17.333 11.5 -30 11.5
c-36.667 0 -69.167 -30.667 -97.5 -92s-42.5 -122 -42.5 -182c0 -26 3.66699 -45.5 11 -58.5s20.333 -19.5 39 -19.5c17.333 0 34.166 8.33301 50.499 25s27.166 37.667 32.499 63z" />
    <glyph glyph-name="aacute" unicode="&#xe1;" horiz-adv-x="526" 
d="M441 750l-121 -189h-75l91 189h105zM325 454l-0.00195312 -7l11 53h144l-72 -340c-1.33301 -6 -2.33301 -11.5 -3 -16.5s-1 -10.167 -1 -15.5c0 -14.667 3.33301 -25.5 10 -32.5s17 -10.5 31 -10.5c17.333 0 33 8.16699 47 24.5s25.333 39.5 34 69.5h42
c-21.333 -61.333 -49 -107.5 -83 -138.5s-73.333 -46.5 -118 -46.5c-28.667 0 -51.5 8 -68.5 24s-26.833 38.667 -29.5 68c-20.667 -30.667 -43.5 -53.667 -68.5 -69s-51.833 -23 -80.5 -23c-41.333 0 -73.833 14 -97.5 42s-35.5 67.667 -35.5 119
c0 37.333 5.66699 76.333 17 117s27 77.667 47 111c24.667 39.333 53.334 69.5 86.001 90.5s68.334 31.5 107.001 31.5c26 0 46 -4.5 60 -13.5s21 -21.5 21 -37.5zM315.998 405c0 10 -3.66504 18.833 -10.998 26.5s-17.333 11.5 -30 11.5
c-36.667 0 -69.167 -30.667 -97.5 -92s-42.5 -122 -42.5 -182c0 -26 3.66699 -45.5 11 -58.5s20.333 -19.5 39 -19.5c17.333 0 34.166 8.33301 50.499 25s27.166 37.667 32.499 63z" />
    <glyph glyph-name="acircumflex" unicode="&#xe2;" horiz-adv-x="526" 
d="M358 750h21l60 -189h-32l-60 80l-157 -80h-44zM325 454l-0.00195312 -7l11 53h144l-72 -340c-1.33301 -6 -2.33301 -11.5 -3 -16.5s-1 -10.167 -1 -15.5c0 -14.667 3.33301 -25.5 10 -32.5s17 -10.5 31 -10.5c17.333 0 33 8.16699 47 24.5s25.333 39.5 34 69.5h42
c-21.333 -61.333 -49 -107.5 -83 -138.5s-73.333 -46.5 -118 -46.5c-28.667 0 -51.5 8 -68.5 24s-26.833 38.667 -29.5 68c-20.667 -30.667 -43.5 -53.667 -68.5 -69s-51.833 -23 -80.5 -23c-41.333 0 -73.833 14 -97.5 42s-35.5 67.667 -35.5 119
c0 37.333 5.66699 76.333 17 117s27 77.667 47 111c24.667 39.333 53.334 69.5 86.001 90.5s68.334 31.5 107.001 31.5c26 0 46 -4.5 60 -13.5s21 -21.5 21 -37.5zM315.998 405c0 10 -3.66504 18.833 -10.998 26.5s-17.333 11.5 -30 11.5
c-36.667 0 -69.167 -30.667 -97.5 -92s-42.5 -122 -42.5 -182c0 -26 3.66699 -45.5 11 -58.5s20.333 -19.5 39 -19.5c17.333 0 34.166 8.33301 50.499 25s27.166 37.667 32.499 63z" />
    <glyph glyph-name="atilde" unicode="&#xe3;" horiz-adv-x="526" 
d="M361 662c19.333 -6 33.832 -10.001 43.499 -12.001s19.5 -3 29.5 -3c12.667 0 24.667 2 36 6s20.333 9.66699 27 17l6 -1c-6 -25.333 -25.333 -48.333 -58 -69s-67 -31 -103 -31c-12 0 -24.5 1.33301 -37.5 4s-31.167 8 -54.5 16
c-20.667 6.66699 -36.167 11.167 -46.5 13.5s-20.166 3.5 -29.499 3.5c-12.667 0 -24.5 -2.16699 -35.5 -6.5s-21.167 -10.833 -30.5 -19.5l-6 2c16 32 38.333 56.333 67 73s62 25 100 25c13.333 0 26.5 -1.16699 39.5 -3.5s30.5 -7.16602 52.5 -14.499zM324.999 453.999
l-0.00195312 -7l11 53h144l-72 -340c-1.33301 -6 -2.33301 -11.5 -3 -16.5s-1 -10.167 -1 -15.5c0 -14.667 3.33301 -25.5 10 -32.5s17 -10.5 31 -10.5c17.333 0 33 8.16699 47 24.5s25.333 39.5 34 69.5h42c-21.333 -61.333 -49 -107.5 -83 -138.5
s-73.333 -46.5 -118 -46.5c-28.667 0 -51.5 8 -68.5 24s-26.833 38.667 -29.5 68c-20.667 -30.667 -43.5 -53.667 -68.5 -69s-51.833 -23 -80.5 -23c-41.333 0 -73.833 14 -97.5 42s-35.5 67.667 -35.5 119c0 37.333 5.66699 76.333 17 117s27 77.667 47 111
c24.667 39.333 53.334 69.5 86.001 90.5s68.334 31.5 107.001 31.5c26 0 46 -4.5 60 -13.5s21 -21.5 21 -37.5zM315.997 404.999c0 10 -3.66504 18.833 -10.998 26.5s-17.333 11.5 -30 11.5c-36.667 0 -69.167 -30.667 -97.5 -92s-42.5 -122 -42.5 -182
c0 -26 3.66699 -45.5 11 -58.5s20.333 -19.5 39 -19.5c17.333 0 34.166 8.33301 50.499 25s27.166 37.667 32.499 63z" />
    <glyph glyph-name="adieresis" unicode="&#xe4;" horiz-adv-x="526" 
d="M482 634c0 -16.667 -6 -31 -18 -43s-26.333 -18 -43 -18s-31 6 -43 18s-18 26.333 -18 43s6 31 18 43s26.333 18 43 18s31 -6 43 -18s18 -26.333 18 -43zM302 634c0 -16.667 -6 -31 -18 -43s-26.333 -18 -43 -18s-31 6 -43 18s-18 26.333 -18 43s6 31 18 43
s26.333 18 43 18s31 -6 43 -18s18 -26.333 18 -43zM325 454l-0.00195312 -7l11 53h144l-72 -340c-1.33301 -6 -2.33301 -11.5 -3 -16.5s-1 -10.167 -1 -15.5c0 -14.667 3.33301 -25.5 10 -32.5s17 -10.5 31 -10.5c17.333 0 33 8.16699 47 24.5s25.333 39.5 34 69.5h42
c-21.333 -61.333 -49 -107.5 -83 -138.5s-73.333 -46.5 -118 -46.5c-28.667 0 -51.5 8 -68.5 24s-26.833 38.667 -29.5 68c-20.667 -30.667 -43.5 -53.667 -68.5 -69s-51.833 -23 -80.5 -23c-41.333 0 -73.833 14 -97.5 42s-35.5 67.667 -35.5 119
c0 37.333 5.66699 76.333 17 117s27 77.667 47 111c24.667 39.333 53.334 69.5 86.001 90.5s68.334 31.5 107.001 31.5c26 0 46 -4.5 60 -13.5s21 -21.5 21 -37.5zM315.998 405c0 10 -3.66504 18.833 -10.998 26.5s-17.333 11.5 -30 11.5
c-36.667 0 -69.167 -30.667 -97.5 -92s-42.5 -122 -42.5 -182c0 -26 3.66699 -45.5 11 -58.5s20.333 -19.5 39 -19.5c17.333 0 34.166 8.33301 50.499 25s27.166 37.667 32.499 63z" />
    <glyph glyph-name="aring" unicode="&#xe5;" horiz-adv-x="526" 
d="M304 552c-20.667 0 -37.502 6.66699 -50.502 20s-19.5 30 -19.5 50c0 24 7.83301 45.167 23.5 63.5s36.167 27.5 61.5 27.5c22.667 0 40.334 -6.83301 53.001 -20.5s19 -32.5 19 -56.5c0 -26 -7.66699 -46.5 -23 -61.5s-36.666 -22.5 -63.999 -22.5zM273.998 624
c0 -12 2.83203 -21.167 8.49902 -27.5s14.167 -9.5 25.5 -9.5c14.667 0 26 4 34 12s12 19.333 12 34c0 17.333 -2.66699 29.5 -8 36.5s-13.666 10.5 -24.999 10.5c-14.667 0 -26.167 -5.16699 -34.5 -15.5s-12.5 -23.833 -12.5 -40.5zM324.997 454l-0.00195312 -7l11 53h144
l-72 -340c-1.33301 -6 -2.33301 -11.5 -3 -16.5s-1 -10.167 -1 -15.5c0 -14.667 3.33301 -25.5 10 -32.5s17 -10.5 31 -10.5c17.333 0 33 8.16699 47 24.5s25.333 39.5 34 69.5h42c-21.333 -61.333 -49 -107.5 -83 -138.5s-73.333 -46.5 -118 -46.5
c-28.667 0 -51.5 8 -68.5 24s-26.833 38.667 -29.5 68c-20.667 -30.667 -43.5 -53.667 -68.5 -69s-51.833 -23 -80.5 -23c-41.333 0 -73.833 14 -97.5 42s-35.5 67.667 -35.5 119c0 37.333 5.66699 76.333 17 117s27 77.667 47 111c24.667 39.333 53.334 69.5 86.001 90.5
s68.334 31.5 107.001 31.5c26 0 46 -4.5 60 -13.5s21 -21.5 21 -37.5zM315.995 405c0 10 -3.66504 18.833 -10.998 26.5s-17.333 11.5 -30 11.5c-36.667 0 -69.167 -30.667 -97.5 -92s-42.5 -122 -42.5 -182c0 -26 3.66699 -45.5 11 -58.5s20.333 -19.5 39 -19.5
c17.333 0 34.166 8.33301 50.499 25s27.166 37.667 32.499 63z" />
    <glyph glyph-name="ae" unicode="&#xe6;" horiz-adv-x="650" 
d="M532 456c-22.667 0 -45.5 -20.001 -68.5 -60.001s-40.833 -88.667 -53.5 -146c38.667 2.66699 72.667 20.334 102 53.001s44 69 44 109c0 15.333 -2 26.5 -6 33.5s-10 10.5 -18 10.5zM179 90.999c19.333 0 35.332 11 47.999 33s23.334 56.667 32.001 104
c-2 0.666992 -4.16699 1 -6.5 1h-10.5c-32.667 0 -59 -8 -79 -24s-30 -37.333 -30 -64c0 -16 4.16699 -28.333 12.5 -37s19.5 -13 33.5 -13zM407.999 -4.00098c-40 0 -72.332 7.83398 -96.999 23.501s-41.334 39.167 -50.001 70.5
c-18.667 -35.333 -39.167 -60.166 -61.5 -74.499s-49.166 -21.5 -80.499 -21.5c-40.667 0 -72 11 -94 33s-33 54.333 -33 97c0 54.667 18.667 96 56 124s92.666 42 165.999 42c9.33301 0 18.166 -0.333008 26.499 -1s16.833 -1.66699 25.5 -3
c6.66699 14.667 11.834 29.667 15.501 45s5.5 29.666 5.5 42.999c0 22 -5.33301 39.333 -16 52s-25.667 19 -45 19c-24 0 -45.333 -3.5 -64 -10.5s-37.667 -19.167 -57 -36.5l-28 29c26.667 27.333 52.834 47.166 78.501 59.499s60.167 18.5 103.5 18.5
c26.667 0 51 -3.33301 73 -10s41 -16.667 57 -30c19.333 14.667 40.333 25.667 63 33s46.667 11 72 11c36.667 0 64 -8 82 -24s27 -41 27 -75c0 -54 -22.833 -101.333 -68.5 -142s-99.5 -62.667 -161.5 -66l-1.5 -20.5c-0.333008 -4.33301 -0.5 -8.16602 -0.5 -11.499
c0 -32 4.5 -55.333 13.5 -70s24.5 -22 46.5 -22c36 0 66.667 6 92 18s57.666 39.667 96.999 83h34c-38.667 -62.667 -80.667 -108.834 -126 -138.501s-95.333 -44.5 -150 -44.5z" />
    <glyph glyph-name="ccedilla" unicode="&#xe7;" horiz-adv-x="384" 
d="M222 -143c0 10.667 -3.49902 19.334 -10.499 26.001s-16.5 10 -28.5 10c-8.66699 0 -16.834 -0.833008 -24.501 -2.5s-16.834 -4.83398 -27.501 -9.50098l41 115c-3.33301 -0.666992 -7 -1.16699 -11 -1.5s-10 -0.5 -18 -0.5c-51.333 0 -90.166 13.333 -116.499 40
s-39.5 66.334 -39.5 119.001c0 38 5.83301 78.333 17.5 121s27.834 80.667 48.501 114c24.667 40 54.167 70.167 88.5 90.5s72.5 30.5 114.5 30.5c36.667 0 64.334 -7.83301 83.001 -23.5s28 -38.5 28 -68.5c0 -22.667 -4.83301 -40.5 -14.5 -53.5s-22.5 -19.5 -38.5 -19.5
c-5.33301 0 -11 1 -17 3s-12 5 -18 9c4 10.667 7 21 9 31s3 19.333 3 28c0 13.333 -2.33301 23.5 -7 30.5s-11.667 10.5 -21 10.5c-29.333 0 -58 -33.833 -86 -101.5s-42 -131.834 -42 -192.501c0 -30.667 5.16699 -52.334 15.5 -65.001s29.166 -19 56.499 -19
c31.333 0 60.166 7.16699 86.499 21.5s56.5 40.833 90.5 79.5h34c-30 -48 -61.5 -86.167 -94.5 -114.5s-68.167 -48.166 -105.5 -59.499l-28 -71c10.667 2.66699 20.334 4.66699 29.001 6s16.667 2 24 2c20 0 35.333 -4.33301 46 -13s16 -21 16 -37
c0 -32 -11.667 -58.333 -35 -79s-51.666 -31 -84.999 -31c-18.667 0 -35.667 1.83301 -51 5.5s-34 11.167 -56 22.5c6.66699 11.333 13.167 19.5 19.5 24.5s13.166 7.5 20.499 7.5c8 0 15.167 -1 21.5 -3s14.166 -6 23.499 -12c6.66699 -5.33301 12 -8.66602 16 -9.99902
s8.33301 -2 13 -2c8 0 15 4.16699 21 12.5s9 18.166 9 29.499z" />
    <glyph glyph-name="egrave" unicode="&#xe8;" horiz-adv-x="384" 
d="M278 750l29 -189h-75l-59 189h105zM367 413c0 -55.333 -22.666 -103.499 -67.999 -144.499s-99.333 -63.167 -162 -66.5l-1.5 -25.5c-0.333008 -5.66699 -0.5 -10.5 -0.5 -14.5c0 -30.667 5.16699 -52.334 15.5 -65.001s29.166 -19 56.499 -19
c31.333 0 60.166 7.16699 86.499 21.5s56.5 40.833 90.5 79.5h34c-38.667 -62.667 -80.667 -109.167 -126 -139.5s-95 -45.5 -149 -45.5c-51.333 0 -90.166 13.333 -116.499 40s-39.5 66.334 -39.5 119.001c0 38 6 78.333 18 121s28 80.667 48 114
c24.667 40 54.167 70.167 88.5 90.5s72.833 30.5 115.5 30.5c36.667 0 64.167 -7.83301 82.5 -23.5s27.5 -39.834 27.5 -72.501zM265.001 456.001c-22.667 0 -45.5 -20.167 -68.5 -60.5s-40.167 -88.833 -51.5 -145.5c38.667 2.66699 72.5 20.5 101.5 53.5
s43.5 70.167 43.5 111.5c0 14 -2 24.333 -6 31s-10.333 10 -19 10z" />
    <glyph glyph-name="eacute" unicode="&#xe9;" horiz-adv-x="384" 
d="M390 750l-121 -189h-75l91 189h105zM367 413c0 -55.333 -22.666 -103.499 -67.999 -144.499s-99.333 -63.167 -162 -66.5l-1.5 -25.5c-0.333008 -5.66699 -0.5 -10.5 -0.5 -14.5c0 -30.667 5.16699 -52.334 15.5 -65.001s29.166 -19 56.499 -19
c31.333 0 60.166 7.16699 86.499 21.5s56.5 40.833 90.5 79.5h34c-38.667 -62.667 -80.667 -109.167 -126 -139.5s-95 -45.5 -149 -45.5c-51.333 0 -90.166 13.333 -116.499 40s-39.5 66.334 -39.5 119.001c0 38 6 78.333 18 121s28 80.667 48 114
c24.667 40 54.167 70.167 88.5 90.5s72.833 30.5 115.5 30.5c36.667 0 64.167 -7.83301 82.5 -23.5s27.5 -39.834 27.5 -72.501zM265.001 456.001c-22.667 0 -45.5 -20.167 -68.5 -60.5s-40.167 -88.833 -51.5 -145.5c38.667 2.66699 72.5 20.5 101.5 53.5
s43.5 70.167 43.5 111.5c0 14 -2 24.333 -6 31s-10.333 10 -19 10z" />
    <glyph glyph-name="ecircumflex" unicode="&#xea;" horiz-adv-x="384" 
d="M317 750h21l60 -189h-32l-60 80l-157 -80h-44zM367 413c0 -55.333 -22.666 -103.499 -67.999 -144.499s-99.333 -63.167 -162 -66.5l-1.5 -25.5c-0.333008 -5.66699 -0.5 -10.5 -0.5 -14.5c0 -30.667 5.16699 -52.334 15.5 -65.001s29.166 -19 56.499 -19
c31.333 0 60.166 7.16699 86.499 21.5s56.5 40.833 90.5 79.5h34c-38.667 -62.667 -80.667 -109.167 -126 -139.5s-95 -45.5 -149 -45.5c-51.333 0 -90.166 13.333 -116.499 40s-39.5 66.334 -39.5 119.001c0 38 6 78.333 18 121s28 80.667 48 114
c24.667 40 54.167 70.167 88.5 90.5s72.833 30.5 115.5 30.5c36.667 0 64.167 -7.83301 82.5 -23.5s27.5 -39.834 27.5 -72.501zM265.001 456.001c-22.667 0 -45.5 -20.167 -68.5 -60.5s-40.167 -88.833 -51.5 -145.5c38.667 2.66699 72.5 20.5 101.5 53.5
s43.5 70.167 43.5 111.5c0 14 -2 24.333 -6 31s-10.333 10 -19 10z" />
    <glyph glyph-name="edieresis" unicode="&#xeb;" horiz-adv-x="384" 
d="M421 634c0 -16.667 -6 -31 -18 -43s-26.333 -18 -43 -18s-31 6 -43 18s-18 26.333 -18 43s6 31 18 43s26.333 18 43 18s31 -6 43 -18s18 -26.333 18 -43zM241 634c0 -16.667 -6 -31 -18 -43s-26.333 -18 -43 -18s-31 6 -43 18s-18 26.333 -18 43s6 31 18 43
s26.333 18 43 18s31 -6 43 -18s18 -26.333 18 -43zM367 413c0 -55.333 -22.666 -103.499 -67.999 -144.499s-99.333 -63.167 -162 -66.5l-1.5 -25.5c-0.333008 -5.66699 -0.5 -10.5 -0.5 -14.5c0 -30.667 5.16699 -52.334 15.5 -65.001s29.166 -19 56.499 -19
c31.333 0 60.166 7.16699 86.499 21.5s56.5 40.833 90.5 79.5h34c-38.667 -62.667 -80.667 -109.167 -126 -139.5s-95 -45.5 -149 -45.5c-51.333 0 -90.166 13.333 -116.499 40s-39.5 66.334 -39.5 119.001c0 38 6 78.333 18 121s28 80.667 48 114
c24.667 40 54.167 70.167 88.5 90.5s72.833 30.5 115.5 30.5c36.667 0 64.167 -7.83301 82.5 -23.5s27.5 -39.834 27.5 -72.501zM265.001 456.001c-22.667 0 -45.5 -20.167 -68.5 -60.5s-40.167 -88.833 -51.5 -145.5c38.667 2.66699 72.5 20.5 101.5 53.5
s43.5 70.167 43.5 111.5c0 14 -2 24.333 -6 31s-10.333 10 -19 10z" />
    <glyph glyph-name="igrave" unicode="&#xec;" horiz-adv-x="267" 
d="M171 750l29 -189h-75l-59 189h105zM-8 114c0 8.66699 0.666016 18.5 1.99902 29.5s3.33301 22.833 6 35.5l68 321h144l-72 -340c-1.33301 -6 -2.33301 -11.5 -3 -16.5s-1 -10.167 -1 -15.5c0 -13.333 3.16699 -22.833 9.5 -28.5s16.833 -8.5 31.5 -8.5
c18.667 0 36.334 8.16699 53.001 24.5s29 37.5 37 63.5h42c-21.333 -60.667 -50 -106.667 -86 -138s-77.333 -47 -124 -47c-33.333 0 -59.5 10.5 -78.5 31.5s-28.5 50.5 -28.5 88.5z" />
    <glyph glyph-name="iacute" unicode="&#xed;" horiz-adv-x="267" 
d="M317 750l-121 -189h-75l91 189h105zM-8 114c0 8.66699 0.666016 18.5 1.99902 29.5s3.33301 22.833 6 35.5l68 321h144l-72 -340c-1.33301 -6 -2.33301 -11.5 -3 -16.5s-1 -10.167 -1 -15.5c0 -13.333 3.16699 -22.833 9.5 -28.5s16.833 -8.5 31.5 -8.5
c18.667 0 36.334 8.16699 53.001 24.5s29 37.5 37 63.5h42c-21.333 -60.667 -50 -106.667 -86 -138s-77.333 -47 -124 -47c-33.333 0 -59.5 10.5 -78.5 31.5s-28.5 50.5 -28.5 88.5z" />
    <glyph glyph-name="icircumflex" unicode="&#xee;" horiz-adv-x="267" 
d="M218 750h21l60 -189h-32l-60 80l-157 -80h-44zM-8 114c0 8.66699 0.666016 18.5 1.99902 29.5s3.33301 22.833 6 35.5l68 321h144l-72 -340c-1.33301 -6 -2.33301 -11.5 -3 -16.5s-1 -10.167 -1 -15.5c0 -13.333 3.16699 -22.833 9.5 -28.5s16.833 -8.5 31.5 -8.5
c18.667 0 36.334 8.16699 53.001 24.5s29 37.5 37 63.5h42c-21.333 -60.667 -50 -106.667 -86 -138s-77.333 -47 -124 -47c-33.333 0 -59.5 10.5 -78.5 31.5s-28.5 50.5 -28.5 88.5z" />
    <glyph glyph-name="idieresis" unicode="&#xef;" horiz-adv-x="267" 
d="M319 634c0 -16.667 -6 -31 -18 -43s-26.333 -18 -43 -18s-31 6 -43 18s-18 26.333 -18 43s6 31 18 43s26.333 18 43 18s31 -6 43 -18s18 -26.333 18 -43zM139 634c0 -16.667 -6 -31 -18 -43s-26.333 -18 -43 -18s-31 6 -43 18s-18 26.333 -18 43s6 31 18 43
s26.333 18 43 18s31 -6 43 -18s18 -26.333 18 -43zM-8 114c0 8.66699 0.666016 18.5 1.99902 29.5s3.33301 22.833 6 35.5l68 321h144l-72 -340c-1.33301 -6 -2.33301 -11.5 -3 -16.5s-1 -10.167 -1 -15.5c0 -13.333 3.16699 -22.833 9.5 -28.5s16.833 -8.5 31.5 -8.5
c18.667 0 36.334 8.16699 53.001 24.5s29 37.5 37 63.5h42c-21.333 -60.667 -50 -106.667 -86 -138s-77.333 -47 -124 -47c-33.333 0 -59.5 10.5 -78.5 31.5s-28.5 50.5 -28.5 88.5z" />
    <glyph glyph-name="eth" unicode="&#xf0;" horiz-adv-x="538" 
d="M147 169c0 -26 3.66895 -45.5 11.002 -58.5s20.333 -19.5 39 -19.5c17.333 0 34.166 8.33301 50.499 25s27.166 37.667 32.499 63l48 226c0 10 -3.66699 18.833 -11 26.5s-17.333 11.5 -30 11.5c-36.667 0 -69.167 -30.667 -97.5 -92s-42.5 -122 -42.5 -182zM479.002 561
c2 -8 3.49805 -16.501 4.49805 -25.501s1.5 -18.167 1.5 -27.5c0 -12.667 -0.833008 -26.667 -2.5 -42s-4.5 -32.333 -8.5 -51l-54 -255c-1.33301 -6 -2.33301 -11.5 -3 -16.5s-1 -10.167 -1 -15.5c0 -13.333 3.16699 -22.833 9.5 -28.5s16.833 -8.5 31.5 -8.5
c17.333 0 33 7.66699 47 23s25.333 37 34 65h42c-20.667 -59.333 -47.5 -104 -80.5 -134s-73.167 -45 -120.5 -45c-27.333 0 -49.5 7.5 -66.5 22.5s-27.5 36.5 -31.5 64.5c-20 -30.667 -42.5 -53.834 -67.5 -69.501s-52.167 -23.5 -81.5 -23.5
c-41.333 0 -73.833 14 -97.5 42s-35.5 67.667 -35.5 119c0 37.333 5.66699 76.333 17 117s27 77.667 47 111c24.667 39.333 53.334 69.5 86.001 90.5s68.334 31.5 107.001 31.5c26 0 46 -4.5 60 -13.5s21 -21.5 21 -37.5v-6l8 37c3.33301 14.667 5.83301 28.334 7.5 41.001
s2.83398 24.334 3.50098 35.001h-77l8 40h69c-2 17.333 -6.33301 34 -13 50s-16.334 32.333 -29.001 49h45c30.667 -16.667 54 -32.667 70 -48s28.333 -32.333 37 -51h63l-8 -40h-42z" />
    <glyph glyph-name="ntilde" unicode="&#xf1;" horiz-adv-x="505" 
d="M347 662c19.333 -6 33.832 -10.001 43.499 -12.001s19.5 -3 29.5 -3c12.667 0 24.667 2 36 6s20.333 9.66699 27 17l6 -1c-6 -25.333 -25.333 -48.333 -58 -69s-67 -31 -103 -31c-12 0 -24.5 1.33301 -37.5 4s-31.167 8 -54.5 16
c-20.667 6.66699 -36.167 11.167 -46.5 13.5s-20.166 3.5 -29.499 3.5c-12.667 0 -24.5 -2.16699 -35.5 -6.5s-21.167 -10.833 -30.5 -19.5l-6 2c16 32 38.333 56.333 67 73s62 25 100 25c13.333 0 26.5 -1.16699 39.5 -3.5s30.5 -7.16602 52.5 -14.499zM242.999 106.999
c0 12 1.50293 26.999 4.50293 44.999s9.16699 46.667 18.5 86c9.33301 38 15.333 65.333 18 82s4 30.667 4 42c0 16.667 -3 29.334 -9 38.001s-15 13 -27 13c-16 0 -30.833 -8.16699 -44.5 -24.5s-24.834 -38.833 -33.501 -67.5l-68 -321h-144l106 500h144l-11 -52
c16.667 18.667 34.667 32.667 54 42s40.333 14 63 14c35.333 0 62.666 -9.66699 81.999 -29s29 -47.333 29 -84c0 -15.333 -1.83301 -33.5 -5.5 -54.5s-10.834 -53.167 -21.501 -96.5c-8.66699 -34 -14.334 -58 -17.001 -72s-4 -25.667 -4 -35c0 -14 3.33301 -24.5 10 -31.5
s16.667 -10.5 30 -10.5c16.667 0 31 5.66699 43 17s25.667 35 41 71h42c-21.333 -62 -47.166 -108.333 -77.499 -139s-66.5 -46 -108.5 -46c-37.333 0 -66.333 10.167 -87 30.5s-31 47.833 -31 82.5z" />
    <glyph glyph-name="ograve" unicode="&#xf2;" horiz-adv-x="433" 
d="M284 750l29 -189h-75l-59 189h105zM-20 154c0 38 6.16309 78.335 18.4961 121.002s29.166 80.667 50.499 114c24.667 39.333 54.334 69.166 89.001 89.499s73.334 30.5 116.001 30.5s74.667 -13.333 96 -40s32 -66.667 32 -120
c1.33301 -0.666992 2.83301 -1.16699 4.5 -1.5s3.83398 -0.5 6.50098 -0.5c20.667 0 45.334 5.66699 74.001 17s55.334 25.666 80.001 42.999l9 -27c-18.667 -20 -43.5 -37.333 -74.5 -52s-65.167 -25 -102.5 -31c-8 -90 -34 -162.667 -78 -218s-97.667 -83 -161 -83
c-52 0 -91.667 13.333 -119 40s-41 66 -41 118zM261.996 448.002c-32 0 -62.167 -32.334 -90.5 -97.001s-42.5 -126 -42.5 -184c0 -31.333 3.5 -52.666 10.5 -63.999s20.5 -17 40.5 -17c24.667 0 48.167 20 70.5 60s37.5 89.333 45.5 148
c-9.33301 2 -16.166 6.5 -20.499 13.5s-6.5 16.5 -6.5 28.5c0 12.667 2.66699 23.667 8 33s13 16.333 23 21c-1.33301 21.333 -4.83301 36.333 -10.5 45s-14.834 13 -27.501 13z" />
    <glyph glyph-name="oacute" unicode="&#xf3;" horiz-adv-x="433" 
d="M415 750l-121 -189h-75l91 189h105zM-20 154c0 38 6.16309 78.335 18.4961 121.002s29.166 80.667 50.499 114c24.667 39.333 54.334 69.166 89.001 89.499s73.334 30.5 116.001 30.5s74.667 -13.333 96 -40s32 -66.667 32 -120
c1.33301 -0.666992 2.83301 -1.16699 4.5 -1.5s3.83398 -0.5 6.50098 -0.5c20.667 0 45.334 5.66699 74.001 17s55.334 25.666 80.001 42.999l9 -27c-18.667 -20 -43.5 -37.333 -74.5 -52s-65.167 -25 -102.5 -31c-8 -90 -34 -162.667 -78 -218s-97.667 -83 -161 -83
c-52 0 -91.667 13.333 -119 40s-41 66 -41 118zM261.996 448.002c-32 0 -62.167 -32.334 -90.5 -97.001s-42.5 -126 -42.5 -184c0 -31.333 3.5 -52.666 10.5 -63.999s20.5 -17 40.5 -17c24.667 0 48.167 20 70.5 60s37.5 89.333 45.5 148
c-9.33301 2 -16.166 6.5 -20.499 13.5s-6.5 16.5 -6.5 28.5c0 12.667 2.66699 23.667 8 33s13 16.333 23 21c-1.33301 21.333 -4.83301 36.333 -10.5 45s-14.834 13 -27.501 13z" />
    <glyph glyph-name="ocircumflex" unicode="&#xf4;" horiz-adv-x="433" 
d="M307 750h21l60 -189h-32l-60 80l-157 -80h-44zM-20 154c0 38 6.16309 78.335 18.4961 121.002s29.166 80.667 50.499 114c24.667 39.333 54.334 69.166 89.001 89.499s73.334 30.5 116.001 30.5s74.667 -13.333 96 -40s32 -66.667 32 -120
c1.33301 -0.666992 2.83301 -1.16699 4.5 -1.5s3.83398 -0.5 6.50098 -0.5c20.667 0 45.334 5.66699 74.001 17s55.334 25.666 80.001 42.999l9 -27c-18.667 -20 -43.5 -37.333 -74.5 -52s-65.167 -25 -102.5 -31c-8 -90 -34 -162.667 -78 -218s-97.667 -83 -161 -83
c-52 0 -91.667 13.333 -119 40s-41 66 -41 118zM261.996 448.002c-32 0 -62.167 -32.334 -90.5 -97.001s-42.5 -126 -42.5 -184c0 -31.333 3.5 -52.666 10.5 -63.999s20.5 -17 40.5 -17c24.667 0 48.167 20 70.5 60s37.5 89.333 45.5 148
c-9.33301 2 -16.166 6.5 -20.499 13.5s-6.5 16.5 -6.5 28.5c0 12.667 2.66699 23.667 8 33s13 16.333 23 21c-1.33301 21.333 -4.83301 36.333 -10.5 45s-14.834 13 -27.501 13z" />
    <glyph glyph-name="otilde" unicode="&#xf5;" horiz-adv-x="433" 
d="M299 662c19.333 -6 33.832 -10.001 43.499 -12.001s19.5 -3 29.5 -3c12.667 0 24.667 2 36 6s20.333 9.66699 27 17l6 -1c-6 -25.333 -25.333 -48.333 -58 -69s-67 -31 -103 -31c-12 0 -24.5 1.33301 -37.5 4s-31.167 8 -54.5 16
c-20.667 6.66699 -36.167 11.167 -46.5 13.5s-20.166 3.5 -29.499 3.5c-12.667 0 -24.5 -2.16699 -35.5 -6.5s-21.167 -10.833 -30.5 -19.5l-6 2c16 32 38.333 56.333 67 73s62 25 100 25c13.333 0 26.5 -1.16699 39.5 -3.5s30.5 -7.16602 52.5 -14.499zM-20.001 153.999
c0 38 6.16309 78.335 18.4961 121.002s29.166 80.667 50.499 114c24.667 39.333 54.334 69.166 89.001 89.499s73.334 30.5 116.001 30.5s74.667 -13.333 96 -40s32 -66.667 32 -120c1.33301 -0.666992 2.83301 -1.16699 4.5 -1.5s3.83398 -0.5 6.50098 -0.5
c20.667 0 45.334 5.66699 74.001 17s55.334 25.666 80.001 42.999l9 -27c-18.667 -20 -43.5 -37.333 -74.5 -52s-65.167 -25 -102.5 -31c-8 -90 -34 -162.667 -78 -218s-97.667 -83 -161 -83c-52 0 -91.667 13.333 -119 40s-41 66 -41 118zM261.995 448.001
c-32 0 -62.167 -32.334 -90.5 -97.001s-42.5 -126 -42.5 -184c0 -31.333 3.5 -52.666 10.5 -63.999s20.5 -17 40.5 -17c24.667 0 48.167 20 70.5 60s37.5 89.333 45.5 148c-9.33301 2 -16.166 6.5 -20.499 13.5s-6.5 16.5 -6.5 28.5c0 12.667 2.66699 23.667 8 33
s13 16.333 23 21c-1.33301 21.333 -4.83301 36.333 -10.5 45s-14.834 13 -27.501 13z" />
    <glyph glyph-name="odieresis" unicode="&#xf6;" horiz-adv-x="433" 
d="M407 634c0 -16.667 -6 -31 -18 -43s-26.333 -18 -43 -18s-31 6 -43 18s-18 26.333 -18 43s6 31 18 43s26.333 18 43 18s31 -6 43 -18s18 -26.333 18 -43zM227 634c0 -16.667 -6 -31 -18 -43s-26.333 -18 -43 -18s-31 6 -43 18s-18 26.333 -18 43s6 31 18 43
s26.333 18 43 18s31 -6 43 -18s18 -26.333 18 -43zM-20 154c0 38 6.16309 78.335 18.4961 121.002s29.166 80.667 50.499 114c24.667 39.333 54.334 69.166 89.001 89.499s73.334 30.5 116.001 30.5s74.667 -13.333 96 -40s32 -66.667 32 -120
c1.33301 -0.666992 2.83301 -1.16699 4.5 -1.5s3.83398 -0.5 6.50098 -0.5c20.667 0 45.334 5.66699 74.001 17s55.334 25.666 80.001 42.999l9 -27c-18.667 -20 -43.5 -37.333 -74.5 -52s-65.167 -25 -102.5 -31c-8 -90 -34 -162.667 -78 -218s-97.667 -83 -161 -83
c-52 0 -91.667 13.333 -119 40s-41 66 -41 118zM261.996 448.002c-32 0 -62.167 -32.334 -90.5 -97.001s-42.5 -126 -42.5 -184c0 -31.333 3.5 -52.666 10.5 -63.999s20.5 -17 40.5 -17c24.667 0 48.167 20 70.5 60s37.5 89.333 45.5 148
c-9.33301 2 -16.166 6.5 -20.499 13.5s-6.5 16.5 -6.5 28.5c0 12.667 2.66699 23.667 8 33s13 16.333 23 21c-1.33301 21.333 -4.83301 36.333 -10.5 45s-14.834 13 -27.501 13z" />
    <glyph glyph-name="divide" unicode="&#xf7;" horiz-adv-x="472" 
d="M366 415c0 -22 -7.83301 -40.667 -23.5 -56s-34.5 -23 -56.5 -23s-40.667 7.66699 -56 23s-23 34 -23 56s7.66699 40.833 23 56.5s34 23.5 56 23.5s40.833 -7.83301 56.5 -23.5s23.5 -34.5 23.5 -56.5zM51 206l18 79h350l-17 -79h-351zM306 80
c0 -22 -7.83301 -40.667 -23.5 -56s-34.5 -23 -56.5 -23s-40.667 7.66699 -56 23s-23 34 -23 56s7.66699 40.833 23 56.5s34 23.5 56 23.5s40.833 -7.83301 56.5 -23.5s23.5 -34.5 23.5 -56.5z" />
    <glyph glyph-name="oslash" unicode="&#xf8;" horiz-adv-x="428" 
d="M383 306c-5.33301 -80.667 -25.166 -148.173 -59.499 -202.506s-78.166 -88.166 -131.499 -101.499l-22 -105h-52l21 99c-50 1.33301 -88 15.333 -114 42s-39 65.334 -39 116.001c0 37.333 5.66699 77 17 119s27.333 79.333 48 112
c23.333 38.667 51.666 68.5 84.999 89.5s70.666 32.167 111.999 33.5l20 97h52l-21 -102c27.333 -7.33301 48.166 -23.166 62.499 -47.499s22.166 -57.166 23.499 -98.499c20.667 0.666992 45 6.83398 73 18.501s53 25.5 75 41.5h32
c-15.333 -22 -40.166 -43.667 -74.499 -65s-70.166 -36.666 -107.499 -45.999zM265 447.994c-31.333 0 -60.833 -32.1699 -88.5 -96.5029s-41.5 -125.833 -41.5 -184.5c0 -31.333 3.5 -52.666 10.5 -63.999s20.5 -17 40.5 -17c24.667 0 48 20.333 70 61
s36.667 90.667 44 150c-9.33301 2.66699 -16.333 7.83398 -21 15.501s-7 17.834 -7 30.501c0 13.333 2.66699 24.5 8 33.5s13 15.5 23 19.5c-1.33301 18.667 -5 32 -11 40s-15 12 -27 12z" />
    <glyph glyph-name="ugrave" unicode="&#xf9;" horiz-adv-x="505" 
d="M290 750l29 -189h-75l-59 189h105zM167 91c17.333 0 32.8301 7.49902 46.4971 22.499s24.834 36.833 33.501 65.5l68 321h144l-72 -340c-1.33301 -6 -2.33301 -11.5 -3 -16.5s-1 -10.167 -1 -15.5c0 -13.333 3.16699 -22.833 9.5 -28.5s16.833 -8.5 31.5 -8.5
c17.333 0 33 7.66699 47 23s25.333 37 34 65h42c-21.333 -61.333 -49 -107.5 -83 -138.5s-73.333 -46.5 -118 -46.5c-28.667 0 -51.667 8.16699 -69 24.5s-27.333 39.833 -30 70.5c-19.333 -32 -41.166 -55.833 -65.499 -71.5s-51.833 -23.5 -82.5 -23.5
c-33.333 0 -59.5 10.5 -78.5 31.5s-28.5 50.5 -28.5 88.5c0 8.66699 0.666992 18.5 2 29.5s3.33301 22.833 6 35.5l68 321h144l-72 -340c-1.33301 -5.33301 -2.16602 -10.166 -2.49902 -14.499s-0.5 -8.83301 -0.5 -13.5c0 -13.333 2.5 -23.5 7.5 -30.5
s12.5 -10.5 22.5 -10.5z" />
    <glyph glyph-name="uacute" unicode="&#xfa;" horiz-adv-x="505" 
d="M435 750l-121 -189h-75l91 189h105zM167 91c17.333 0 32.8301 7.49902 46.4971 22.499s24.834 36.833 33.501 65.5l68 321h144l-72 -340c-1.33301 -6 -2.33301 -11.5 -3 -16.5s-1 -10.167 -1 -15.5c0 -13.333 3.16699 -22.833 9.5 -28.5s16.833 -8.5 31.5 -8.5
c17.333 0 33 7.66699 47 23s25.333 37 34 65h42c-21.333 -61.333 -49 -107.5 -83 -138.5s-73.333 -46.5 -118 -46.5c-28.667 0 -51.667 8.16699 -69 24.5s-27.333 39.833 -30 70.5c-19.333 -32 -41.166 -55.833 -65.499 -71.5s-51.833 -23.5 -82.5 -23.5
c-33.333 0 -59.5 10.5 -78.5 31.5s-28.5 50.5 -28.5 88.5c0 8.66699 0.666992 18.5 2 29.5s3.33301 22.833 6 35.5l68 321h144l-72 -340c-1.33301 -5.33301 -2.16602 -10.166 -2.49902 -14.499s-0.5 -8.83301 -0.5 -13.5c0 -13.333 2.5 -23.5 7.5 -30.5
s12.5 -10.5 22.5 -10.5z" />
    <glyph glyph-name="ucircumflex" unicode="&#xfb;" horiz-adv-x="505" 
d="M338 750h21l60 -189h-32l-60 80l-157 -80h-44zM167 91c17.333 0 32.8301 7.49902 46.4971 22.499s24.834 36.833 33.501 65.5l68 321h144l-72 -340c-1.33301 -6 -2.33301 -11.5 -3 -16.5s-1 -10.167 -1 -15.5c0 -13.333 3.16699 -22.833 9.5 -28.5s16.833 -8.5 31.5 -8.5
c17.333 0 33 7.66699 47 23s25.333 37 34 65h42c-21.333 -61.333 -49 -107.5 -83 -138.5s-73.333 -46.5 -118 -46.5c-28.667 0 -51.667 8.16699 -69 24.5s-27.333 39.833 -30 70.5c-19.333 -32 -41.166 -55.833 -65.499 -71.5s-51.833 -23.5 -82.5 -23.5
c-33.333 0 -59.5 10.5 -78.5 31.5s-28.5 50.5 -28.5 88.5c0 8.66699 0.666992 18.5 2 29.5s3.33301 22.833 6 35.5l68 321h144l-72 -340c-1.33301 -5.33301 -2.16602 -10.166 -2.49902 -14.499s-0.5 -8.83301 -0.5 -13.5c0 -13.333 2.5 -23.5 7.5 -30.5
s12.5 -10.5 22.5 -10.5z" />
    <glyph glyph-name="udieresis" unicode="&#xfc;" horiz-adv-x="505" 
d="M438 634c0 -16.667 -6 -31 -18 -43s-26.333 -18 -43 -18s-31 6 -43 18s-18 26.333 -18 43s6 31 18 43s26.333 18 43 18s31 -6 43 -18s18 -26.333 18 -43zM258 634c0 -16.667 -6 -31 -18 -43s-26.333 -18 -43 -18s-31 6 -43 18s-18 26.333 -18 43s6 31 18 43
s26.333 18 43 18s31 -6 43 -18s18 -26.333 18 -43zM167 91c17.333 0 32.8301 7.49902 46.4971 22.499s24.834 36.833 33.501 65.5l68 321h144l-72 -340c-1.33301 -6 -2.33301 -11.5 -3 -16.5s-1 -10.167 -1 -15.5c0 -13.333 3.16699 -22.833 9.5 -28.5
s16.833 -8.5 31.5 -8.5c17.333 0 33 7.66699 47 23s25.333 37 34 65h42c-21.333 -61.333 -49 -107.5 -83 -138.5s-73.333 -46.5 -118 -46.5c-28.667 0 -51.667 8.16699 -69 24.5s-27.333 39.833 -30 70.5c-19.333 -32 -41.166 -55.833 -65.499 -71.5
s-51.833 -23.5 -82.5 -23.5c-33.333 0 -59.5 10.5 -78.5 31.5s-28.5 50.5 -28.5 88.5c0 8.66699 0.666992 18.5 2 29.5s3.33301 22.833 6 35.5l68 321h144l-72 -340c-1.33301 -5.33301 -2.16602 -10.166 -2.49902 -14.499s-0.5 -8.83301 -0.5 -13.5
c0 -13.333 2.5 -23.5 7.5 -30.5s12.5 -10.5 22.5 -10.5z" />
    <glyph glyph-name="yacute" unicode="&#xfd;" horiz-adv-x="505" 
d="M434 750l-121 -189h-75l91 189h105zM167 91c16.667 0 31.667 7.00195 45 21.002s24.333 34.333 33 61l70 327h144l-99 -464c33.333 12 59.5 28.833 78.5 50.5s34.833 52.5 47.5 92.5h42c-15.333 -50.667 -37.166 -91.334 -65.499 -122.001s-65.5 -52.334 -111.5 -65.001
l-15 -72c-12 -56 -33 -98.333 -63 -127s-69 -43 -117 -43c-34 0 -61.167 8.66699 -81.5 26s-30.5 41 -30.5 71c0 32.667 13.5 61.5 40.5 86.5s67.833 45.833 122.5 62.5l12 54c-16.667 -18.667 -34.834 -32.667 -54.501 -42s-41.5 -14 -65.5 -14
c-33.333 0 -59.5 10.5 -78.5 31.5s-28.5 50.5 -28.5 88.5c0 8.66699 0.666992 18.5 2 29.5s3.33301 22.833 6 35.5l68 321h144l-72 -340l-2 -12.5c-0.666992 -4.33301 -1 -8.5 -1 -12.5c0 -14 2.5 -24.833 7.5 -32.5s12.5 -11.5 22.5 -11.5zM197 -53.998
c-33.333 -12.667 -58 -25.8311 -74 -39.498s-24 -28.834 -24 -45.501c0 -8.66699 3.33301 -16.334 10 -23.001s14.667 -10 24 -10c11.333 0 22.333 8 33 24s19 37.667 25 65z" />
    <glyph glyph-name="thorn" unicode="&#xfe;" horiz-adv-x="473" 
d="M127 106c2.66699 -8 7.33301 -14.167 14 -18.5s15 -6.5 25 -6.5c42 0 75.833 27 101.5 81s38.5 116.667 38.5 188c0 27.333 -4 48 -12 62s-20.667 21 -38 21c-12 0 -24.667 -4.83301 -38 -14.5s-24 -22.167 -32 -37.5zM110.999 31l-52.001 -245.001l-151 -36l156 735
c4 18 7 34.833 9 50.5s3 29.834 3 42.501c0 22.667 -3.33301 43.667 -10 63s-17.667 39 -33 59h45c48 -26.667 81 -54.667 99 -84s27 -65.333 27 -108c0 -8.66699 -0.333008 -17 -1 -25s-1.66699 -16 -3 -24c16.667 15.333 35.334 26.833 56.001 34.5
s42.334 11.5 65.001 11.5c40 0 70.333 -13.333 91 -40s31 -66 31 -118c0 -102 -21.833 -186.333 -65.5 -253s-103.834 -100 -180.501 -100c-22 0 -40.167 3.16699 -54.5 9.5s-24.833 15.5 -31.5 27.5z" />
    <glyph glyph-name="ydieresis" unicode="&#xff;" horiz-adv-x="505" 
d="M425 634c0 -16.667 -6 -31 -18 -43s-26.333 -18 -43 -18s-31 6 -43 18s-18 26.333 -18 43s6 31 18 43s26.333 18 43 18s31 -6 43 -18s18 -26.333 18 -43zM245 634c0 -16.667 -6 -31 -18 -43s-26.333 -18 -43 -18s-31 6 -43 18s-18 26.333 -18 43s6 31 18 43
s26.333 18 43 18s31 -6 43 -18s18 -26.333 18 -43zM167 91c16.667 0 31.667 7.00195 45 21.002s24.333 34.333 33 61l70 327h144l-99 -464c33.333 12 59.5 28.833 78.5 50.5s34.833 52.5 47.5 92.5h42c-15.333 -50.667 -37.166 -91.334 -65.499 -122.001
s-65.5 -52.334 -111.5 -65.001l-15 -72c-12 -56 -33 -98.333 -63 -127s-69 -43 -117 -43c-34 0 -61.167 8.66699 -81.5 26s-30.5 41 -30.5 71c0 32.667 13.5 61.5 40.5 86.5s67.833 45.833 122.5 62.5l12 54c-16.667 -18.667 -34.834 -32.667 -54.501 -42
s-41.5 -14 -65.5 -14c-33.333 0 -59.5 10.5 -78.5 31.5s-28.5 50.5 -28.5 88.5c0 8.66699 0.666992 18.5 2 29.5s3.33301 22.833 6 35.5l68 321h144l-72 -340l-2 -12.5c-0.666992 -4.33301 -1 -8.5 -1 -12.5c0 -14 2.5 -24.833 7.5 -32.5s12.5 -11.5 22.5 -11.5z
M197 -53.998c-33.333 -12.667 -58 -25.8311 -74 -39.498s-24 -28.834 -24 -45.501c0 -8.66699 3.33301 -16.334 10 -23.001s14.667 -10 24 -10c11.333 0 22.333 8 33 24s19 37.667 25 65z" />
    <glyph glyph-name="Aogonek" unicode="&#x104;" horiz-adv-x="668" 
d="M535 679c-27.333 -14.667 -56.333 -42.167 -87 -82.5s-61.667 -91.833 -93 -154.5c24 -4.66699 46.167 -10 66.5 -16s38.833 -12.333 55.5 -19zM497 0c1.33301 0.666992 3.16602 1.49414 5.49902 2.49414s4.16602 1.83301 5.49902 2.5h-70l-7 -5h-40l77 363
c-23.333 10.667 -45.333 18.834 -66 24.501s-43.334 9.5 -68.001 11.5c-38 -82.667 -69.167 -166.667 -93.5 -252s-36.5 -153.666 -36.5 -204.999c0 -12 1.16699 -22.5 3.5 -31.5s5.83301 -17.167 10.5 -24.5c-50.667 0 -85.667 8.66699 -105 26s-29 44 -29 80
c0 44.667 13.5 104.334 40.5 179.001s62.5 150.667 106.5 228c-34 -2 -60.5 -7.33301 -79.5 -16s-31.5 -20.667 -37.5 -36c2.66699 0 5.5 -3.5 8.5 -10.5s4.5 -13.833 4.5 -20.5c0 -11.333 -5.33301 -20.666 -16 -27.999s-24 -11 -40 -11
c-18.667 0 -33.667 5.16699 -45 15.5s-17 24.5 -17 42.5c0 34.667 19.5 63.834 58.5 87.501s87.5 35.5 145.5 35.5c6.66699 0 14.334 -0.166992 23.001 -0.5s18.334 -1.16602 29.001 -2.49902c58.667 92.667 118.334 165 179.001 217s117 78 169 78
c14 0 28 -1.16699 42 -3.5s26.333 -5.83301 37 -10.5l-157 -736h-38zM501 -173.006c-10 -6.66699 -20 -11.665 -30 -14.998s-20.333 -5 -31 -5c-24 0 -43.167 7.5 -57.5 22.5s-21.5 33.5 -21.5 55.5c0 18.667 6.16699 38 18.5 58s29.5 39 51.5 57h66
c-14.667 -8.66699 -27.167 -20.834 -37.5 -36.501s-15.5 -31.5 -15.5 -47.5c0 -14 3.5 -25.833 10.5 -35.5s16.5 -14.5 28.5 -14.5c5.33301 0 10.833 1 16.5 3s12.167 5 19.5 9c4 2.66699 9.66699 6.66699 17 12s12.333 8.66602 15 9.99902l-1 -11
c-0.666992 -7.33301 -1 -14 -1 -20l-32 -28.5c-8 -7 -13.333 -11.5 -16 -13.5z" />
    <glyph glyph-name="aogonek" unicode="&#x105;" horiz-adv-x="526" 
d="M325 454l-0.00195312 -7l11 53h144l-72 -340c-1.33301 -6 -2.33301 -11.5 -3 -16.5s-1 -10.167 -1 -15.5c0 -14.667 3.33301 -25.5 10 -32.5s17 -10.5 31 -10.5c17.333 0 33 8.16699 47 24.5s25.333 39.5 34 69.5h42c-16 -44.667 -35.333 -81.334 -58 -110.001
s-50 -50 -82 -64c-13.333 -6 -26 -18 -38 -36s-18 -35.667 -18 -53c0 -14 3.5 -25.833 10.5 -35.5s16.5 -14.5 28.5 -14.5c5.33301 0 10.833 1 16.5 3s12.167 5 19.5 9c4 2.66699 9.66699 6.66699 17 12s12.333 8.66602 15 9.99902l-1 -11c-0.666992 -7.33301 -1 -14 -1 -20
l-32 -28.5c-8 -7 -13.333 -11.5 -16 -13.5c-10 -6.66699 -20 -11.667 -30 -15s-20.333 -5 -31 -5c-24 0 -43.167 7.5 -57.5 22.5s-21.5 33.5 -21.5 55.5c0 17.333 5.5 35.5 16.5 54.5s26.833 37.5 47.5 55.5c-24.667 2.66699 -44.167 11.834 -58.5 27.501
s-22.833 36.834 -25.5 63.501c-20.667 -30.667 -43.5 -53.667 -68.5 -69s-51.833 -23 -80.5 -23c-41.333 0 -73.833 14 -97.5 42s-35.5 67.667 -35.5 119c0 37.333 5.66699 76.333 17 117s27 77.667 47 111c24.667 39.333 53.334 69.5 86.001 90.5s68.334 31.5 107.001 31.5
c26 0 46 -4.5 60 -13.5s21 -21.5 21 -37.5zM315.998 405c0 10 -3.66504 18.833 -10.998 26.5s-17.333 11.5 -30 11.5c-36.667 0 -69.167 -30.667 -97.5 -92s-42.5 -122 -42.5 -182c0 -26 3.66699 -45.5 11 -58.5s20.333 -19.5 39 -19.5c17.333 0 34.166 8.33301 50.499 25
s27.166 37.667 32.499 63z" />
    <glyph glyph-name="Cacute" unicode="&#x106;" horiz-adv-x="497" 
d="M533 1000l-121 -189h-75l91 189h105zM185 236c0 -55.333 9.66602 -95.166 28.999 -119.499s49.666 -36.5 90.999 -36.5c38 0 74.167 8.83301 108.5 26.5s63.166 42.167 86.499 73.5l23 -10c-22 -56.667 -60.167 -101.834 -114.5 -135.501s-111.166 -50.5 -170.499 -50.5
c-77.333 0 -133.166 19.5 -167.499 58.5s-51.5 101.5 -51.5 187.5c0 55.333 7 113 21 173s33.333 113.667 58 161c32 60.667 70.833 106.834 116.5 138.501s96.834 47.5 153.501 47.5c53.333 0 94.5 -11.5 123.5 -34.5s43.5 -56.167 43.5 -99.5c0 -30 -6 -52.833 -18 -68.5
s-29.333 -23.5 -52 -23.5c-11.333 0 -21.833 2.16699 -31.5 6.5s-18.167 10.833 -25.5 19.5c12 6 22.667 18.167 32 36.5s14 36.833 14 55.5c0 19.333 -5.33301 34.333 -16 45s-25.667 16 -45 16c-29.333 0 -58.333 -17.833 -87 -53.5s-53.667 -84.834 -75 -147.501
c-14.667 -42.667 -26 -87.167 -34 -133.5s-12 -90.5 -12 -132.5z" />
    <glyph glyph-name="cacute" unicode="&#x107;" horiz-adv-x="384" 
d="M440 750l-121 -189h-75l91 189h105zM367 417c0 -22.667 -4.83398 -40.499 -14.501 -53.499s-22.5 -19.5 -38.5 -19.5c-5.33301 0 -11 1 -17 3s-12 5 -18 9c4 10.667 7 21 9 31s3 19.333 3 28c0 13.333 -2.33301 23.5 -7 30.5s-11.667 10.5 -21 10.5
c-29.333 0 -58 -33.833 -86 -101.5s-42 -131.834 -42 -192.501c0 -30.667 5.16699 -52.334 15.5 -65.001s29.166 -19 56.499 -19c31.333 0 60.166 7.16699 86.499 21.5s56.5 40.833 90.5 79.5h34c-38.667 -62.667 -80.667 -109.167 -126 -139.5s-95 -45.5 -149 -45.5
c-51.333 0 -90.166 13.333 -116.499 40s-39.5 66.334 -39.5 119.001c0 38 5.83301 78.333 17.5 121s27.834 80.667 48.501 114c24.667 40 54.167 70.167 88.5 90.5s72.5 30.5 114.5 30.5c36.667 0 64.334 -7.83301 83.001 -23.5s28 -38.5 28 -68.5z" />
    <glyph glyph-name="Ccaron" unicode="&#x10c;" horiz-adv-x="497" 
d="M373 811h-21l-60 189h32l60 -80l157 80h44zM185 236c0 -55.333 9.66602 -95.166 28.999 -119.499s49.666 -36.5 90.999 -36.5c38 0 74.167 8.83301 108.5 26.5s63.166 42.167 86.499 73.5l23 -10c-22 -56.667 -60.167 -101.834 -114.5 -135.501
s-111.166 -50.5 -170.499 -50.5c-77.333 0 -133.166 19.5 -167.499 58.5s-51.5 101.5 -51.5 187.5c0 55.333 7 113 21 173s33.333 113.667 58 161c32 60.667 70.833 106.834 116.5 138.501s96.834 47.5 153.501 47.5c53.333 0 94.5 -11.5 123.5 -34.5
s43.5 -56.167 43.5 -99.5c0 -30 -6 -52.833 -18 -68.5s-29.333 -23.5 -52 -23.5c-11.333 0 -21.833 2.16699 -31.5 6.5s-18.167 10.833 -25.5 19.5c12 6 22.667 18.167 32 36.5s14 36.833 14 55.5c0 19.333 -5.33301 34.333 -16 45s-25.667 16 -45 16
c-29.333 0 -58.333 -17.833 -87 -53.5s-53.667 -84.834 -75 -147.501c-14.667 -42.667 -26 -87.167 -34 -133.5s-12 -90.5 -12 -132.5z" />
    <glyph glyph-name="ccaron" unicode="&#x10d;" horiz-adv-x="384" 
d="M287 561h-21l-60 189h32l60 -80l157 80h44zM367 417c0 -22.667 -4.83398 -40.499 -14.501 -53.499s-22.5 -19.5 -38.5 -19.5c-5.33301 0 -11 1 -17 3s-12 5 -18 9c4 10.667 7 21 9 31s3 19.333 3 28c0 13.333 -2.33301 23.5 -7 30.5s-11.667 10.5 -21 10.5
c-29.333 0 -58 -33.833 -86 -101.5s-42 -131.834 -42 -192.501c0 -30.667 5.16699 -52.334 15.5 -65.001s29.166 -19 56.499 -19c31.333 0 60.166 7.16699 86.499 21.5s56.5 40.833 90.5 79.5h34c-38.667 -62.667 -80.667 -109.167 -126 -139.5s-95 -45.5 -149 -45.5
c-51.333 0 -90.166 13.333 -116.499 40s-39.5 66.334 -39.5 119.001c0 38 5.83301 78.333 17.5 121s27.834 80.667 48.501 114c24.667 40 54.167 70.167 88.5 90.5s72.5 30.5 114.5 30.5c36.667 0 64.334 -7.83301 83.001 -23.5s28 -38.5 28 -68.5z" />
    <glyph glyph-name="Eogonek" unicode="&#x118;" horiz-adv-x="459" 
d="M186 217c0 -36.667 11.4971 -67.999 34.4971 -93.999s50.5 -39 82.5 -39c36 0 66.333 7.5 91 22.5s47 39.5 67 73.5l23 -10c-8 -24 -19 -45.667 -33 -65s-37.333 -41.333 -70 -66s-53.667 -45.5 -63 -62.5s-14 -37.167 -14 -60.5c0 -14 3.5 -25.833 10.5 -35.5
s16.5 -14.5 28.5 -14.5c5.33301 0 10.833 1 16.5 3s12.167 5 19.5 9c4 2.66699 9.66699 6.66699 17 12s12.333 8.66602 15 9.99902l-1 -11c-0.666992 -7.33301 -1 -14 -1 -20l-32 -28.5c-8 -7 -13.333 -11.5 -16 -13.5c-10 -6.66699 -20 -11.667 -30 -15s-20.333 -5 -31 -5
c-24 0 -43.167 7.5 -57.5 22.5s-21.5 33.5 -21.5 55.5c0 18.667 6.33301 38.167 19 58.5s30.334 39.5 53.001 57.5c-11.333 -2 -23.333 -3.66699 -36 -5s-25.667 -2 -39 -2c-62.667 0 -112.834 19 -150.501 57s-56.5 86.333 -56.5 145c0 54 16.5 101.5 49.5 142.5
s76.833 67.167 131.5 78.5c-31.333 17.333 -55.666 39.333 -72.999 66s-26 55.334 -26 86.001c0 50.667 20.833 93.5 62.5 128.5s94.834 52.5 159.501 52.5c56 0 100.667 -11.833 134 -35.5s50 -56.5 50 -98.5c0 -30 -6 -52.833 -18 -68.5s-29.333 -23.5 -52 -23.5
c-11.333 0 -21.833 2.16699 -31.5 6.5s-18.167 10.833 -25.5 19.5c11.333 3.33301 21.5 14 30.5 32s13.5 34.667 13.5 50c0 23.333 -5.66699 41.5 -17 54.5s-27.666 19.5 -48.999 19.5c-35.333 0 -64.5 -11.833 -87.5 -35.5s-34.5 -52.834 -34.5 -87.501
c0 -33.333 11.5 -64.5 34.5 -93.5s55.5 -52.833 97.5 -71.5c-56 -22.667 -99 -51.667 -129 -87s-45 -73.333 -45 -114z" />
    <glyph glyph-name="eogonek" unicode="&#x119;" horiz-adv-x="384" 
d="M418 179c-17.333 -30 -36.5 -56.499 -57.5 -79.499s-50.167 -47.5 -87.5 -73.5c-31.333 -22 -51.166 -40.5 -59.499 -55.5s-12.5 -33.167 -12.5 -54.5c0 -14 3.5 -25.833 10.5 -35.5s16.5 -14.5 28.5 -14.5c5.33301 0 10.833 1 16.5 3s12.167 5 19.5 9
c4 2.66699 9.66699 6.66699 17 12s12.333 8.66602 15 9.99902l-1 -11c-0.666992 -7.33301 -1 -14 -1 -20l-32 -28.5c-8 -7 -13.333 -11.5 -16 -13.5c-10 -6.66699 -20 -11.667 -30 -15s-20.333 -5 -31 -5c-24 0 -43.167 7.5 -57.5 22.5s-21.5 33.5 -21.5 55.5
c0 18 5.83301 36.667 17.5 56s28.167 38 49.5 56c-6.66699 -1.33301 -13.5 -2.16602 -20.5 -2.49902s-14.167 -0.5 -21.5 -0.5c-51.333 0 -90.166 13.333 -116.499 40s-39.5 66.334 -39.5 119.001c0 38 6 78.333 18 121s28 80.667 48 114c24.667 40 54.167 70.167 88.5 90.5
s72.833 30.5 115.5 30.5c36.667 0 64.167 -7.83301 82.5 -23.5s27.5 -39.834 27.5 -72.501c0 -55.333 -22.667 -103.5 -68 -144.5s-99.333 -63.167 -162 -66.5l-1.5 -25.5c-0.333008 -5.66699 -0.5 -10.5 -0.5 -14.5c0 -30.667 5.16699 -52.334 15.5 -65.001
s29.166 -19 56.499 -19c31.333 0 60.166 7.16699 86.499 21.5s56.5 40.833 90.5 79.5h34zM265 456.001c-22.667 0 -45.5 -20.167 -68.5 -60.5s-40.167 -88.833 -51.5 -145.5c38.667 2.66699 72.5 20.5 101.5 53.5s43.5 70.167 43.5 111.5c0 14 -2 24.333 -6 31
s-10.333 10 -19 10z" />
    <glyph glyph-name="dotlessi" unicode="&#x131;" horiz-adv-x="267" 
d="M-8 114c0 8.66699 0.666016 18.5 1.99902 29.5s3.33301 22.833 6 35.5l68 321h144l-72 -340c-1.33301 -6 -2.33301 -11.5 -3 -16.5s-1 -10.167 -1 -15.5c0 -13.333 3.16699 -22.833 9.5 -28.5s16.833 -8.5 31.5 -8.5c18.667 0 36.334 8.16699 53.001 24.5
s29 37.5 37 63.5h42c-21.333 -60.667 -50 -106.667 -86 -138s-77.333 -47 -124 -47c-33.333 0 -59.5 10.5 -78.5 31.5s-28.5 50.5 -28.5 88.5z" />
    <glyph glyph-name="Lslash" unicode="&#x141;" horiz-adv-x="392" 
d="M373 -37c53.333 -29.333 94.335 -48.667 123.002 -58s56.334 -14 83.001 -14c15.333 0 29.833 1.33301 43.5 4s27.167 6.66699 40.5 12c-5.33301 -48 -17.333 -86.167 -36 -114.5s-41.334 -42.5 -68.001 -42.5c-24 0 -49.5 6.5 -76.5 19.5s-67.833 41.167 -122.5 84.5
c-62.667 50.667 -111.334 83.834 -146.001 99.501s-68.334 23.5 -101.001 23.5h-14c-3.33301 0 -6.33301 -0.333008 -9 -1l70 319l-65 -39l2 53l76 49l66 311c-45.333 -18.667 -80 -46.667 -104 -84s-36 -82 -36 -134c0 -12.667 0.833008 -23.667 2.5 -33
s4.5 -18.333 8.5 -27c1.33301 -2.66699 2.16602 -4.5 2.49902 -5.5s0.5 -1.83301 0.5 -2.5c-37.333 0 -64.5 7.83301 -81.5 23.5s-25.5 40.167 -25.5 73.5s11.167 66.666 33.5 99.999s53.5 63.333 93.5 90c34 22 70.5 39.167 109.5 51.5s77.167 18.5 114.5 18.5
c4.66699 0 9.83398 -0.166992 15.501 -0.5l24.5 -1.5l-55 -263l116 69l-4 -61l-127 -78l-84 -385c15.333 -3.33301 31.833 -8.83301 49.5 -16.5s44.5 -21.167 80.5 -40.5z" />
    <glyph glyph-name="lslash" unicode="&#x142;" horiz-adv-x="286" 
d="M99 -6c-33.333 0 -59.501 10.501 -78.501 31.501s-28.5 50.833 -28.5 89.5c0 8.66699 0.666992 18.167 2 28.5s3.33301 22.166 6 35.499l23 107l-57 -37v58l71 43l70 330l148 20l-50 -237l118 71l-4 -61l-56.5 -33l-72.5 -45l-50 -235
c-1.33301 -6 -2.33301 -11.5 -3 -16.5s-1 -10.167 -1 -15.5c0 -13.333 3.16699 -22.833 9.5 -28.5s16.833 -8.5 31.5 -8.5c18.667 0 36.334 8.16699 53.001 24.5s29 37.5 37 63.5h42c-21.333 -60.667 -50 -106.667 -86 -138s-77.333 -47 -124 -47z" />
    <glyph glyph-name="Nacute" unicode="&#x143;" horiz-adv-x="702" 
d="M692 1000l-121 -189h-75l91 189h105zM382 736l79.001 -530.001l109 542h144l-159 -748h-121l-85 523l-111 -523h-144l144 679c-44.667 -18.667 -79 -46.667 -103 -84s-36 -82 -36 -134c0 -12.667 0.833008 -23.667 2.5 -33s4.5 -18.333 8.5 -27
c1.33301 -2.66699 2.16602 -4.5 2.49902 -5.5s0.5 -1.83301 0.5 -2.5c-37.333 0 -64.5 7.83301 -81.5 23.5s-25.5 40.167 -25.5 73.5c0 32 8 64.5 24 97.5s38 62.167 66 87.5c26.667 24.667 56.5 43.334 89.5 56.001s67.5 19 103.5 19c26 0 45.5 -1.16699 58.5 -3.5
s24.5 -5.83301 34.5 -10.5z" />
    <glyph glyph-name="nacute" unicode="&#x144;" horiz-adv-x="505" 
d="M460 750l-121 -189h-75l91 189h105zM243 107c0 12 1.50293 26.999 4.50293 44.999s9.16699 46.667 18.5 86c9.33301 38 15.333 65.333 18 82s4 30.667 4 42c0 16.667 -3 29.334 -9 38.001s-15 13 -27 13c-16 0 -30.833 -8.16699 -44.5 -24.5
s-24.834 -38.833 -33.501 -67.5l-68 -321h-144l106 500h144l-11 -52c16.667 18.667 34.667 32.667 54 42s40.333 14 63 14c35.333 0 62.666 -9.66699 81.999 -29s29 -47.333 29 -84c0 -15.333 -1.83301 -33.5 -5.5 -54.5s-10.834 -53.167 -21.501 -96.5
c-8.66699 -34 -14.334 -58 -17.001 -72s-4 -25.667 -4 -35c0 -14 3.33301 -24.5 10 -31.5s16.667 -10.5 30 -10.5c16.667 0 31 5.66699 43 17s25.667 35 41 71h42c-21.333 -62 -47.166 -108.333 -77.499 -139s-66.5 -46 -108.5 -46c-37.333 0 -66.333 10.167 -87 30.5
s-31 47.833 -31 82.5z" />
    <glyph glyph-name="OE" unicode="&#x152;" horiz-adv-x="846" 
d="M611 666c14.667 -21.333 25.832 -46.5 33.499 -75.5s11.5 -61.167 11.5 -96.5c0 -10.667 -0.333008 -22.167 -1 -34.5s-2 -25.833 -4 -40.5h133l-20 -74h-127c-11.333 -47.333 -26.666 -91.5 -45.999 -132.5s-42 -76.5 -68 -106.5h243l-21 -106h-387
c-14.667 -2 -27.667 -3.5 -39 -4.5s-22 -1.5 -32 -1.5c-58.667 0 -103.167 17 -133.5 51s-45.5 84 -45.5 150c0 42.667 5.66699 89.834 17 141.501s26.666 99.167 45.999 142.5c26.667 60 57.667 105.833 93 137.5s73.666 47.5 114.999 47.5
c9.33301 0 18.333 -0.666992 27 -2s17 -3.33301 25 -6c-42.667 -26 -82.5 -89.333 -119.5 -190s-55.5 -192.334 -55.5 -275.001c0 -37.333 5 -66 15 -86s24.333 -30 43 -30c27.333 0 55.333 17.667 84 53s54 82.666 76 141.999c16 42 28.167 85.5 36.5 130.5
s12.5 87.833 12.5 128.5c0 66.667 -9.66699 112.5 -29 137.5s-52.333 37.5 -99 37.5c-82 0 -150.5 -24.167 -205.5 -72.5s-82.5 -109.833 -82.5 -184.5c0 -9.33301 0.5 -17.5 1.5 -24.5s3.16699 -14.167 6.5 -21.5c0.666992 -2.66699 1.16699 -4.5 1.5 -5.5
s0.5 -1.83301 0.5 -2.5c-34 0 -59.333 6.83301 -76 20.5s-25 34.834 -25 63.501c0 37.333 13.167 74.166 39.5 110.499s62.833 68.166 109.5 95.499c37.333 21.333 77.833 37.833 121.5 49.5s87.834 17.5 132.501 17.5c20.667 0 40.334 -1.66699 59.001 -5s35.667 -8 51 -14
c19.333 6.66699 39.166 11.5 59.499 14.5s43.5 4.5 69.5 4.5c6 0 13.333 -0.333008 22 -1s23 -2 43 -4c26.667 -2.66699 47.167 -4.5 61.5 -5.5s27.5 -1.5 39.5 -1.5c18 0 34.333 1 49 3s28.334 5 41.001 9c-0.666992 -1.33301 -3.66699 -11.666 -9 -30.999
s-11.666 -34.666 -18.999 -45.999s-16.5 -20.5 -27.5 -27.5s-24.167 -12.167 -39.5 -15.5c-16 0 -32.833 1.33301 -50.5 4s-42.834 8 -75.501 16c-22.667 5.33301 -39.5 9 -50.5 11s-21.5 3.66699 -31.5 5z" />
    <glyph glyph-name="oe" unicode="&#x153;" horiz-adv-x="663" 
d="M561 456c-24 0 -47.168 -19.502 -69.501 -58.502s-40.166 -88.5 -53.499 -148.5c42.667 0.666992 79.5 16.334 110.5 47.001s46.833 65.334 47.5 104.001c0 17.333 -3 31 -9 41s-14.667 15 -26 15zM154.999 330.998c-8.66699 -26 -15.668 -54.166 -21.001 -84.499
s-8 -56.833 -8 -79.5c0 -26 5.33301 -45.167 16 -57.5s27.667 -18.5 51 -18.5c26 0 48.5 17.333 67.5 52s32.167 81.667 39.5 141c-13.333 0 -23.666 4.16699 -30.999 12.5s-11 19.166 -11 32.499c0 15.333 4.16699 29.666 12.5 42.999s18.833 22.333 31.5 27
c-1.33301 18 -5.5 31.167 -12.5 39.5s-16.833 12.5 -29.5 12.5c-21.333 0 -40.833 -10.167 -58.5 -30.5s-33.167 -50.166 -46.5 -89.499zM145.998 -6.00098c-54.667 0 -93.835 12.833 -117.502 38.5s-35.5 67.5 -35.5 125.5c0 110 24 196.167 72 258.5
s111.667 93.5 191 93.5c29.333 0 53.5 -7.16699 72.5 -21.5s32.167 -35.5 39.5 -63.5c20.667 28 44.334 49 71.001 63s56.334 21 89.001 21c42 0 73.833 -8.83301 95.5 -26.5s32.5 -43.5 32.5 -77.5c0 -52 -22.5 -97 -67.5 -135s-97.833 -61 -158.5 -69l-2 -23
c-0.666992 -7.33301 -1 -14 -1 -20c0 -27.333 7.33301 -48.5 22 -63.5s34.667 -22.5 60 -22.5c26.667 0 57.167 13.333 91.5 40s59.833 57.334 76.5 92.001h45c-36 -64.667 -78.333 -114.834 -127 -150.501s-100.334 -53.5 -155.001 -53.5c-32 0 -59.667 7.66699 -83 23
s-40.666 36.666 -51.999 63.999c-21.333 -29.333 -45.833 -52.166 -73.5 -68.499s-56.167 -24.5 -85.5 -24.5z" />
    <glyph glyph-name="Sacute" unicode="&#x15a;" horiz-adv-x="570" 
d="M554 1000l-121 -189h-75l91 189h105zM152 571c0 51.333 22.1689 94.0029 66.502 128.003s99.166 51 164.499 51c50.667 0 90.167 -10.333 118.5 -31s42.5 -50.334 42.5 -89.001c0 -30 -7.5 -54.333 -22.5 -73s-34.833 -28 -59.5 -28c-9.33301 0 -17.833 1.66699 -25.5 5
s-14.5 8.66602 -20.5 15.999c13.333 8 24.166 20 32.499 36s12.5 32.667 12.5 50c0 21.333 -6.33301 37.833 -19 49.5s-31 17.5 -55 17.5c-28.667 0 -51.167 -8 -67.5 -24s-24.5 -38.333 -24.5 -67c0 -23.333 6 -45.5 18 -66.5s38 -49.167 78 -84.5
c52.667 -46 87.334 -85.833 104.001 -119.5s25 -71.167 25 -112.5c0 -76 -26.333 -136.667 -79 -182s-120 -68 -202 -68c-65.333 0 -117 15 -155 45s-57 72.333 -57 127c0 48 14.333 87.333 43 118s63.334 46 104.001 46c25.333 0 46 -5.83301 62 -17.5
s24.667 -27.834 26 -48.501c-34.667 0 -62.834 -8.33301 -84.501 -25s-32.5 -39.667 -32.5 -69c0 -28 8.66699 -51 26 -69s40.666 -27 69.999 -27c34.667 0 62.667 12 84 36s32 56.333 32 97c0 31.333 -7 61.333 -21 90s-43 67 -87 115
c-40 42.667 -66.167 76.167 -78.5 100.5s-18.5 48.833 -18.5 73.5z" />
    <glyph glyph-name="sacute" unicode="&#x15b;" horiz-adv-x="382" 
d="M409 750l-121 -189h-75l91 189h105zM314 167c0 -8 -0.333984 -15.001 -1.00098 -21.001s-1.66699 -11.667 -3 -17c13.333 8 26.333 16.333 39 25s23.667 17 33 25h42c-20.667 -24 -43.5 -46.167 -68.5 -66.5s-53.167 -39.833 -84.5 -58.5
c-18 -19.333 -41 -34.166 -69 -44.499s-57.333 -15.5 -88 -15.5c-44.667 0 -80.167 12.167 -106.5 36.5s-39.5 54.833 -39.5 91.5c0 20.667 5 39.5 15 56.5s22.667 29.167 38 36.5c22.667 40.667 43.834 84.167 63.501 130.5s39.5 101.5 59.5 165.5l148 20
c2 -50 4.33301 -95.667 7 -137s6 -86.333 10 -135c2 -28 3.33301 -47.667 4 -59s1 -22.333 1 -33zM149.999 402.999c-8.66699 -27.333 -19.165 -55.834 -31.498 -85.501s-28.833 -64.167 -49.5 -103.5c7.33301 -3.33301 13 -8 17 -14s6 -13 6 -21
c0 -12.667 -4.33301 -24 -13 -34s-19 -15 -31 -15c-6.66699 0 -12.334 1.16699 -17.001 3.5s-8 5.5 -10 9.5c0 -24.667 4.83301 -42.5 14.5 -53.5s25.167 -16.5 46.5 -16.5c27.333 0 48.666 8 63.999 24s23 39 23 69c0 9.33301 -0.333008 18.833 -1 28.5
s-2 25.834 -4 48.501c-3.33301 31.333 -6 59 -8 83s-4 49.667 -6 77z" />
    <glyph glyph-name="Scaron" unicode="&#x160;" horiz-adv-x="570" 
d="M379 811h-21l-60 189h32l60 -80l157 80h44zM152 571c0 51.333 22.1689 94.0029 66.502 128.003s99.166 51 164.499 51c50.667 0 90.167 -10.333 118.5 -31s42.5 -50.334 42.5 -89.001c0 -30 -7.5 -54.333 -22.5 -73s-34.833 -28 -59.5 -28
c-9.33301 0 -17.833 1.66699 -25.5 5s-14.5 8.66602 -20.5 15.999c13.333 8 24.166 20 32.499 36s12.5 32.667 12.5 50c0 21.333 -6.33301 37.833 -19 49.5s-31 17.5 -55 17.5c-28.667 0 -51.167 -8 -67.5 -24s-24.5 -38.333 -24.5 -67c0 -23.333 6 -45.5 18 -66.5
s38 -49.167 78 -84.5c52.667 -46 87.334 -85.833 104.001 -119.5s25 -71.167 25 -112.5c0 -76 -26.333 -136.667 -79 -182s-120 -68 -202 -68c-65.333 0 -117 15 -155 45s-57 72.333 -57 127c0 48 14.333 87.333 43 118s63.334 46 104.001 46c25.333 0 46 -5.83301 62 -17.5
s24.667 -27.834 26 -48.501c-34.667 0 -62.834 -8.33301 -84.501 -25s-32.5 -39.667 -32.5 -69c0 -28 8.66699 -51 26 -69s40.666 -27 69.999 -27c34.667 0 62.667 12 84 36s32 56.333 32 97c0 31.333 -7 61.333 -21 90s-43 67 -87 115
c-40 42.667 -66.167 76.167 -78.5 100.5s-18.5 48.833 -18.5 73.5z" />
    <glyph glyph-name="scaron" unicode="&#x161;" horiz-adv-x="369" 
d="M219 561h-21l-60 189h32l60 -80l157 80h44zM314 167c0 -8 -0.333984 -15.001 -1.00098 -21.001s-1.66699 -11.667 -3 -17c13.333 8 26.333 16.333 39 25s23.667 17 33 25h42c-20.667 -24 -43.5 -46.167 -68.5 -66.5s-53.167 -39.833 -84.5 -58.5
c-18 -19.333 -41 -34.166 -69 -44.499s-57.333 -15.5 -88 -15.5c-44.667 0 -80.167 12.167 -106.5 36.5s-39.5 54.833 -39.5 91.5c0 20.667 5 39.5 15 56.5s22.667 29.167 38 36.5c22.667 40.667 43.834 84.167 63.501 130.5s39.5 101.5 59.5 165.5l148 20
c2 -50 4.33301 -95.667 7 -137s6 -86.333 10 -135c2 -28 3.33301 -47.667 4 -59s1 -22.333 1 -33zM149.999 402.999c-8.66699 -27.333 -19.165 -55.834 -31.498 -85.501s-28.833 -64.167 -49.5 -103.5c7.33301 -3.33301 13 -8 17 -14s6 -13 6 -21
c0 -12.667 -4.33301 -24 -13 -34s-19 -15 -31 -15c-6.66699 0 -12.334 1.16699 -17.001 3.5s-8 5.5 -10 9.5c0 -24.667 4.83301 -42.5 14.5 -53.5s25.167 -16.5 46.5 -16.5c27.333 0 48.666 8 63.999 24s23 39 23 69c0 9.33301 -0.333008 18.833 -1 28.5
s-2 25.834 -4 48.501c-3.33301 31.333 -6 59 -8 83s-4 49.667 -6 77z" />
    <glyph glyph-name="Ydieresis" unicode="&#x178;" horiz-adv-x="620" 
d="M681 884c0 -16.667 -6 -31 -18 -43s-26.333 -18 -43 -18s-31 6 -43 18s-18 26.333 -18 43s6 31 18 43s26.333 18 43 18s31 -6 43 -18s18 -26.333 18 -43zM501 884c0 -16.667 -6 -31 -18 -43s-26.333 -18 -43 -18s-31 6 -43 18s-18 26.333 -18 43s6 31 18 43
s26.333 18 43 18s31 -6 43 -18s18 -26.333 18 -43zM698 745l-194 -437l-66 -308h-160l66 308l-96 375c-48 -17.333 -84.833 -45.166 -110.5 -83.499s-38.5 -84.5 -38.5 -138.5c0 -12.667 0.833008 -23.667 2.5 -33s4.5 -18.333 8.5 -27
c1.33301 -2.66699 2.16602 -4.5 2.49902 -5.5s0.5 -1.83301 0.5 -2.5c-37.333 0 -64.5 7.83301 -81.5 23.5s-25.5 40.167 -25.5 73.5s11.167 66.666 33.5 99.999s53.5 63.333 93.5 90c34 22 70.5 39.167 109.5 51.5s77.167 18.5 114.5 18.5
c4.66699 0 9.83398 -0.166992 15.501 -0.5l24.5 -1.5l87 -358l148 355h66z" />
    <glyph glyph-name="Zacute" unicode="&#x179;" horiz-adv-x="542" 
d="M559 1000l-121 -189h-75l91 189h105zM249 64c15.333 -0.666992 26.668 -1 34.001 -1h20c30.667 0 54.334 1.83301 71.001 5.5s27.667 9.16699 33 16.5c-5.33301 0 -9.66602 2.83301 -12.999 8.5s-5 13.167 -5 22.5c0 18 5.66699 32.167 17 42.5s25.666 15.5 42.999 15.5
c16 0 28.5 -5.33301 37.5 -16s13.5 -24.667 13.5 -42c0 -30 -12.333 -56.833 -37 -80.5s-55 -35.5 -91 -35.5h-361l350 696h-12c-4.66699 0 -12.334 0.333008 -23.001 1c-14.667 0.666992 -25.834 1 -33.501 1h-21.5c-31.333 0 -54.5 -1.83301 -69.5 -5.5
s-22.5 -9.16699 -22.5 -16.5c4.66699 0 8.66699 -2.83301 12 -8.5s5 -13.5 5 -23.5c0 -18 -5.5 -32 -16.5 -42s-25.167 -15 -42.5 -15c-16 0 -28.5 5.33301 -37.5 16s-13.5 25 -13.5 43c0 28.667 11.5 53.167 34.5 73.5s52.5 30.5 88.5 30.5h343l-345 -685h15
c6 0 15 -0.333008 27 -1z" />
    <glyph glyph-name="zacute" unicode="&#x17a;" horiz-adv-x="428" 
d="M429 750l-121 -189h-75l91 189h105zM205 75l33.498 -3c7.66699 -0.666992 14.5 -1 20.5 -1c14.667 0 25.834 1.66699 33.501 5s12.167 8.33301 13.5 15c-6 0.666992 -10.667 2.83398 -14 6.50098s-5 8.5 -5 14.5c0 11.333 5.33301 21.333 16 30s24 13 40 13
c14 0 24.833 -4.33301 32.5 -13s11.5 -20.334 11.5 -35.001c0 -27.333 -11.833 -52 -35.5 -74s-52.5 -33 -86.5 -33h-265l255 446h-56c-20.667 0 -35 -1.33301 -43 -4s-12 -6.66699 -12 -12l5.5 -4c3.66699 -2.66699 5.5 -8.66699 5.5 -18
c0 -16 -5.16699 -28.833 -15.5 -38.5s-23.166 -14.5 -38.499 -14.5c-13.333 0 -24.333 4 -33 12s-13 18.667 -13 32c0 24.667 11.5 47.667 34.5 69s50.167 32 81.5 32h257l-245 -423c2 0 4.5 -0.166992 7.5 -0.5s7.83301 -0.833008 14.5 -1.5z" />
    <glyph glyph-name="Zdotaccent" unicode="&#x17b;" horiz-adv-x="530" 
d="M299 884c0 16.667 6 31 18 43s26.333 18 43 18s31 -6 43 -18s18 -26.333 18 -43s-6 -31 -18 -43s-26.333 -18 -43 -18s-31 6 -43 18s-18 26.333 -18 43zM249 64c15.333 -0.666992 26.668 -1 34.001 -1h20c30.667 0 54.334 1.83301 71.001 5.5s27.667 9.16699 33 16.5
c-5.33301 0 -9.66602 2.83301 -12.999 8.5s-5 13.167 -5 22.5c0 18 5.66699 32.167 17 42.5s25.666 15.5 42.999 15.5c16 0 28.5 -5.33301 37.5 -16s13.5 -24.667 13.5 -42c0 -30 -12.333 -56.833 -37 -80.5s-55 -35.5 -91 -35.5h-361l350 696h-12
c-4.66699 0 -12.334 0.333008 -23.001 1c-14.667 0.666992 -25.834 1 -33.501 1h-21.5c-31.333 0 -54.5 -1.83301 -69.5 -5.5s-22.5 -9.16699 -22.5 -16.5c4.66699 0 8.66699 -2.83301 12 -8.5s5 -13.5 5 -23.5c0 -18 -5.5 -32 -16.5 -42s-25.167 -15 -42.5 -15
c-16 0 -28.5 5.33301 -37.5 16s-13.5 25 -13.5 43c0 28.667 11.5 53.167 34.5 73.5s52.5 30.5 88.5 30.5h343l-345 -685h15c6 0 15 -0.333008 27 -1z" />
    <glyph glyph-name="zdotaccent" unicode="&#x17c;" horiz-adv-x="428" 
d="M219 634c0 16.667 6 31 18 43s26.333 18 43 18s31 -6 43 -18s18 -26.333 18 -43s-6 -31 -18 -43s-26.333 -18 -43 -18s-31 6 -43 18s-18 26.333 -18 43zM205 75l33.498 -3c7.66699 -0.666992 14.5 -1 20.5 -1c14.667 0 25.834 1.66699 33.501 5s12.167 8.33301 13.5 15
c-6 0.666992 -10.667 2.83398 -14 6.50098s-5 8.5 -5 14.5c0 11.333 5.33301 21.333 16 30s24 13 40 13c14 0 24.833 -4.33301 32.5 -13s11.5 -20.334 11.5 -35.001c0 -27.333 -11.833 -52 -35.5 -74s-52.5 -33 -86.5 -33h-265l255 446h-56c-20.667 0 -35 -1.33301 -43 -4
s-12 -6.66699 -12 -12l5.5 -4c3.66699 -2.66699 5.5 -8.66699 5.5 -18c0 -16 -5.16699 -28.833 -15.5 -38.5s-23.166 -14.5 -38.499 -14.5c-13.333 0 -24.333 4 -33 12s-13 18.667 -13 32c0 24.667 11.5 47.667 34.5 69s50.167 32 81.5 32h257l-245 -423
c2 0 4.5 -0.166992 7.5 -0.5s7.83301 -0.833008 14.5 -1.5z" />
    <glyph glyph-name="Zcaron" unicode="&#x17d;" horiz-adv-x="542" 
d="M385 811h-21l-60 189h32l60 -80l157 80h44zM249 64c15.333 -0.666992 26.668 -1 34.001 -1h20c30.667 0 54.334 1.83301 71.001 5.5s27.667 9.16699 33 16.5c-5.33301 0 -9.66602 2.83301 -12.999 8.5s-5 13.167 -5 22.5c0 18 5.66699 32.167 17 42.5
s25.666 15.5 42.999 15.5c16 0 28.5 -5.33301 37.5 -16s13.5 -24.667 13.5 -42c0 -30 -12.333 -56.833 -37 -80.5s-55 -35.5 -91 -35.5h-361l350 696h-12c-4.66699 0 -12.334 0.333008 -23.001 1c-14.667 0.666992 -25.834 1 -33.501 1h-21.5
c-31.333 0 -54.5 -1.83301 -69.5 -5.5s-22.5 -9.16699 -22.5 -16.5c4.66699 0 8.66699 -2.83301 12 -8.5s5 -13.5 5 -23.5c0 -18 -5.5 -32 -16.5 -42s-25.167 -15 -42.5 -15c-16 0 -28.5 5.33301 -37.5 16s-13.5 25 -13.5 43c0 28.667 11.5 53.167 34.5 73.5
s52.5 30.5 88.5 30.5h343l-345 -685h15c6 0 15 -0.333008 27 -1z" />
    <glyph glyph-name="zcaron" unicode="&#x17e;" horiz-adv-x="428" 
d="M268 561h-21l-60 189h32l60 -80l157 80h44zM205 75l33.498 -3c7.66699 -0.666992 14.5 -1 20.5 -1c14.667 0 25.834 1.66699 33.501 5s12.167 8.33301 13.5 15c-6 0.666992 -10.667 2.83398 -14 6.50098s-5 8.5 -5 14.5c0 11.333 5.33301 21.333 16 30s24 13 40 13
c14 0 24.833 -4.33301 32.5 -13s11.5 -20.334 11.5 -35.001c0 -27.333 -11.833 -52 -35.5 -74s-52.5 -33 -86.5 -33h-265l255 446h-56c-20.667 0 -35 -1.33301 -43 -4s-12 -6.66699 -12 -12l5.5 -4c3.66699 -2.66699 5.5 -8.66699 5.5 -18
c0 -16 -5.16699 -28.833 -15.5 -38.5s-23.166 -14.5 -38.499 -14.5c-13.333 0 -24.333 4 -33 12s-13 18.667 -13 32c0 24.667 11.5 47.667 34.5 69s50.167 32 81.5 32h257l-245 -423c2 0 4.5 -0.166992 7.5 -0.5s7.83301 -0.833008 14.5 -1.5z" />
    <glyph glyph-name="florin" unicode="&#x192;" horiz-adv-x="271" 
d="M292 500l-8.00195 -40h-75l-114 -540c-12 -56.667 -33 -99.167 -63 -127.5s-68.667 -42.5 -116 -42.5c-32.667 0 -60.5 10.333 -83.5 31s-34.5 46.334 -34.5 77.001c0 34.667 11.5 63 34.5 85s68.833 43.667 137.5 65l96 452h-60l8 40h60l17 79
c12 56 33.333 98.333 64 127s70 43 118 43c32.667 0 60.5 -10.333 83.5 -31s34.5 -46.334 34.5 -77.001c0 -8 -0.166992 -15.333 -0.5 -22s-1.16602 -13 -2.49902 -19h-47c1.33301 10.667 2 17.167 2 19.5v7.5c0 10.667 -3.5 19 -10.5 25s-16.167 9 -27.5 9
c-16.667 0 -31.167 -7 -43.5 -21s-21.166 -34.333 -26.499 -61l-17 -79h74zM-37.002 -25c-38.667 -12.667 -66.667 -27.3311 -84 -43.998s-26 -36.334 -26 -59.001c0 -8 4.16699 -15.5 12.5 -22.5s17.5 -10.5 27.5 -10.5c12.667 0 24 6.66699 34 20s17.667 32.666 23 57.999
z" />
    <glyph glyph-name="circumflex" unicode="&#x2c6;" horiz-adv-x="293" 
d="M212 750h21l60 -189h-32l-60 80l-157 -80h-44z" />
    <glyph glyph-name="caron" unicode="&#x2c7;" horiz-adv-x="294" 
d="M181 561h-21l-60 189h32l60 -80l157 80h44z" />
    <glyph glyph-name="ring" unicode="&#x2da;" horiz-adv-x="156" 
d="M70 552c-20.667 0 -37.502 6.66699 -50.502 20s-19.5 30 -19.5 50c0 24 7.83301 45.167 23.5 63.5s36.167 27.5 61.5 27.5c22.667 0 40.334 -6.83301 53.001 -20.5s19 -32.5 19 -56.5c0 -26 -7.66699 -46.5 -23 -61.5s-36.666 -22.5 -63.999 -22.5zM39.998 624
c0 -12 2.83203 -21.167 8.49902 -27.5s14.167 -9.5 25.5 -9.5c14.667 0 26 4 34 12s12 19.333 12 34c0 17.333 -2.66699 29.5 -8 36.5s-13.666 10.5 -24.999 10.5c-14.667 0 -26.167 -5.16699 -34.5 -15.5s-12.5 -23.833 -12.5 -40.5z" />
    <glyph glyph-name="ogonek" unicode="&#x2db;" horiz-adv-x="291" 
d="M124 -193c-24 0 -43.167 7.50098 -57.5 22.501s-21.5 33.5 -21.5 55.5c0 18.667 6.66699 38.5 20 59.5s32.333 41.167 57 60.5h70c-16.667 -6 -31.5 -17.833 -44.5 -35.5s-19.5 -35.5 -19.5 -53.5c0 -14 3.5 -25.833 10.5 -35.5s16.5 -14.5 28.5 -14.5
c5.33301 0 10.833 1 16.5 3s12.167 5 19.5 9c4 2.66699 9.66699 6.66699 17 12s12.333 8.66602 15 9.99902l-1 -11c-0.666992 -7.33301 -1 -14 -1 -20l-32 -28.5c-8 -7 -13.333 -11.5 -16 -13.5c-10 -6.66699 -20 -11.667 -30 -15s-20.333 -5 -31 -5z" />
    <glyph glyph-name="tilde" unicode="&#x2dc;" horiz-adv-x="403" 
d="M297 662c19.333 -6 33.832 -10.001 43.499 -12.001s19.5 -3 29.5 -3c12.667 0 24.667 2 36 6s20.333 9.66699 27 17l6 -1c-6 -25.333 -25.333 -48.333 -58 -69s-67 -31 -103 -31c-12 0 -24.5 1.33301 -37.5 4s-31.167 8 -54.5 16
c-20.667 6.66699 -36.167 11.167 -46.5 13.5s-20.166 3.5 -29.499 3.5c-12.667 0 -24.5 -2.16699 -35.5 -6.5s-21.167 -10.833 -30.5 -19.5l-6 2c16 32 38.333 56.333 67 73s62 25 100 25c13.333 0 26.5 -1.16699 39.5 -3.5s30.5 -7.16602 52.5 -14.499z" />
    <glyph glyph-name="bn_danda" unicode="&#x964;" horiz-adv-x="453" 
d="M398 597c0 -4.66699 -0.168945 -9.83496 -0.501953 -15.502s-1.16602 -11.5 -2.49902 -17.5l-93 -441c-6 -28 -8.66699 -51.333 -8 -70s5 -33.667 13 -45c-6.66699 -8.66699 -15.667 -15.834 -27 -21.501s-23 -8.5 -35 -8.5c-22 0 -38.333 6.16699 -49 18.5
s-16 31.833 -16 58.5c0 13.333 1 27.833 3 43.5s5 32.834 9 51.501l86 396c4 18.667 5.66699 35.334 5 50.001s-4 29 -10 43c11.333 8 21.833 13.5 31.5 16.5s20.834 4.5 33.501 4.5c20 0 35 -5.16699 45 -15.5s15 -26.166 15 -47.499z" />
    <glyph glyph-name="bn_doubledanda" unicode="&#x965;" horiz-adv-x="668" 
d="M618 597c0 -4.66699 -0.168945 -9.83496 -0.501953 -15.502s-1.16602 -11.5 -2.49902 -17.5l-93 -441c-6 -28 -8.66699 -51.333 -8 -70s5 -33.667 13 -45c-6.66699 -8.66699 -15.667 -15.834 -27 -21.501s-23 -8.5 -35 -8.5c-22 0 -38.333 6.16699 -49 18.5
s-16 31.833 -16 58.5c0 13.333 1 27.833 3 43.5s5 32.834 9 51.501l86 396c4 18.667 5.66699 35.334 5 50.001s-4 29 -10 43c11.333 8 21.833 13.5 31.5 16.5s20.834 4.5 33.501 4.5c20 0 35 -5.16699 45 -15.5s15 -26.166 15 -47.499zM397.998 596.999
c0 -4.66699 -0.168945 -9.83496 -0.501953 -15.502s-1.16602 -11.5 -2.49902 -17.5l-93 -441c-6 -28 -8.66699 -51.333 -8 -70s5 -33.667 13 -45c-6.66699 -8.66699 -15.667 -15.834 -27 -21.501s-23 -8.5 -35 -8.5c-22 0 -38.333 6.16699 -49 18.5s-16 31.833 -16 58.5
c0 13.333 1 27.833 3 43.5s5 32.834 9 51.501l86 396c4 18.667 5.66699 35.334 5 50.001s-4 29 -10 43c11.333 8 21.833 13.5 31.5 16.5s20.834 4.5 33.501 4.5c20 0 35 -5.16699 45 -15.5s15 -26.166 15 -47.499z" />
    <glyph glyph-name="bn_chandrabindu" unicode="&#x981;" 
d="M-132 1011c15.333 0 28 -5.16699 38 -15.5s15 -22.833 15 -37.5s-4.83301 -26.667 -14.5 -36s-22.5 -14 -38.5 -14c-14.667 0 -26.667 4.66699 -36 14s-14 21.333 -14 36s4.83301 27.167 14.5 37.5s21.5 15.5 35.5 15.5zM-272 941c0 20 3.00195 35.501 9.00195 46.501
s14.667 16.5 26 16.5c4 0 8 -0.5 12 -1.5s7.33301 -2.5 10 -4.5c-5.33301 -5.33301 -9.5 -12.333 -12.5 -21s-4.5 -18.334 -4.5 -29.001c0 -22.667 8.5 -41.5 25.5 -56.5s38.5 -22.5 64.5 -22.5c33.333 0 59.166 10.333 77.499 31s34.166 55.667 47.499 105l32 -8
c-20.667 -83.333 -42.5 -140.333 -65.5 -171s-53.167 -46 -90.5 -46c-39.333 0 -71 15 -95 45s-36 68.667 -36 116z" />
    <glyph glyph-name="bn_anusvar" unicode="&#x982;" horiz-adv-x="464" 
d="M60 531c0 44.667 14.333 80.833 43 108.5s65.334 41.5 110.001 41.5c48 0 89.333 -17.333 124 -52s52 -76.667 52 -126c0 -44.667 -14.333 -81 -43 -109s-65.334 -42 -110.001 -42c-48 0 -89.333 17.333 -124 52s-52 77 -52 127zM128 510.999c0 -16 8 -28.833 24 -38.5
s37.667 -14.5 65 -14.5c30 0 54.833 6.16699 74.5 18.5s29.5 27.833 29.5 46.5c0 16 -8 28.833 -24 38.5s-37.667 14.5 -65 14.5c-30 0 -54.833 -6.16699 -74.5 -18.5s-29.5 -27.833 -29.5 -46.5zM355 -0.000976562c-38.667 58 -87.166 104.5 -145.499 139.5
s-129.5 59.833 -213.5 74.5l46 133c73.333 -26.667 139.666 -69.667 198.999 -129s108.333 -132 147 -218h-33z" />
    <glyph glyph-name="bn_bisarga" unicode="&#x983;" horiz-adv-x="459" 
d="M60 531c0 44.667 14.333 80.833 43 108.5s65.334 41.5 110.001 41.5c48 0 89.333 -17.333 124 -52s52 -76.667 52 -126c0 -44.667 -14.333 -81 -43 -109s-65.334 -42 -110.001 -42c-48 0 -89.333 17.333 -124 52s-52 77 -52 127zM128 510.999c0 -16 8 -28.833 24 -38.5
s37.667 -14.5 65 -14.5c30 0 54.833 6.16699 74.5 18.5s29.5 27.833 29.5 46.5c0 16 -8 28.833 -24 38.5s-37.667 14.5 -65 14.5c-30 0 -54.833 -6.16699 -74.5 -18.5s-29.5 -27.833 -29.5 -46.5zM0 167.999c0 44.667 14.333 80.833 43 108.5s65.334 41.5 110.001 41.5
c48 0 89.333 -17.333 124 -52s52 -76.667 52 -126c0 -44.667 -14.333 -81 -43 -109s-65.334 -42 -110.001 -42c-48 0 -89.333 17.333 -124 52s-52 77 -52 127zM68 147.998c0 -16 8 -28.833 24 -38.5s37.667 -14.5 65 -14.5c30 0 54.833 6.16699 74.5 18.5
s29.5 27.833 29.5 46.5c0 16 -8 28.833 -24 38.5s-37.667 14.5 -65 14.5c-30 0 -54.833 -6.16699 -74.5 -18.5s-29.5 -27.833 -29.5 -46.5z" />
    <glyph glyph-name="bn_a" unicode="&#x985;" horiz-adv-x="751" 
d="M447 0l2 8.00586c0.666992 4 1.16699 8 1.5 12s0.5 7.66699 0.5 11c0 22.667 -3.83301 44.5 -11.5 65.5s-19.167 41.167 -34.5 60.5c-17.333 -22 -39 -39.5 -65 -52.5s-54.333 -19.5 -85 -19.5c-36.667 0 -72 10.5 -106 31.5s-64.333 50.833 -91 89.5
c-22.667 33.333 -40.5 69.833 -53.5 109.5s-19.5 78.167 -19.5 115.5c0 25.333 4.5 44.833 13.5 58.5s22.167 20.5 39.5 20.5c7.33301 0 14.666 -1.83301 21.999 -5.5s13.666 -8.5 18.999 -14.5c-10 -12.667 -17.167 -25.834 -21.5 -39.501s-6.5 -29.5 -6.5 -47.5
c0 -56.667 17.667 -105 53 -145s78.333 -60 129 -60c40.667 0 74.334 13.667 101.001 41s40 60.666 40 99.999c0 11.333 -1.66699 21.666 -5 30.999s-8 17.666 -14 24.999c-2.66699 -26 -14.334 -47.833 -35.001 -65.5s-45 -26.5 -73 -26.5
c-35.333 0 -64.166 11.167 -86.499 33.5s-33.5 50.5 -33.5 84.5c0 30.667 10.333 56.5 31 77.5s46.667 31.5 78 31.5c56 0 105.167 -24.333 147.5 -73s63.5 -105.334 63.5 -170.001c0 -4.66699 -0.166992 -9.5 -0.5 -14.5s-0.833008 -9.83301 -1.5 -14.5
c8.66699 -20.667 15.5 -40.5 20.5 -59.5s8.5 -39.167 10.5 -60.5l79 371c-15.333 24.667 -32.833 40.5 -52.5 47.5s-47.834 10.5 -84.501 10.5h-425l-16 104h374c50.667 0 94.167 -9.5 130.5 -28.5s64.5 -47.5 84.5 -85.5c10.667 37.333 27.834 65.666 51.501 84.999
s53.5 29 89.5 29h30l16 -104h-26c-16 0 -29.167 -6 -39.5 -18s-18.166 -30.333 -23.499 -55l-102 -494h-115z" />
    <glyph glyph-name="bn_aa" unicode="&#x986;" horiz-adv-x="1012" 
d="M562 0l-115.002 0.00585938l2 8c0.666992 4 1.16699 8 1.5 12s0.5 7.66699 0.5 11c0 22.667 -3.83301 44.5 -11.5 65.5s-19.167 41.167 -34.5 60.5c-17.333 -22 -39 -39.5 -65 -52.5s-54.333 -19.5 -85 -19.5c-36.667 0 -72.167 10.5 -106.5 31.5
s-64.833 50.5 -91.5 88.5c-22.667 33.333 -40.334 69.833 -53.001 109.5s-19 78.5 -19 116.5c0 25.333 4.5 44.833 13.5 58.5s22.167 20.5 39.5 20.5c7.33301 0 14.666 -1.83301 21.999 -5.5s13.666 -8.5 18.999 -14.5c-10 -12.667 -17.167 -25.834 -21.5 -39.501
s-6.5 -29.5 -6.5 -47.5c0 -58.667 17.333 -107.5 52 -146.5s78 -58.5 130 -58.5c40.667 0 74.334 13.667 101.001 41s40 60.666 40 99.999c0 11.333 -1.66699 21.666 -5 30.999s-8 17.666 -14 24.999c-2.66699 -26 -14.334 -47.833 -35.001 -65.5s-45 -26.5 -73 -26.5
c-35.333 0 -64.166 11.167 -86.499 33.5s-33.5 50.5 -33.5 84.5c0 30.667 10.333 56.5 31 77.5s46.667 31.5 78 31.5c56 0 105.167 -24.333 147.5 -73s63.5 -105.334 63.5 -170.001c0 -4.66699 -0.166992 -9.5 -0.5 -14.5s-0.833008 -9.83301 -1.5 -14.5
c8.66699 -20.667 15.5 -40.5 20.5 -59.5s8.5 -39.167 10.5 -60.5l79 371c-15.333 24.667 -32.833 40.5 -52.5 47.5s-47.834 10.5 -84.501 10.5h-425l-16 104h374c50.667 0 94.167 -9.5 130.5 -28.5s64.5 -47.5 84.5 -85.5c10.667 36 27.334 64 50.001 84s50 30 82 30
c31.333 0 58 -8.16699 80 -24.5s39.667 -40.833 53 -73.5l48 225h34c0 -48 5.5 -81.167 16.5 -99.5s30.5 -27.5 58.5 -27.5h10l16 -104h-7c-11.333 0 -21.666 4.66699 -30.999 14s-17 22.666 -23 39.999l-131 -621h-115l115 532c-11.333 10.667 -25.666 19.167 -42.999 25.5
s-34.666 9.5 -51.999 9.5c-16 0 -29.167 -6 -39.5 -18s-18.166 -30.333 -23.499 -55z" />
    <glyph glyph-name="bn_i" unicode="&#x987;" horiz-adv-x="440" 
d="M-7 567l-15.999 104.002h354c5.33301 3.33301 9 6.5 11 9.5s3 6.83301 3 11.5c0 8 -2.83301 14 -8.5 18s-14.834 6 -27.501 6c-110 0 -191.667 14.667 -245 44s-80 74.333 -80 135c0 24 6 45 18 63s26.667 27 44 27c10 0 17.833 -2.5 23.5 -7.5s11.5 -14.167 17.5 -27.5
c-12.667 -3.33301 -23 -9.83301 -31 -19.5s-12 -20.5 -12 -32.5c0 -14.667 4.83301 -25.834 14.5 -33.501s23.5 -11.5 41.5 -11.5c97.333 0 172.5 -13.167 225.5 -39.5s79.5 -62.833 79.5 -109.5c0 -6 -0.666992 -11.833 -2 -17.5s-3 -10.834 -5 -15.501h28l16 -104h-449z
M318.001 -92.998c-21.333 51.333 -59.3311 92.8311 -113.998 124.498s-123 51.5 -205 59.5l-18 122c96 -8 171.5 4 226.5 36s82.5 76.333 82.5 133c0 22.667 -5.33301 39.834 -16 51.501s-26.667 17.5 -48 17.5c-6.66699 0 -13.667 -0.833008 -21 -2.5
s-14.333 -3.83398 -21 -6.50098c10 -8 17.5 -16.667 22.5 -26s7.5 -20 7.5 -32c0 -28 -10.5 -51.667 -31.5 -71s-46.5 -29 -76.5 -29c-22.667 0 -41.334 8.16699 -56.001 24.5s-22 37.833 -22 64.5c0 40.667 16.833 75.334 50.5 104.001s77.167 43 130.5 43
c46 0 84.333 -16.333 115 -49s46 -74.334 46 -125.001c0 -51.333 -15.5 -96.166 -46.5 -134.499s-74.167 -67.166 -129.5 -86.499c49.333 -28.667 90.666 -60 123.999 -94s50 -62 50 -84c0 -12.667 -4.5 -22.5 -13.5 -29.5s-21.167 -10.5 -36.5 -10.5z" />
    <glyph glyph-name="bn_ii" unicode="&#x988;" horiz-adv-x="605" 
d="M-7 567l-15.999 104.001h458c8 4 13.667 8 17 12s5 8.66699 5 14c0 10 -4.5 17.333 -13.5 22s-22.833 7 -41.5 7c-146.667 0 -255.167 14.167 -325.5 42.5s-105.5 73.833 -105.5 136.5c0 24 6 45 18 63s26.667 27 44 27c10 0 17.833 -2.5 23.5 -7.5
s11.5 -14.167 17.5 -27.5c-12.667 -3.33301 -23 -9.83301 -31 -19.5s-12 -20.5 -12 -32.5c0 -16 7.66699 -27.5 23 -34.5s39.333 -10.5 72 -10.5c136.667 0 236 -12 298 -36s93 -63 93 -117c0 -6.66699 -0.833008 -13.334 -2.5 -20.001s-3.83398 -13 -6.50098 -19h83
l16 -104h-614zM476.001 -101.999c-26 0 -49.6709 24.3301 -71.0039 72.9971s-32 102 -32 160c0 32 1.83301 62.667 5.5 92s9.16699 57 16.5 83l-22.5 -32l-28.5 -41c-52 -77.333 -93.167 -128 -123.5 -152s-61.833 -36 -94.5 -36c-42.667 0 -82.667 17.333 -120 52
s-56 70.667 -56 108c0 11.333 3 20.333 9 27s14 10 24 10c6 0 11.833 -1.16699 17.5 -3.5s10.834 -5.83301 15.501 -10.5c-1.33301 -2.66699 -2.16602 -5.16699 -2.49902 -7.5s-0.5 -5.16602 -0.5 -8.49902c0 -17.333 6.66699 -31.166 20 -41.499s30.333 -15.5 51 -15.5
c41.333 0 74.333 16.667 99 50s37 78.666 37 135.999c0 34 -4.5 58.333 -13.5 73s-23.167 22 -42.5 22h-4.5c-1.66699 0 -3.5 -0.333008 -5.5 -1c6.66699 -6.66699 11.834 -14.667 15.501 -24s5.5 -19.333 5.5 -30c0 -25.333 -9 -47.666 -27 -66.999s-39.333 -29 -64 -29
s-45.167 8.33301 -61.5 25s-24.5 38.334 -24.5 65.001c0 34.667 15 65.5 45 92.5s65.333 40.5 106 40.5c40 0 72.167 -12.667 96.5 -38s41.166 -65.333 50.499 -120c24 32.667 51.833 63.667 83.5 93s62.5 52 92.5 68l119 -86c-51.333 -34 -89.666 -75 -114.999 -123
s-38 -104 -38 -168c0 -42.667 8.33301 -83.667 25 -123s35 -65.333 55 -78c-3.33301 -11.333 -8.66602 -20 -15.999 -26s-16 -9 -26 -9z" />
    <glyph glyph-name="bn_u" unicode="&#x989;" horiz-adv-x="531" 
d="M248 -10c-87.333 0 -154.166 35.667 -200.499 107s-69.5 171 -69.5 299c0 31.333 3.66699 54.833 11 70.5s18.333 23.5 33 23.5c8.66699 0 16.834 -1.83301 24.501 -5.5s14.5 -8.83398 20.5 -15.501c-8.66699 -17.333 -14.834 -34.333 -18.501 -51s-5.5 -34.667 -5.5 -54
c0 -82.667 16.333 -144.667 49 -186s81.334 -62 146.001 -62c52 0 95.167 17.333 129.5 52s49.833 76.334 46.5 125.001c-14.667 -24 -32.667 -42.333 -54 -55s-44 -19 -68 -19c-51.333 0.666992 -92 20.5 -122 59.5s-39.667 86.5 -29 142.5l15 77
c0.666992 4 1.5 7.83301 2.5 11.5s1.83301 7.16699 2.5 10.5c-14.667 20.667 -29.334 33.667 -44.001 39s-34.667 8 -60 8h-64l-16 104h34c37.333 0 69.5 -8.83301 96.5 -26.5s50.167 -45.167 69.5 -82.5c17.333 36.667 44 64 80 82s80.667 27 134 27h8
c12 4.66699 21 9.83398 27 15.501s9 11.834 9 18.501c0 7.33301 -4.66699 12.666 -14 15.999s-23.333 5 -42 5c-129.333 0 -221.666 13.167 -276.999 39.5s-83 72.833 -83 139.5c0 22.667 6 43.167 18 61.5s26.667 27.833 44 28.5c10 -0.666992 17.833 -3.5 23.5 -8.5
s11.5 -13.833 17.5 -26.5c-13.333 -4.66699 -23.833 -11.834 -31.5 -21.501s-11.5 -20.5 -11.5 -32.5c0 -14.667 5.33301 -25.5 16 -32.5s26.667 -10.5 48 -10.5c116.667 0 204.5 -11.5 263.5 -34.5s88.5 -57.167 88.5 -102.5c0 -11.333 -1.16699 -21.5 -3.5 -30.5
s-5.83301 -17.167 -10.5 -24.5h36l16 -104h-114c-42 0 -73.833 -6.5 -95.5 -19.5s-37.834 -35.833 -48.501 -68.5c-18 -54.667 -28.667 -90 -32 -106s-5 -30 -5 -42c0 -9.33301 2 -16.833 6 -22.5s9.66699 -8.5 17 -8.5c12.667 0 28.5 9.5 47.5 28.5
s51.833 58.833 98.5 119.5c21.333 -26 37.166 -54.5 47.499 -85.5s15.833 -66.167 16.5 -105.5c-0.666992 -84 -21 -149.5 -61 -196.5s-94 -70.5 -162 -70.5z" />
    <glyph glyph-name="bn_uu" unicode="&#x98a;" horiz-adv-x="626" 
d="M352 -10c-56.667 0 -108.333 12.165 -155 36.498s-87 59.5 -121 105.5c-29.333 40.667 -52 87.334 -68 140.001s-24 107.334 -24 164.001c0 16 3.16699 28 9.5 36s15.5 12 27.5 12c6.66699 0 12.834 -1.66699 18.501 -5s11.5 -8.66602 17.5 -15.999
c-2 -8.66699 -3.33301 -17.334 -4 -26.001s-1 -18 -1 -28c0 -56.667 9.83301 -107.5 29.5 -152.5s49.834 -84.833 90.501 -119.5c-22.667 39.333 -39.834 82.166 -51.501 128.499s-17.5 96.5 -17.5 150.5c0 23.333 3 40.5 9 51.5s16 16.5 30 16.5
c6.66699 0 12.834 -1.66699 18.501 -5s11.5 -8.66602 17.5 -15.999c-3.33301 -10.667 -5.83301 -22 -7.5 -34s-2.5 -24.667 -2.5 -38c0 -79.333 17.333 -145 52 -197s79 -78 133 -78c47.333 0 86 17.5 116 52.5s43.333 76.5 40 124.5c-14.667 -24 -32.667 -42.333 -54 -55
s-44 -19 -68 -19c-51.333 0.666992 -92 20.5 -122 59.5s-39.667 86.5 -29 142.5l15 77c0.666992 4 1.5 8 2.5 12s2.16699 8 3.5 12c-8 11.333 -14 18.833 -18 22.5s-8.66699 7.16699 -14 10.5c-8 4 -17.333 7 -28 9s-23.667 3 -39 3h-165l-16 104h135
c36.667 0 67.834 -8.33301 93.501 -25s48.167 -44 67.5 -82c17.333 34.667 43.166 61 77.499 79s77.166 27.333 128.499 28c12 4.66699 21 9.83398 27 15.501s9 11.834 9 18.501c0 7.33301 -4.66699 12.666 -14 15.999s-23.333 5 -42 5c-136 0 -235.333 14.167 -298 42.5
s-94 73.833 -94 136.5c0 22.667 6 43.167 18 61.5s26.667 27.833 44 28.5c10 -0.666992 17.833 -3.5 23.5 -8.5s11.5 -13.833 17.5 -26.5c-13.333 -4.66699 -23.833 -11.834 -31.5 -21.501s-11.5 -20.5 -11.5 -32.5c0 -14.667 6 -25.5 18 -32.5s30.667 -10.5 56 -10.5
c124.667 0 218.167 -11.333 280.5 -34s93.5 -57 93.5 -103c0 -11.333 -1.16699 -21.5 -3.5 -30.5s-5.83301 -17.167 -10.5 -24.5h51l16 -104h-114c-42 0 -73.833 -6.5 -95.5 -19.5s-37.834 -35.833 -48.501 -68.5c-18 -54.667 -28.667 -90 -32 -106s-5 -30 -5 -42
c0 -9.33301 2 -16.833 6 -22.5s9.66699 -8.5 17 -8.5c12.667 0 28.5 9.5 47.5 28.5s51.833 58.833 98.5 119.5c21.333 -26 37.166 -54.5 47.499 -85.5s15.833 -66.167 16.5 -105.5c-0.666992 -82 -20.667 -147 -60 -195s-90.666 -72 -153.999 -72z" />
    <glyph glyph-name="bn_ri" unicode="&#x98b;" horiz-adv-x="805" 
d="M301 145l53.001 249c-30 -10 -59.667 -22.833 -89 -38.5s-55.333 -33.5 -78 -53.5c32 -14.667 57.667 -35.5 77 -62.5s31.666 -58.5 36.999 -94.5zM385.001 0h-115.003c13.333 64 -0.5 118.167 -41.5 162.5s-98.167 69.833 -171.5 76.5l-23 99
c42 37.333 88.333 69.833 139 97.5s100.334 47.834 149.001 60.501c-3.33301 12 -8.5 23.5 -15.5 34.5s-14.167 19.5 -21.5 25.5c-26 -26 -50.833 -44.333 -74.5 -55s-50.5 -16 -80.5 -16c-32.667 0 -59 9 -79 27s-30 41.667 -30 71c0 25.333 7 45.5 21 60.5
s33 22.5 57 22.5c23.333 0 42 -7.16699 56 -21.5s22 -34.5 24 -60.5c18.667 16.667 33 32.5 43 47.5s18 31.5 24 49.5c25.333 -10.667 49.333 -33 72 -67s38.334 -70 47.001 -108c2.66699 0.666992 5.16699 1.16699 7.5 1.5s4.5 0.5 6.5 0.5l35 163h115l-64 -299
c21.333 -14 39.5 -32.5 54.5 -55.5s25.5 -48.167 31.5 -75.5l121 557h34c0 -48 5.5 -81.167 16.5 -99.5s30.5 -27.5 58.5 -27.5h10l16 -104h-7c-11.333 0 -21.666 4.66699 -30.999 14s-17 22.666 -23 39.999l-110 -521h-115l2 7c2 10 3.33301 18.167 4 24.5
s1 12.166 1 17.499c0 26 -7.83301 49.333 -23.5 70s-36.167 37.334 -61.5 50.001z" />
    <glyph glyph-name="bn_li" unicode="&#x98c;" horiz-adv-x="614" 
d="M346 -10l-62 97.998c4.66699 14.667 8.33398 29.334 11.001 44.001s4 28.334 4 41.001c0 34.667 -7.83301 61.334 -23.5 80.001s-37.834 28 -66.501 28c-39.333 0 -72.666 -15 -99.999 -45s-41 -65.667 -41 -107c0 -8.66699 1 -16.5 3 -23.5s5.33301 -13.5 10 -19.5
c-2 29.333 5.16699 53.666 21.5 72.999s37.166 29 62.499 29c24 0 44 -7.83301 60 -23.5s24 -35.834 24 -60.501c0 -29.333 -9.66699 -54 -29 -74s-43.666 -30 -72.999 -30c-44 0 -82 20 -114 60s-48 87 -48 141c0 52 16.167 95.167 48.5 129.5s72.166 51.5 119.499 51.5
c57.333 0 104.333 -19.167 141 -57.5s60.667 -92.833 72 -163.5c33.333 38.667 58.833 75 76.5 109s26.5 63.333 26.5 88c0 21.333 -6 36.333 -18 45s-32 13 -60 13c-97.333 0 -171 15.333 -221 46s-75 75 -75 133c0 22 6.16699 42 18.5 60s26.833 27.333 43.5 28
c10 -0.666992 17.833 -3.5 23.5 -8.5s11.5 -13.833 17.5 -26.5c-12.667 -4 -23 -10.833 -31 -20.5s-12 -20.167 -12 -31.5c0 -15.333 7.33301 -26.333 22 -33s39.667 -10 75 -10c93.333 0 163.333 -19.5 210 -58.5s70 -97.5 70 -175.5
c0 -53.333 -12.5 -104.166 -37.5 -152.499s-64.5 -97.833 -118.5 -148.5z" />
    <glyph glyph-name="bn_e" unicode="&#x98f;" horiz-adv-x="617" 
d="M331 0l3.00098 16.0039c0.666992 4 1.16699 8.5 1.5 13.5s0.5 10.167 0.5 15.5c0 20.667 -6.83301 35.667 -20.5 45s-36.167 14 -67.5 14c-78 0 -139.667 20.833 -185 62.5s-68 97.5 -68 167.5c0 43.333 8.83301 81.833 26.5 115.5s37.834 50.5 60.501 50.5
c11.333 0 20.5 -2.83301 27.5 -8.5s12.5 -14.834 16.5 -27.501c-23.333 -13.333 -42 -33.833 -56 -61.5s-21 -56.834 -21 -87.501c0 -21.333 6.5 -37.333 19.5 -48s32.167 -16 57.5 -16c62 0 113.333 -11.5 154 -34.5s66.334 -54.5 77.001 -94.5l89 414
c5.33301 26 6.16602 45.333 2.49902 58s-11.834 19 -24.501 19c-16.667 0 -36.5 -11.833 -59.5 -35.5s-43.167 -52.834 -60.5 -87.501c18.667 -6 33.167 -16.333 43.5 -31s15.5 -31.667 15.5 -51c0 -28.667 -8.83301 -51.834 -26.5 -69.501s-40.834 -26.5 -69.501 -26.5
c-29.333 0 -54 11.167 -74 33.5s-30 50.833 -30 85.5c0 22 6.66699 48.167 20 78.5s31 58.5 53 84.5c22.667 28 47.167 49.5 73.5 64.5s52.5 22.5 78.5 22.5c55.333 0 97.5 -24.167 126.5 -72.5s35.833 -108.5 20.5 -180.5l-89 -428h-115z" />
    <glyph glyph-name="bn_ai" unicode="&#x990;" horiz-adv-x="683" 
d="M331 0l3.00098 16.0029c0.666992 4 1.16699 8.5 1.5 13.5s0.5 10.167 0.5 15.5c0 20.667 -6.83301 35.667 -20.5 45s-36.167 14 -67.5 14c-78 0 -139.667 20.833 -185 62.5s-68 97.5 -68 167.5c0 43.333 8.83301 81.833 26.5 115.5s37.834 50.5 60.501 50.5
c11.333 0 20.5 -2.83301 27.5 -8.5s12.5 -14.834 16.5 -27.501c-23.333 -13.333 -42 -33.833 -56 -61.5s-21 -56.834 -21 -87.501c0 -21.333 6.5 -37.333 19.5 -48s32.167 -16 57.5 -16c62 0 113.333 -11.5 154 -34.5s66.334 -54.5 77.001 -94.5l89 414
c5.33301 26 6.16602 45.333 2.49902 58s-11.834 19 -24.501 19c-16.667 0 -36.5 -11.833 -59.5 -35.5s-43.167 -52.834 -60.5 -87.501c18.667 -6 33.167 -16.333 43.5 -31s15.5 -31.667 15.5 -51c0 -28.667 -8.83301 -51.834 -26.5 -69.501s-40.834 -26.5 -69.501 -26.5
c-29.333 0 -54 11.167 -74 33.5s-30 50.833 -30 85.5c0 22 6.66699 48.167 20 78.5s31 58.5 53 84.5c22.667 28 47.167 49.5 73.5 64.5s52.5 22.5 78.5 22.5c38.667 0 71.5 -12.5 98.5 -37.5s44.167 -57.833 51.5 -98.5c10 12.667 17.5 28 22.5 46s7.5 38.333 7.5 61
c0 30.667 -10.833 54.334 -32.5 71.001s-53.5 25 -95.5 25c-80 0 -141.833 15.667 -185.5 47s-65.5 74.666 -65.5 129.999c0 24 6 45 18 63s26.667 27 44 27c10 0 17.833 -2.5 23.5 -7.5s11.5 -14.167 17.5 -27.5c-12.667 -3.33301 -23 -9.83301 -31 -19.5
s-12 -20.5 -12 -32.5c0 -14.667 6.83301 -25.5 20.5 -32.5s34.834 -10.5 63.501 -10.5c98.667 0 172.167 -18.167 220.5 -54.5s73.166 -93.166 74.499 -170.499c0 -44.667 -9 -88 -27 -130s-40.333 -77 -67 -105l-88 -425h-115z" />
    <glyph glyph-name="bn_o" unicode="&#x993;" horiz-adv-x="645" 
d="M340 -9c-48.667 0 -95.1621 12.8311 -139.495 38.498s-82.5 62.167 -114.5 109.5c-27.333 40 -48.333 84.833 -63 134.5s-22 101.167 -22 154.5c0 27.333 5 48.166 15 62.499s24.333 21.5 43 21.5c8 0 15.833 -1.83301 23.5 -5.5s14.167 -8.83398 19.5 -15.501
c-8.66699 -11.333 -15.334 -25 -20.001 -41s-7 -33.333 -7 -52c0 -38 6.16699 -73.833 18.5 -107.5s30.5 -63.834 54.5 -90.501c25.333 -28 54.666 -50.167 87.999 -66.5s66.666 -24.5 99.999 -24.5c28 0 54.333 7 79 21s43 32.667 55 56
c6.66699 14 10.834 28.833 12.501 44.5s0.5 31.834 -3.5 48.501c-11.333 -9.33301 -23 -16.666 -35 -21.999s-24 -8 -36 -8c-22.667 0 -42.167 8.16699 -58.5 24.5s-24.5 36.833 -24.5 61.5c0 29.333 7.5 52 22.5 68s35.5 24 61.5 24c5.33301 0 10.666 -0.333008 15.999 -1
s10.333 -2 15 -4c12 16.667 22 37.334 30 62.001s12 47.667 12 69c0 16.667 -4.33301 31 -13 43s-19.334 18 -32.001 18c-29.333 0 -59.333 -12.5 -90 -37.5s-54.667 -55.5 -72 -91.5c9.33301 -7.33301 16.666 -16.5 21.999 -27.5s8 -22.833 8 -35.5
c0 -24 -8.66699 -44 -26 -60s-39 -24 -65 -24s-47.167 10 -63.5 30s-24.5 45.667 -24.5 77c0 60 26.5 114.333 79.5 163s111.833 73 176.5 73c57.333 0 103.833 -16.833 139.5 -50.5s53.5 -74.5 53.5 -122.5c0 -28.667 -4.16699 -57.5 -12.5 -86.5s-19.5 -55.5 -33.5 -79.5
c10 -18 17.667 -37.667 23 -59s8 -43.666 8 -66.999c0 -67.333 -20.667 -121.666 -62 -162.999s-94 -62 -158 -62z" />
    <glyph glyph-name="bn_au" unicode="&#x994;" horiz-adv-x="729" 
d="M340 -9c-48.667 0 -95.1621 12.8311 -139.495 38.498s-82.5 62.167 -114.5 109.5c-27.333 40 -48.333 84.833 -63 134.5s-22 101.167 -22 154.5c0 27.333 5 48.166 15 62.499s24.333 21.5 43 21.5c8 0 15.833 -1.83301 23.5 -5.5s14.167 -8.83398 19.5 -15.501
c-8.66699 -11.333 -15.334 -25 -20.001 -41s-7 -33.333 -7 -52c0 -38 6.16699 -73.833 18.5 -107.5s30.5 -63.834 54.5 -90.501c25.333 -28 54.666 -50.167 87.999 -66.5s66.666 -24.5 99.999 -24.5c28 0 54.333 7 79 21s43 32.667 55 56
c6.66699 14 10.834 28.833 12.501 44.5s0.5 31.834 -3.5 48.501c-11.333 -9.33301 -23 -16.666 -35 -21.999s-24 -8 -36 -8c-22.667 0 -42.167 8.16699 -58.5 24.5s-24.5 36.833 -24.5 61.5c0 29.333 7.5 52 22.5 68s35.5 24 61.5 24c5.33301 0 10.666 -0.333008 15.999 -1
s10.333 -2 15 -4c12 16.667 22 37.334 30 62.001s12 47.667 12 69c0 16.667 -4.33301 31 -13 43s-19.334 18 -32.001 18c-29.333 0 -59.333 -12.5 -90 -37.5s-54.667 -55.5 -72 -91.5c9.33301 -7.33301 16.666 -16.5 21.999 -27.5s8 -22.833 8 -35.5
c0 -24 -8.66699 -44 -26 -60s-39 -24 -65 -24s-47.167 10 -63.5 30s-24.5 45.667 -24.5 77c0 60 26.5 114.333 79.5 163s111.833 73 176.5 73c57.333 0 103.833 -16.833 139.5 -50.5s53.5 -74.5 53.5 -122.5v-6.5v-6.5c10.667 19.333 19.167 40.333 25.5 63s9.5 45 9.5 67
c0 38.667 -10.667 68.834 -32 90.501s-52 32.5 -92 32.5c-80 0 -141.833 15.667 -185.5 47s-65.5 74.666 -65.5 129.999c0 24 6 45 18 63s26.667 27 44 27c10 0 17.833 -2.5 23.5 -7.5s11.5 -14.167 17.5 -27.5c-12.667 -3.33301 -23 -9.83301 -31 -19.5
s-12 -20.5 -12 -32.5c0 -14.667 6.83301 -25.5 20.5 -32.5s34.834 -10.5 63.501 -10.5c98.667 0 172.167 -18.167 220.5 -54.5s73.166 -93.166 74.499 -170.499c0 -69.333 -11.167 -131.5 -33.5 -186.5s-57.166 -103.5 -104.499 -145.5
c7.33301 -16.667 13.166 -34.5 17.499 -53.5s6.5 -38.5 6.5 -58.5c0 -67.333 -20.667 -121.666 -62 -162.999s-94 -62 -158 -62z" />
    <glyph glyph-name="bn_ka" unicode="&#x995;" horiz-adv-x="680" 
d="M245 146l56 264.001c-30 -8.66699 -59.333 -21.834 -88 -39.501s-57.667 -39.5 -87 -65.5c33.333 -15.333 60 -36.5 80 -63.5s33 -58.833 39 -95.5zM214 0.000976562c13.333 64 -0.49707 118.168 -41.4971 162.501s-98.167 69.833 -171.5 76.5l-16 113
c49.333 45.333 101.666 84 156.999 116s108.333 54 159 66c-13.333 13.333 -29 22.166 -47 26.499s-42 6.5 -72 6.5h-189l-16 104h138c53.333 0 98.833 -10.667 136.5 -32s66.167 -52.333 85.5 -93c20 46.667 49.167 79.167 87.5 97.5s92.166 27.5 161.499 27.5h80l16 -104
h-123c-26 0 -47.667 -2.66699 -65 -8s-31.333 -15 -42 -29c17.333 -6.66699 34 -15.834 50 -27.501s30.667 -25.5 44 -41.5c20.667 -24.667 37 -52.667 49 -84s18 -61.333 18 -90c0 -50 -11.167 -90.667 -33.5 -122s-51.5 -47 -87.5 -47
c-26.667 0 -48.834 8.33301 -66.501 25s-26.5 38 -26.5 64c0 26.667 8.33301 48.834 25 66.501s38.667 26.5 66 26.5c10.667 0 20.167 -1.16699 28.5 -3.5s15.833 -5.83301 22.5 -10.5v0v1c0 39.333 -11.667 71.5 -35 96.5s-54 38.833 -92 41.5l-87 -425h-113z" />
    <glyph glyph-name="bn_kha" unicode="&#x996;" horiz-adv-x="622" 
d="M315 0l2 11c13.333 69.333 -4.83398 125.5 -54.501 168.5s-115.167 63.5 -196.5 61.5l-17 117c74 12 133 32.5 177 61.5s66.333 60.5 67 94.5c-0.666992 7.33301 -1.33398 13 -2.00098 17s-2 7.33301 -4 10c-29.333 -29.333 -56.666 -50.166 -81.999 -62.499
s-53.666 -18.5 -84.999 -18.5c-36.667 0 -65.667 9.5 -87 28.5s-32 45.167 -32 78.5c0 26 8.33301 47.833 25 65.5s37.667 26.5 63 26.5c26 0 47.5 -7.5 64.5 -22.5s27.167 -36.833 30.5 -65.5c12 14.667 23.667 32.5 35 53.5s21.666 44.167 30.999 69.5
c34.667 -16 63 -42.5 85 -79.5s33 -78.167 33 -123.5c0 -41.333 -11.167 -77.5 -33.5 -108.5s-55.5 -57.5 -99.5 -79.5c31.333 -18.667 56.333 -41.167 75 -67.5s31 -55.833 37 -88.5l140 651h34c0 -48 5.66699 -81.167 17 -99.5s31.333 -27.5 60 -27.5h10l16 -104h-9
c-11.333 0 -21.666 4.66699 -30.999 14s-17 22.666 -23 39.999l-131 -621h-115z" />
    </font>
</defs>
</svg>
